<?xml version="1.0" encoding="UTF-8"?>
<svg xmlns="http://www.w3.org/2000/svg" viewBox="0 0 114.52 364.25">
  <g id="Panel_Background" data-name="Panel Background">
    <rect width="114.52" height="364.25" style="fill: #d0d3d6;"/>
  </g>
  <g id="Design">
    <g id="lines">
      <line x1="22.68" y1="228.3" x2="22.68" y2="224.38" style="fill: none; stroke: #231f20; stroke-linecap: round; stroke-miterlimit: 10; stroke-width: .25px;"/>
      <line x1="22.68" y1="199.97" x2="22.68" y2="194.35" style="fill: none; stroke: #231f20; stroke-linecap: round; stroke-miterlimit: 10; stroke-width: .25px;"/>
      <line x1="22.56" y1="123.94" x2="27.4" y2="128.48" style="fill: none; stroke: #231f20; stroke-miterlimit: 10; stroke-width: .25px;"/>
      <line x1="44.71" y1="40.11" x2="39.88" y2="44.64" style="fill: none; stroke: #231f20; stroke-linecap: round; stroke-miterlimit: 10; stroke-width: .25px;"/>
      <line x1="66.31" y1="84.63" x2="61.48" y2="89.17" style="fill: none; stroke: #231f20; stroke-linecap: round; stroke-miterlimit: 10; stroke-width: .25px;"/>
    </g>
    <path d="M114.02,32.28c-.54,2.86-1.09,4.92-2.93,7.45-4.06,5.57-10.68,7.7-19.57,5.16" style="fill: none; stroke: #231f20; stroke-miterlimit: 10; stroke-width: .25px;"/>
    <path d="M21.85,168.08c3.56-.52,6.41-2.25,7.42-5.31.53-1.6,1.02-5.16-2.64-9.42" style="fill: none; stroke: #231f20; stroke-miterlimit: 10; stroke-width: .25px;"/>
    <g id="knob_curve_outlines" data-name="knob curve outlines">
      <g>
        <path d="M70.82,140.33c-7.07-7.07-7.07-18.54,0-25.61" style="fill: none; stroke: #231f20; stroke-linecap: round; stroke-miterlimit: 10; stroke-width: .25px;"/>
        <path d="M96.43,114.71c7.07,7.07,7.07,18.54,0,25.61" style="fill: none; stroke: #231f20; stroke-linecap: round; stroke-miterlimit: 10; stroke-width: .25px;"/>
      </g>
      <g>
        <path d="M9.35,241.65c0-4.14,1.89-7.84,4.85-10.28,2.3-1.9,5.26-3.04,8.48-3.04" style="fill: none; stroke: #231f20; stroke-linecap: round; stroke-miterlimit: 10; stroke-width: .25px;"/>
        <path d="M36.01,241.65c0,3.83-1.61,7.28-4.19,9.71-2.39,2.25-5.6,3.62-9.13,3.62" style="fill: none; stroke: #231f20; stroke-linecap: round; stroke-miterlimit: 10; stroke-width: .25px;"/>
      </g>
      <g>
        <path d="M9.35,278.5c0-4.14,1.89-7.84,4.85-10.28,2.3-1.9,5.26-3.04,8.48-3.04" style="fill: none; stroke: #231f20; stroke-linecap: round; stroke-miterlimit: 10; stroke-width: .25px;"/>
        <path d="M36.01,278.5c0,3.83-1.61,7.28-4.19,9.71-2.39,2.25-5.6,3.62-9.13,3.62" style="fill: none; stroke: #231f20; stroke-linecap: round; stroke-miterlimit: 10; stroke-width: .25px;"/>
      </g>
      <g>
        <path d="M9.35,315.35c0-4.14,1.89-7.84,4.85-10.28,2.3-1.9,5.26-3.04,8.48-3.04" style="fill: none; stroke: #231f20; stroke-linecap: round; stroke-miterlimit: 10; stroke-width: .25px;"/>
        <path d="M36.01,315.35c0,3.83-1.61,7.28-4.19,9.71-2.39,2.25-5.6,3.62-9.13,3.62" style="fill: none; stroke: #231f20; stroke-linecap: round; stroke-miterlimit: 10; stroke-width: .25px;"/>
      </g>
      <g>
        <path d="M43.37,272.83c0-4.14,1.89-7.84,4.85-10.28,2.3-1.9,5.26-3.04,8.48-3.04" style="fill: none; stroke: #231f20; stroke-linecap: round; stroke-miterlimit: 10; stroke-width: .25px;"/>
        <path d="M70.02,272.83c0,3.83-1.61,7.28-4.19,9.71-2.39,2.25-5.6,3.62-9.13,3.62" style="fill: none; stroke: #231f20; stroke-linecap: round; stroke-miterlimit: 10; stroke-width: .25px;"/>
      </g>
      <g>
        <path d="M77.38,267.16c0-4.14,1.89-7.84,4.85-10.28,2.3-1.9,5.26-3.04,8.48-3.04" style="fill: none; stroke: #231f20; stroke-linecap: round; stroke-miterlimit: 10; stroke-width: .25px;"/>
        <path d="M104.04,267.16c0,3.83-1.61,7.28-4.19,9.71-2.39,2.25-5.6,3.62-9.13,3.62" style="fill: none; stroke: #231f20; stroke-linecap: round; stroke-miterlimit: 10; stroke-width: .25px;"/>
      </g>
      <g>
        <path d="M43.37,235.98c0-4.14,1.89-7.84,4.85-10.28,2.3-1.9,5.26-3.04,8.48-3.04" style="fill: none; stroke: #231f20; stroke-linecap: round; stroke-miterlimit: 10; stroke-width: .25px;"/>
        <path d="M70.02,235.98c0,3.83-1.61,7.28-4.19,9.71-2.39,2.25-5.6,3.62-9.13,3.62" style="fill: none; stroke: #231f20; stroke-linecap: round; stroke-miterlimit: 10; stroke-width: .25px;"/>
      </g>
      <g>
        <path d="M77.38,230.31c0-4.14,1.89-7.84,4.85-10.28,2.3-1.9,5.26-3.04,8.48-3.04" style="fill: none; stroke: #231f20; stroke-linecap: round; stroke-miterlimit: 10; stroke-width: .25px;"/>
        <path d="M104.04,230.31c0,3.83-1.61,7.28-4.19,9.71-2.39,2.25-5.6,3.62-9.13,3.62" style="fill: none; stroke: #231f20; stroke-linecap: round; stroke-miterlimit: 10; stroke-width: .25px;"/>
      </g>
      <path d="M16,184.18c-3.69-3.69-3.69-9.67,0-13.36,1.65-1.65,3.99-2.55,5.92-2.74" style="fill: none; stroke: #231f20; stroke-linecap: round; stroke-miterlimit: 10; stroke-width: .25px;"/>
      <path d="M66.31,84.62c-9.42-9.42-9.42-24.68,0-34.1,6.84-6.84,16.62-8.39,25.3-5.61" style="fill: none; stroke: #231f20; stroke-linecap: round; stroke-miterlimit: 10; stroke-width: .25px;"/>
      <path d="M26.63,153.36c-6.53-7.33-6.03-18.58,1.2-25.3s18.78-6.4,25.6.93" style="fill: none; stroke: #231f20; stroke-linecap: round; stroke-miterlimit: 10; stroke-width: .25px;"/>
      <path d="M14.68,44.21c7.5-6.18,18.24-6.49,25.16.44,7.07,7.07,7.07,18.54,0,25.61" style="fill: none; stroke: #231f20; stroke-linecap: round; stroke-miterlimit: 10; stroke-width: .25px;"/>
    </g>
    <g id="wave_forms" data-name="wave forms">
      <g>
        <line x1="81.68" y1="207.07" x2="84.15" y2="204.83" style="fill: none; stroke: #231f20; stroke-linecap: round; stroke-miterlimit: 10; stroke-width: .25px;"/>
        <line x1="84.15" y1="208.44" x2="86.5" y2="206.29" style="fill: none; stroke: #231f20; stroke-linecap: round; stroke-miterlimit: 10; stroke-width: .25px;"/>
        <line x1="84.15" y1="204.83" x2="84.15" y2="208.44" style="fill: none; stroke: #231f20; stroke-linecap: round; stroke-miterlimit: 10; stroke-width: .25px;"/>
      </g>
      <g>
        <line x1="46.17" y1="208.44" x2="46.17" y2="204.83" style="fill: none; stroke: #231f20; stroke-linecap: round; stroke-miterlimit: 10; stroke-width: .25px;"/>
        <line x1="46.18" y1="204.83" x2="48.38" y2="204.83" style="fill: none; stroke: #231f20; stroke-linecap: round; stroke-miterlimit: 10; stroke-width: .25px;"/>
        <line x1="44.87" y1="208.44" x2="46.17" y2="208.44" style="fill: none; stroke: #231f20; stroke-linecap: round; stroke-miterlimit: 10; stroke-width: .25px;"/>
        <line x1="48.39" y1="208.44" x2="49.69" y2="208.44" style="fill: none; stroke: #231f20; stroke-linecap: round; stroke-miterlimit: 10; stroke-width: .25px;"/>
        <line x1="48.39" y1="208.44" x2="48.39" y2="204.83" style="fill: none; stroke: #231f20; stroke-linecap: round; stroke-miterlimit: 10; stroke-width: .25px;"/>
      </g>
      <g>
        <path d="M63.27,172.47s1.19-4.1,2.41,0" style="fill: none; stroke: #231f20; stroke-linecap: round; stroke-miterlimit: 10; stroke-width: .25px;"/>
        <path d="M65.68,172.43s1.19,4.1,2.41,0" style="fill: none; stroke: #231f20; stroke-linecap: round; stroke-miterlimit: 10; stroke-width: .25px;"/>
      </g>
      <path d="M70.11,172.9c4.09.83,7.99,2.84,11.16,6.01,6.43,6.43,8.05,15.83,4.89,23.77" style="fill: none; stroke: #231f20; stroke-linecap: round; stroke-miterlimit: 10; stroke-width: .25px;"/>
      <path d="M45.21,202.67c-3.17-7.94-1.54-17.34,4.89-23.77,3.17-3.17,7.06-5.17,11.14-6" style="fill: none; stroke: #231f20; stroke-linecap: round; stroke-miterlimit: 10; stroke-width: .25px;"/>
    </g>
    <g id="flowers">
      <g>
        <path d="M59.77,322.09c-1.05,0-2.11-.24-3.06-.68-.87.44-1.93.68-2.98.68-1.25,0-2.49-.33-3.58-.96-2.03-1.17-3.37-3.27-3.57-5.62-1.88-1.28-3.04-3.48-3.04-5.83s1.15-4.55,3.08-5.9c.16-2.27,1.5-4.37,3.53-5.54,1.09-.63,2.33-.96,3.58-.96,1.05,0,2.11.24,3.06.68.87-.44,1.93-.68,2.98-.68,1.25,0,2.49.33,3.58.96,2.03,1.17,3.36,3.27,3.57,5.61,1.88,1.28,3.04,3.48,3.04,5.83s-1.15,4.55-3.08,5.9c-.16,2.27-1.5,4.37-3.53,5.54-1.09.63-2.33.96-3.58.96Z" style="fill: #231f20;"/>
        <path d="M59.77,297.38c1.2,0,2.42.31,3.54.95,2.09,1.2,3.32,3.31,3.52,5.54,1.83,1.28,3.04,3.41,3.04,5.82s-1.2,4.53-3.04,5.82c-.2,2.23-1.43,4.33-3.52,5.54-1.12.64-2.33.95-3.54.95-1.04,0-2.08-.23-3.02-.67-.94.44-1.98.67-3.02.67-1.2,0-2.42-.31-3.54-.95-2.09-1.2-3.32-3.31-3.52-5.54-1.83-1.28-3.04-3.41-3.04-5.82s1.2-4.53,3.04-5.82c.2-2.23,1.43-4.33,3.52-5.54,1.12-.64,2.33-.95,3.54-.95,1.04,0,2.08.23,3.02.67.94-.44,1.98-.67,3.02-.67M59.77,297.18s0,0,0,0c-1.03,0-2.07.22-3.02.65-.94-.43-1.99-.65-3.02-.65-1.27,0-2.53.34-3.64.98-2.03,1.17-3.38,3.26-3.61,5.6-1.91,1.37-3.04,3.58-3.04,5.93s1.14,4.55,3.04,5.93c.23,2.34,1.58,4.43,3.61,5.6,1.11.64,2.36.98,3.64.98,1.03,0,2.07-.22,3.02-.65.94.43,1.99.65,3.02.65,1.27,0,2.53-.34,3.64-.98,2.03-1.17,3.38-3.26,3.61-5.6,1.91-1.37,3.04-3.58,3.04-5.93s-1.14-4.55-3.04-5.93c-.23-2.34-1.58-4.43-3.61-5.6-1.11-.64-2.36-.98-3.64-.98h0Z"/>
      </g>
      <g>
        <path d="M93.7,316.42c-1.05,0-2.11-.23-3.06-.68-.87.44-1.93.68-2.98.68-1.25,0-2.49-.33-3.59-.96-2.03-1.17-3.36-3.27-3.57-5.61-1.88-1.28-3.04-3.48-3.04-5.83s1.15-4.55,3.08-5.9c.16-2.27,1.5-4.37,3.53-5.54,1.09-.63,2.33-.96,3.59-.96,1.05,0,2.11.23,3.06.68.87-.44,1.93-.68,2.98-.68,1.25,0,2.49.33,3.59.96,2.03,1.17,3.36,3.27,3.57,5.61,1.88,1.28,3.04,3.48,3.04,5.83s-1.15,4.55-3.08,5.9c-.16,2.27-1.5,4.37-3.53,5.54-1.09.63-2.33.96-3.59.96h0Z" style="fill: #231f20;"/>
        <path d="M93.7,291.71c1.2,0,2.42.31,3.54.95,2.09,1.2,3.32,3.31,3.52,5.54,1.83,1.28,3.04,3.41,3.04,5.82s-1.2,4.53-3.04,5.82c-.2,2.23-1.43,4.33-3.52,5.54-1.12.64-2.33.95-3.54.95-1.04,0-2.08-.23-3.02-.67-.94.44-1.98.67-3.02.67-1.2,0-2.42-.31-3.54-.95-2.09-1.2-3.32-3.31-3.52-5.54-1.83-1.28-3.04-3.41-3.04-5.82s1.2-4.53,3.04-5.82c.2-2.23,1.43-4.33,3.52-5.54,1.12-.64,2.33-.95,3.54-.95,1.04,0,2.08.23,3.02.67.94-.44,1.98-.67,3.02-.67M93.7,291.51s0,0,0,0c-1.03,0-2.07.22-3.02.65-.94-.43-1.99-.65-3.02-.65-1.27,0-2.53.34-3.64.98-2.03,1.17-3.38,3.26-3.61,5.6-1.91,1.37-3.04,3.58-3.04,5.93s1.14,4.55,3.04,5.93c.23,2.34,1.58,4.43,3.61,5.6,1.11.64,2.36.98,3.64.98,1.03,0,2.07-.22,3.02-.65.94.43,1.99.65,3.02.65,1.27,0,2.53-.34,3.64-.98,2.03-1.17,3.38-3.26,3.61-5.6,1.91-1.37,3.04-3.58,3.04-5.93s-1.14-4.55-3.04-5.93c-.23-2.34-1.58-4.43-3.61-5.6-1.11-.64-2.36-.98-3.64-.98h0Z"/>
      </g>
    </g>
    <path d="M114.52,199.21v2.95l-13.78,6.63c-.19.09-.38.13-.57.13-.5,0-.97-.28-1.2-.75-.32-.66-.04-1.45.62-1.77l14.93-7.19Z" style="fill: none; stroke: #231f20; stroke-linecap: round; stroke-miterlimit: 10; stroke-width: .25px;"/>
    <path d="M14.72,153.22c0,.37-.15.74-.45,1-.55.48-1.39.43-1.87-.12L0,139.91v-4.02l14.4,16.46c.22.25.32.56.32.87Z" style="fill: none; stroke: #231f20; stroke-linecap: round; stroke-miterlimit: 10; stroke-width: .25px;"/>
    <path d="M79.33,364.26h-3.55l-13.67-15.42c-.22-.25-.33-.57-.33-.88,0-.37.15-.74.44-1,.55-.48,1.39-.43,1.88.12l15.23,17.18Z" style="fill: none; stroke: #231f20; stroke-linecap: round; stroke-miterlimit: 10; stroke-width: .25px;"/>
    <circle cx="18.44" cy="119.5" r="6.02" style="fill: none; stroke: #231f20; stroke-miterlimit: 10; stroke-width: .25px;"/>
    <circle cx="48.89" cy="35.75" r="6.02" style="fill: none; stroke: #231f20; stroke-miterlimit: 10; stroke-width: .25px;"/>
    <path d="M11.55,98.65s.01.05.01.07c0,2.47-2,4.46-4.46,4.46s-4.44-1.98-4.46-4.42h-.07c-.96,0-1.85-.3-2.57-.81v-7.3c.72-.51,1.59-.8,2.53-.81,0-.02-.01-.05-.01-.07,0-2.46,2-4.46,4.47-4.46s4.44,1.98,4.46,4.43c.02,0,.04-.01.07-.01,2.46,0,4.46,2,4.46,4.46s-1.98,4.44-4.43,4.46Z" style="fill: none; stroke: #231f20; stroke-miterlimit: 10; stroke-width: .25px;"/>
    <path d="M114.42,164.93c0-3.45-2.79-6.24-6.24-6.24-.03,0-.06,0-.1,0-.03-3.42-2.81-6.19-6.23-6.19s-6.24,2.79-6.24,6.24c0,.03,0,.06,0,.1-3.42.03-6.19,2.81-6.19,6.23s2.79,6.24,6.24,6.24c.03,0,.06,0,.1,0,.03,3.42,2.81,6.19,6.23,6.19s6.24-2.79,6.24-6.24c0-.03,0-.06,0-.1,3.42-.03,6.19-2.81,6.19-6.23Z" style="fill: none; stroke: #231f20; stroke-miterlimit: 10; stroke-width: .25px;"/>
    <path d="M56.68,111.14c-.24-.29-.53-.53-.82-.73,1.33-.52,2.59-1.25,3.75-2.21,5.17-4.32,6.3-11.7,2.94-17.3-.36-.6-.77-1.18-1.23-1.74-4.79-5.73-13.31-6.49-19.04-1.7-1.22,1.02-2.2,2.21-2.96,3.51-2.66-2.11-6.51-2.14-9.22.12-3.1,2.59-3.51,7.19-.92,10.29,2.32,2.77,6.26,3.39,9.28,1.62.51,1.24,1.22,2.42,2.12,3.5,2.46,2.95,5.92,4.57,9.47,4.81-1.17,1.54-1.18,3.75.12,5.3,1.51,1.8,4.19,2.04,5.99.54s2.04-4.19.54-5.99Z" style="fill: none; stroke: #231f20; stroke-miterlimit: 10; stroke-width: .25px;"/>
    <path d="M114.52,318.37v22.52c-1.06.14-2.17.12-3.28-.07-1.18-.21-2.28-.59-3.29-1.11.03.48.02.98-.07,1.48-.57,3.33-3.73,5.57-7.06,5-3.33-.58-5.57-3.74-5-7.07.57-3.28,3.65-5.5,6.93-5.01-.84-1.95-1.15-4.15-.77-6.4,1.04-5.98,6.58-10.06,12.54-9.34Z" style="fill: none; stroke: #231f20; stroke-miterlimit: 10; stroke-width: .25px;"/>
    <path d="M103.11,17.41c-1.32-.26-2.6.14-3.54.97,0-6.02-4.22-11.4-10.35-12.63-6.98-1.4-13.77,3.12-15.17,10.09-.51,2.54-.23,5.05.66,7.29-3.7-.65-7.27,1.76-8.02,5.47-.76,3.76,1.68,7.42,5.44,8.18s7.42-1.68,8.18-5.44c.11-.57.15-1.13.12-1.68,1.13.63,2.37,1.09,3.7,1.36,6.15,1.24,12.16-2.14,14.45-7.74.55,1.11,1.57,1.97,2.88,2.24,2.23.45,4.41-1,4.86-3.23s-1-4.41-3.23-4.86Z" style="fill: none; stroke: #231f20; stroke-miterlimit: 10; stroke-width: .25px;"/>
    <path d="M56.76,352.71c0,4.01-3.25,7.26-7.26,7.26-2.08,0-3.95-.88-5.28-2.28.02.34.05.69.05,1.04,0,1.95-.35,3.81-.99,5.53H13.75c-.64-1.72-.99-3.58-.99-5.53,0-8.7,7.05-15.76,15.75-15.76,6,0,11.21,3.35,13.87,8.27.68-3.31,3.61-5.8,7.12-5.8,4.01,0,7.26,3.25,7.26,7.27Z" style="fill: none; stroke: #231f20; stroke-miterlimit: 10; stroke-width: .25px;"/>
    <path d="M21.36,20.38c-.26,7.02-6.16,12.51-13.19,12.25-3.16-.11-6.01-1.37-8.17-3.37V10.57c2.38-2.21,5.6-3.5,9.1-3.38,7.03.26,12.52,6.16,12.26,13.19Z" style="fill: none; stroke: #231f20; stroke-miterlimit: 10; stroke-width: .25px;"/>
    <circle cx="83.66" cy="339.71" r="3.02" style="fill: none; stroke: #231f20; stroke-miterlimit: 10; stroke-width: .25px;"/>
    <circle cx="30.13" cy="28.01" r="3.6" style="fill: none; stroke: #231f20; stroke-miterlimit: 10; stroke-width: .25px;"/>
    <path d="M14.73,44.17c-4.77,3.99-10.55,5.14-14.73,2.76" style="fill: none; stroke: #231f20; stroke-miterlimit: 10; stroke-width: .25px;"/>
  </g>
  <g id="Labels">
    <g>
      <path d="M74.67,94.91c0-.96.69-1.64,1.56-1.64.59,0,1.09.3,1.29.75,0-.23-.01-.46-.01-.69v-1.45h.23v4.6h-.21v-.69c-.21.44-.71.75-1.29.75-.87,0-1.56-.68-1.56-1.63ZM76.25,96.31c.7,0,1.3-.48,1.3-1.41s-.6-1.41-1.3-1.41c-.77,0-1.34.6-1.34,1.41s.57,1.41,1.34,1.41Z" style="fill: #231f20;"/>
      <path d="M78.46,94.91c0-.89.64-1.63,1.54-1.63.75,0,1.41.51,1.48,1.54h-2.79v.1c0,.76.53,1.38,1.34,1.38.56,0,1-.29,1.24-.75l.2.1c-.2.4-.67.88-1.44.88-.94,0-1.57-.72-1.57-1.62ZM81.22,94.61c-.14-.77-.67-1.09-1.23-1.09-.68,0-1.16.48-1.27,1.09h2.5Z" style="fill: #231f20;"/>
      <path d="M83.27,93.27c.72,0,1.14.47,1.14,1.29v1.92h-.23v-1.91c0-.7-.32-1.08-.91-1.08s-.91.38-.91,1.08v1.91h-.23v-1.92c0-.82.41-1.29,1.14-1.29Z" style="fill: #231f20;"/>
      <path d="M85.1,96.48v-.22c.23.02.46.03.59.03.54,0,.81-.19.81-.58,0-.28-.15-.46-.52-.68l-.23-.14c-.45-.28-.66-.53-.66-.87,0-.44.36-.72.93-.72.12,0,.3.01.47.03v.21c-.18-.02-.32-.02-.42-.02-.49,0-.75.19-.75.51,0,.25.17.44.54.67l.25.15c.43.26.62.51.62.86,0,.5-.38.81-1.03.81-.13,0-.36-.01-.59-.03Z" style="fill: #231f20;"/>
      <path d="M87.37,91.88h.23v.81h-.23v-.81ZM87.37,93.33h.23v3.15h-.23v-3.15Z" style="fill: #231f20;"/>
      <path d="M88.63,93.55h-.39v-.22h.39v-.92l.23-.12v1.04h.42v.22h-.42v2.93h-.23v-2.93Z" style="fill: #231f20;"/>
      <path d="M90.84,96.25l-1.33-2.92h.26l1.19,2.66,1.08-2.66h.25l-1.79,4.32h-.25l.59-1.4Z" style="fill: #231f20;"/>
    </g>
    <g>
      <path d="M12.78,190.29c0-.86.61-1.48,1.45-1.48.14,0,.3.02.47.05v.2c-.2-.03-.35-.04-.46-.04-.74,0-1.25.52-1.25,1.27s.52,1.27,1.25,1.27c.1,0,.26-.01.46-.04v.2c-.17.03-.33.05-.47.05-.84,0-1.45-.62-1.45-1.48Z" style="fill: #231f20;"/>
      <path d="M15.02,190.29c0-.86.62-1.51,1.45-1.51s1.44.64,1.44,1.51-.62,1.5-1.44,1.5-1.45-.64-1.45-1.5ZM16.46,191.58c.7,0,1.22-.55,1.22-1.29s-.52-1.3-1.22-1.3-1.23.55-1.23,1.3.52,1.29,1.23,1.29Z" style="fill: #231f20;"/>
      <path d="M19.57,191.79c-.66,0-1.04-.43-1.04-1.19v-1.76h.21v1.76c0,.64.3.99.83.99s.83-.35.83-.99v-1.76h.21v1.76c0,.75-.38,1.19-1.04,1.19Z" style="fill: #231f20;"/>
      <path d="M21.45,188.84h.2v.63c.19-.41.65-.69,1.19-.69.8,0,1.43.63,1.43,1.51s-.63,1.5-1.43,1.5c-.54,0-1-.28-1.19-.69,0,.21.01.42.01.63v1.08h-.21v-3.97ZM22.81,191.58c.71,0,1.24-.55,1.24-1.29s-.52-1.3-1.24-1.3c-.64,0-1.19.45-1.19,1.3s.55,1.29,1.19,1.29Z" style="fill: #231f20;"/>
      <path d="M24.93,187.51h.21v4.22h-.21v-4.22Z" style="fill: #231f20;"/>
      <path d="M25.99,187.51h.21v.75h-.21v-.75ZM25.99,188.84h.21v2.89h-.21v-2.89Z" style="fill: #231f20;"/>
      <path d="M28.07,188.78c.66,0,1.04.43,1.04,1.19v1.76h-.21v-1.76c0-.64-.3-.99-.83-.99s-.83.35-.83.99v1.76h-.21v-1.76c0-.75.38-1.19,1.04-1.19Z" style="fill: #231f20;"/>
      <path d="M30.57,192.61h.49c.91,0,1.29-.38,1.3-1.1v-.44c-.18.41-.64.68-1.17.68-.81,0-1.44-.62-1.44-1.47s.63-1.48,1.43-1.48c.53,0,.99.28,1.19.69v-.63h.2v2.66c0,.76-.41,1.31-1.52,1.31h-.48v-.2ZM31.21,191.53c.62,0,1.18-.4,1.18-1.24s-.55-1.3-1.19-1.3c-.71,0-1.23.54-1.23,1.27s.52,1.26,1.25,1.26Z" style="fill: #231f20;"/>
    </g>
    <g>
      <path d="M17.78,223.01v-1.17c0-.23,0-.46.01-.69-.2.44-.71.75-1.29.75-.87,0-1.56-.68-1.56-1.63s.69-1.64,1.56-1.64c.58,0,1.08.3,1.29.75v-.69h.21v4.32h-.23ZM16.52,221.67c.69,0,1.29-.48,1.29-1.41s-.6-1.41-1.29-1.41c-.78,0-1.35.6-1.35,1.41s.57,1.41,1.35,1.41Z" style="fill: #231f20;"/>
      <path d="M20.04,221.9c-.72,0-1.14-.47-1.14-1.29v-1.92h.23v1.91c0,.7.32,1.08.91,1.08s.91-.38.91-1.08v-1.91h.23v1.92c0,.82-.41,1.29-1.14,1.29Z" style="fill: #231f20;"/>
      <path d="M21.85,220.26c0-.96.69-1.64,1.56-1.64.58,0,1.08.3,1.29.75v-.69h.21v3.15h-.21v-.69c-.21.44-.71.75-1.29.75-.87,0-1.56-.68-1.56-1.63ZM23.42,221.67c.7,0,1.3-.48,1.3-1.41s-.6-1.41-1.3-1.41c-.77,0-1.34.6-1.34,1.41s.57,1.41,1.34,1.41Z" style="fill: #231f20;"/>
      <path d="M26.95,218.62c.72,0,1.14.47,1.14,1.29v1.92h-.23v-1.91c0-.7-.32-1.08-.91-1.08s-.91.38-.91,1.08v1.91h-.23v-1.92c0-.82.41-1.29,1.14-1.29Z" style="fill: #231f20;"/>
      <path d="M29.04,218.91h-.39v-.22h.39v-.92l.23-.12v1.04h.42v.22h-.42v2.93h-.23v-2.93Z" style="fill: #231f20;"/>
      <path d="M30.16,221.27h.29v.56h-.29v-.56Z" style="fill: #231f20;"/>
    </g>
    <g>
      <path d="M17.69,335.21v-.22c.23.02.46.03.59.03.54,0,.81-.19.81-.58,0-.28-.15-.46-.52-.68l-.23-.14c-.45-.28-.66-.53-.66-.87,0-.44.36-.72.93-.72.12,0,.3.01.47.03v.21c-.18-.02-.32-.02-.42-.02-.49,0-.75.19-.75.51,0,.25.17.44.54.67l.25.15c.43.26.62.51.62.86,0,.5-.38.81-1.03.81-.13,0-.36-.01-.59-.03Z" style="fill: #231f20;"/>
      <path d="M20.81,334.98l-1.33-2.92h.26l1.19,2.66,1.08-2.66h.25l-1.79,4.32h-.25l.59-1.4Z" style="fill: #231f20;"/>
      <path d="M23.82,332c.72,0,1.14.47,1.14,1.29v1.92h-.23v-1.91c0-.7-.32-1.08-.91-1.08s-.91.38-.91,1.08v1.91h-.23v-1.92c0-.82.41-1.29,1.14-1.29Z" style="fill: #231f20;"/>
      <path d="M25.64,333.64c0-.94.66-1.61,1.58-1.61.15,0,.33.02.51.05v.22c-.22-.04-.38-.05-.5-.05-.8,0-1.36.57-1.36,1.38s.56,1.38,1.36,1.38c.11,0,.28-.01.5-.05v.22c-.19.04-.37.05-.51.05-.92,0-1.58-.67-1.58-1.61Z" style="fill: #231f20;"/>
    </g>
    <g>
      <path d="M80.96,282.42h.05v.22h-.04c-.38,0-.56.15-.56.54v.69h.43v.22h-.43v2.94h-.23v-2.94h-.39v-.22h.39v-.7c0-.48.25-.75.78-.75Z" style="fill: #231f20;"/>
      <path d="M82.44,283.81c.53,0,.86.29,1,.7.13-.41.47-.7,1.01-.7.67,0,1.05.49,1.05,1.25v1.97h-.23v-1.94c0-.65-.26-1.06-.82-1.06s-.89.43-.89,1.15v1.85h-.23v-1.85c0-.72-.31-1.15-.88-1.15s-.83.41-.83,1.06v1.94h-.23v-1.97c0-.76.38-1.25,1.06-1.25Z" style="fill: #231f20;"/>
      <path d="M87.98,282.42h.23v.82h-.23v-.82ZM87.98,283.87h.23v3.16h-.23v-3.16Z" style="fill: #231f20;"/>
      <path d="M90.25,283.81c.72,0,1.14.47,1.14,1.3v1.92h-.23v-1.92c0-.7-.32-1.08-.91-1.08s-.91.38-.91,1.08v1.92h-.23v-1.92c0-.82.41-1.3,1.14-1.3Z" style="fill: #231f20;"/>
      <path d="M92.08,285.45c0-.96.69-1.64,1.57-1.64.59,0,1.09.31,1.29.75,0-.23-.01-.46-.01-.69v-1.45h.23v4.61h-.22v-.69c-.21.44-.71.75-1.29.75-.88,0-1.57-.68-1.57-1.64ZM93.65,286.86c.7,0,1.3-.49,1.3-1.41s-.6-1.42-1.3-1.42c-.77,0-1.34.6-1.34,1.42s.57,1.41,1.34,1.41Z" style="fill: #231f20;"/>
      <path d="M95.87,285.46c0-.89.64-1.63,1.55-1.63.76,0,1.41.51,1.48,1.55h-2.79v.1c0,.76.53,1.38,1.34,1.38.56,0,1.01-.29,1.24-.76l.2.1c-.2.4-.67.88-1.44.88-.94,0-1.58-.72-1.58-1.62ZM98.64,285.15c-.14-.77-.67-1.1-1.23-1.1-.68,0-1.16.48-1.28,1.1h2.51Z" style="fill: #231f20;"/>
      <path d="M100.27,285.42l-1.14-1.55h.28l1.01,1.38.98-1.38h.27l-1.11,1.56,1.18,1.6h-.28l-1.05-1.43-1.01,1.43h-.27l1.13-1.61Z" style="fill: #231f20;"/>
    </g>
    <g>
      <path d="M33.55,162.73c0-.9.64-1.55,1.52-1.55.14,0,.32.02.49.05v.21c-.21-.03-.37-.05-.48-.05-.77,0-1.31.55-1.31,1.33s.54,1.33,1.31,1.33c.11,0,.27-.01.48-.05v.21c-.18.04-.35.05-.49.05-.88,0-1.52-.64-1.52-1.55Z" style="fill: #231f20;"/>
      <path d="M35.89,162.73c0-.92.66-1.58,1.5-1.58.56,0,1.04.29,1.24.72v-.66h.21v3.03h-.21v-.66c-.2.42-.68.72-1.24.72-.84,0-1.5-.66-1.5-1.57ZM37.41,164.08c.67,0,1.25-.47,1.25-1.35s-.58-1.36-1.25-1.36c-.74,0-1.29.58-1.29,1.36s.55,1.35,1.29,1.35Z" style="fill: #231f20;"/>
      <path d="M39.53,162.73c0-.92.66-1.58,1.5-1.58.56,0,1.05.29,1.24.72,0-.22-.01-.44-.01-.66v-1.39h.22v4.42h-.21v-.66c-.2.42-.68.72-1.24.72-.84,0-1.5-.66-1.5-1.57ZM41.05,164.08c.67,0,1.25-.47,1.25-1.35s-.58-1.36-1.25-1.36c-.74,0-1.29.58-1.29,1.36s.55,1.35,1.29,1.35Z" style="fill: #231f20;"/>
      <path d="M43.17,162.74c0-.86.62-1.57,1.48-1.57.72,0,1.35.49,1.42,1.48h-2.68v.09c0,.73.51,1.32,1.29,1.32.54,0,.97-.28,1.19-.72l.19.1c-.2.39-.64.85-1.38.85-.9,0-1.51-.69-1.51-1.55ZM45.83,162.44c-.13-.74-.64-1.05-1.18-1.05-.65,0-1.12.46-1.22,1.05h2.4Z" style="fill: #231f20;"/>
      <path d="M47.81,161.15c.69,0,1.09.45,1.09,1.24v1.85h-.22v-1.84c0-.67-.31-1.04-.88-1.04s-.87.36-.87,1.04v1.84h-.22v-1.85c0-.79.4-1.24,1.09-1.24Z" style="fill: #231f20;"/>
      <path d="M49.56,162.73c0-.9.64-1.55,1.52-1.55.14,0,.32.02.49.05v.21c-.21-.03-.37-.05-.48-.05-.77,0-1.31.55-1.31,1.33s.54,1.33,1.31,1.33c.11,0,.27-.01.48-.05v.21c-.18.04-.35.05-.49.05-.88,0-1.52-.64-1.52-1.55Z" style="fill: #231f20;"/>
      <path d="M51.9,162.74c0-.86.62-1.57,1.48-1.57.72,0,1.35.49,1.42,1.48h-2.68v.09c0,.73.51,1.32,1.29,1.32.54,0,.97-.28,1.19-.72l.19.1c-.2.39-.64.85-1.38.85-.9,0-1.51-.69-1.51-1.55ZM54.56,162.44c-.13-.74-.64-1.05-1.18-1.05-.65,0-1.12.46-1.22,1.05h2.4Z" style="fill: #231f20;"/>
    </g>
    <g>
      <path d="M75.77,147.13h-.39v-.22h.39v-.92l.23-.12v1.04h.42v.22h-.42v2.93h-.23v-2.93Z" style="fill: #231f20;"/>
      <path d="M76.77,148.49c0-.94.67-1.64,1.57-1.64s1.57.7,1.57,1.64-.67,1.63-1.57,1.63-1.57-.7-1.57-1.63ZM78.34,149.89c.77,0,1.33-.6,1.33-1.41s-.57-1.41-1.33-1.41-1.34.6-1.34,1.41.57,1.41,1.34,1.41Z" style="fill: #231f20;"/>
      <path d="M81.45,146.91h.31v.22h-.29c-.45,0-.64.16-.64.66v2.27h-.23v-2.29c0-.59.25-.87.85-.87Z" style="fill: #231f20;"/>
      <path d="M84.73,151.23v-1.17c0-.23,0-.46.01-.69-.2.44-.71.75-1.29.75-.87,0-1.56-.68-1.56-1.63s.69-1.64,1.56-1.64c.58,0,1.08.3,1.29.75v-.69h.21v4.32h-.23ZM83.46,149.89c.69,0,1.29-.48,1.29-1.41s-.6-1.41-1.29-1.41c-.78,0-1.35.6-1.35,1.41s.57,1.41,1.35,1.41Z" style="fill: #231f20;"/>
      <path d="M86.98,150.12c-.72,0-1.14-.47-1.14-1.29v-1.92h.23v1.91c0,.7.32,1.08.91,1.08s.91-.38.91-1.08v-1.91h.23v1.92c0,.82-.41,1.29-1.14,1.29Z" style="fill: #231f20;"/>
      <path d="M88.8,148.5c0-.89.64-1.63,1.54-1.63.75,0,1.41.51,1.48,1.54h-2.79v.1c0,.76.53,1.38,1.34,1.38.56,0,1-.29,1.24-.75l.2.1c-.2.4-.67.88-1.44.88-.94,0-1.57-.72-1.57-1.62ZM91.56,148.19c-.14-.77-.67-1.09-1.23-1.09-.68,0-1.16.48-1.27,1.09h2.5Z" style="fill: #231f20;"/>
    </g>
    <g>
      <path d="M48.9,326.48h-.39v-.22h.39v-.92l.23-.12v1.04h.42v.22h-.42v2.93h-.23v-2.93Z" style="fill: #231f20;"/>
      <path d="M50.97,326.26h.31v.22h-.29c-.45,0-.64.16-.64.66v2.27h-.23v-2.29c0-.59.25-.87.85-.87Z" style="fill: #231f20;"/>
      <path d="M51.8,324.81h.23v.81h-.23v-.81ZM51.8,326.26h.23v3.15h-.23v-3.15Z" style="fill: #231f20;"/>
      <path d="M53.64,330.36h.53c.99,0,1.4-.41,1.42-1.2v-.48c-.2.44-.7.74-1.27.74-.88,0-1.57-.67-1.57-1.6s.69-1.62,1.56-1.62c.58,0,1.08.3,1.29.75v-.69h.21v2.9c0,.83-.45,1.42-1.66,1.42h-.52v-.22ZM54.34,329.19c.68,0,1.28-.43,1.28-1.35s-.6-1.41-1.3-1.41c-.77,0-1.34.59-1.34,1.39s.56,1.38,1.36,1.38Z" style="fill: #231f20;"/>
      <path d="M57.43,330.36h.53c.99,0,1.4-.41,1.42-1.2v-.48c-.2.44-.7.74-1.27.74-.88,0-1.57-.67-1.57-1.6s.69-1.62,1.56-1.62c.58,0,1.08.3,1.29.75v-.69h.21v2.9c0,.83-.45,1.42-1.66,1.42h-.52v-.22ZM58.13,329.19c.68,0,1.28-.43,1.28-1.35s-.6-1.41-1.3-1.41c-.77,0-1.34.59-1.34,1.39s.56,1.38,1.36,1.38Z" style="fill: #231f20;"/>
      <path d="M60.31,327.84c0-.89.64-1.63,1.54-1.63.75,0,1.41.51,1.48,1.54h-2.79v.1c0,.76.53,1.38,1.34,1.38.56,0,1-.29,1.24-.75l.2.1c-.2.4-.67.88-1.44.88-.94,0-1.57-.72-1.57-1.62ZM63.08,327.54c-.14-.77-.67-1.09-1.23-1.09-.68,0-1.16.48-1.27,1.09h2.5Z" style="fill: #231f20;"/>
      <path d="M64.86,326.26h.31v.22h-.29c-.45,0-.64.16-.64.66v2.27h-.23v-2.29c0-.59.25-.87.85-.87Z" style="fill: #231f20;"/>
    </g>
    <g>
      <path d="M21.35,77.4h.21v.69c.21-.44.71-.75,1.29-.75.87,0,1.56.68,1.56,1.64s-.69,1.63-1.56,1.63c-.59,0-1.09-.3-1.29-.75,0,.23.01.46.01.69v1.17h-.23v-4.32ZM22.84,80.38c.78,0,1.35-.6,1.35-1.41s-.57-1.41-1.35-1.41c-.69,0-1.29.48-1.29,1.41s.6,1.41,1.29,1.41Z" style="fill: #231f20;"/>
      <path d="M25.13,75.95h.23v.81h-.23v-.81ZM25.13,77.4h.23v3.15h-.23v-3.15Z" style="fill: #231f20;"/>
      <path d="M26.39,77.62h-.39v-.22h.39v-.92l.23-.12v1.04h.42v.22h-.42v2.93h-.23v-2.93Z" style="fill: #231f20;"/>
      <path d="M27.4,78.98c0-.94.66-1.61,1.58-1.61.15,0,.33.02.51.05v.22c-.21-.04-.38-.05-.5-.05-.8,0-1.36.57-1.36,1.38s.56,1.38,1.36,1.38c.11,0,.28-.01.5-.05v.22c-.19.04-.37.05-.51.05-.92,0-1.58-.67-1.58-1.61Z" style="fill: #231f20;"/>
      <path d="M30.16,75.95h.23v1.48c0,.16,0,.3,0,.44.17-.33.49-.53.93-.53.7,0,1.12.47,1.12,1.29v1.92h-.23v-1.91c0-.69-.32-1.08-.91-1.08s-.91.38-.91,1.08v1.91h-.23v-4.6Z" style="fill: #231f20;"/>
    </g>
    <g>
      <path d="M48.84,252.91h-.39v-.22h.39v-.92l.23-.12v1.04h.42v.22h-.42v2.93h-.23v-2.93Z" style="fill: #231f20;"/>
      <path d="M49.84,254.27c0-.94.67-1.64,1.57-1.64s1.57.7,1.57,1.64-.67,1.63-1.57,1.63-1.57-.7-1.57-1.63ZM51.41,255.67c.77,0,1.33-.6,1.33-1.41s-.57-1.41-1.33-1.41-1.34.6-1.34,1.41.57,1.41,1.34,1.41Z" style="fill: #231f20;"/>
      <path d="M54.52,252.69h.31v.22h-.29c-.45,0-.64.16-.64.66v2.27h-.23v-2.29c0-.59.25-.87.85-.87Z" style="fill: #231f20;"/>
      <path d="M57.8,257.01v-1.17c0-.23,0-.46.01-.69-.2.44-.71.75-1.29.75-.87,0-1.56-.68-1.56-1.63s.69-1.64,1.56-1.64c.58,0,1.08.3,1.29.75v-.69h.21v4.32h-.23ZM56.53,255.67c.69,0,1.29-.48,1.29-1.41s-.6-1.41-1.29-1.41c-.78,0-1.35.6-1.35,1.41s.57,1.41,1.35,1.41Z" style="fill: #231f20;"/>
      <path d="M60.05,255.9c-.72,0-1.14-.47-1.14-1.29v-1.92h.23v1.91c0,.7.32,1.08.91,1.08s.91-.38.91-1.08v-1.91h.23v1.92c0,.82-.41,1.29-1.14,1.29Z" style="fill: #231f20;"/>
      <path d="M61.87,254.27c0-.89.64-1.63,1.54-1.63.75,0,1.41.51,1.48,1.54h-2.79v.1c0,.76.53,1.38,1.34,1.38.56,0,1-.29,1.24-.75l.2.1c-.2.4-.67.88-1.44.88-.94,0-1.57-.72-1.57-1.62ZM64.63,253.97c-.14-.77-.67-1.09-1.23-1.09-.68,0-1.16.48-1.27,1.09h2.5Z" style="fill: #231f20;"/>
    </g>
    <g>
      <path d="M11.65,259.94c0-.94.66-1.61,1.58-1.61.15,0,.33.02.51.05v.22c-.21-.04-.38-.05-.5-.05-.8,0-1.36.57-1.36,1.38s.56,1.38,1.36,1.38c.11,0,.28-.01.5-.05v.22c-.19.04-.37.05-.51.05-.92,0-1.58-.67-1.58-1.61Z" style="fill: #231f20;"/>
      <path d="M14.08,259.94c0-.96.69-1.64,1.56-1.64.58,0,1.08.3,1.29.75v-.69h.21v3.15h-.21v-.69c-.21.44-.71.75-1.29.75-.87,0-1.56-.68-1.56-1.63ZM15.65,261.34c.7,0,1.3-.48,1.3-1.41s-.6-1.41-1.3-1.41c-.77,0-1.34.6-1.34,1.41s.57,1.41,1.34,1.41Z" style="fill: #231f20;"/>
      <path d="M17.86,259.94c0-.96.69-1.64,1.56-1.64.59,0,1.09.3,1.29.75,0-.23-.01-.46-.01-.69v-1.45h.23v4.6h-.21v-.69c-.21.44-.71.75-1.29.75-.87,0-1.56-.68-1.56-1.63ZM19.44,261.34c.7,0,1.3-.48,1.3-1.41s-.6-1.41-1.3-1.41c-.77,0-1.34.6-1.34,1.41s.57,1.41,1.34,1.41Z" style="fill: #231f20;"/>
      <path d="M21.65,259.94c0-.89.64-1.63,1.54-1.63.75,0,1.41.51,1.48,1.54h-2.79v.1c0,.76.53,1.38,1.34,1.38.56,0,1-.29,1.24-.75l.2.1c-.2.4-.67.88-1.44.88-.94,0-1.57-.72-1.57-1.62ZM24.41,259.64c-.14-.77-.67-1.09-1.23-1.09-.68,0-1.16.48-1.27,1.09h2.5Z" style="fill: #231f20;"/>
      <path d="M26.46,258.3c.72,0,1.14.47,1.14,1.29v1.92h-.23v-1.91c0-.7-.32-1.08-.91-1.08s-.91.38-.91,1.08v1.91h-.23v-1.92c0-.82.41-1.29,1.14-1.29Z" style="fill: #231f20;"/>
      <path d="M28.28,259.94c0-.94.66-1.61,1.58-1.61.15,0,.33.02.51.05v.22c-.21-.04-.38-.05-.5-.05-.8,0-1.36.57-1.36,1.38s.56,1.38,1.36,1.38c.11,0,.28-.01.5-.05v.22c-.19.04-.37.05-.51.05-.92,0-1.58-.67-1.58-1.61Z" style="fill: #231f20;"/>
      <path d="M30.71,259.94c0-.89.64-1.63,1.54-1.63.75,0,1.41.51,1.48,1.54h-2.79v.1c0,.76.53,1.38,1.34,1.38.56,0,1-.29,1.24-.75l.2.1c-.2.4-.67.88-1.44.88-.94,0-1.57-.72-1.57-1.62ZM33.47,259.64c-.14-.77-.67-1.09-1.23-1.09-.68,0-1.16.48-1.27,1.09h2.5Z" style="fill: #231f20;"/>
    </g>
    <g>
      <path d="M46.16,288.09h.23v4.61h-.23v-4.61Z" style="fill: #231f20;"/>
      <path d="M47.32,288.09h.23v.82h-.23v-.82ZM47.32,289.54h.23v3.16h-.23v-3.16Z" style="fill: #231f20;"/>
      <path d="M49.59,289.48c.72,0,1.14.47,1.14,1.3v1.92h-.23v-1.92c0-.7-.32-1.08-.91-1.08s-.91.38-.91,1.08v1.92h-.23v-1.92c0-.82.41-1.3,1.14-1.3Z" style="fill: #231f20;"/>
      <path d="M51.41,291.13c0-.89.64-1.63,1.55-1.63.76,0,1.41.51,1.48,1.55h-2.79v.1c0,.76.53,1.38,1.34,1.38.56,0,1.01-.29,1.24-.76l.2.1c-.2.4-.67.88-1.44.88-.94,0-1.58-.72-1.58-1.62ZM54.18,290.82c-.14-.77-.67-1.1-1.23-1.1-.68,0-1.16.48-1.28,1.1h2.51Z" style="fill: #231f20;"/>
      <path d="M54.93,291.12c0-.96.69-1.64,1.57-1.64.58,0,1.08.31,1.29.75v-.69h.22v3.16h-.22v-.69c-.21.44-.71.75-1.29.75-.88,0-1.57-.68-1.57-1.64ZM56.5,292.53c.7,0,1.3-.49,1.3-1.41s-.6-1.42-1.3-1.42c-.77,0-1.34.6-1.34,1.42s.57,1.41,1.34,1.41Z" style="fill: #231f20;"/>
      <path d="M59.77,289.54h.31v.22h-.29c-.46,0-.64.16-.64.66v2.28h-.23v-2.29c0-.59.25-.87.85-.87Z" style="fill: #231f20;"/>
      <path d="M62.9,288.09h.05v.22h-.04c-.38,0-.56.15-.56.54v.69h.43v.22h-.43v2.94h-.23v-2.94h-.39v-.22h.39v-.7c0-.48.25-.75.78-.75Z" style="fill: #231f20;"/>
      <path d="M64.38,289.48c.53,0,.86.29,1,.7.13-.41.47-.7,1.01-.7.67,0,1.05.49,1.05,1.25v1.97h-.23v-1.94c0-.65-.26-1.06-.82-1.06s-.89.43-.89,1.15v1.85h-.23v-1.85c0-.72-.31-1.15-.88-1.15s-.83.41-.83,1.06v1.94h-.23v-1.97c0-.76.38-1.25,1.06-1.25Z" style="fill: #231f20;"/>
    </g>
    <g>
      <path d="M16.42,295.21h.26l1.1,2.81,1.1-2.81h.25l-1.25,3.16h-.19l-1.26-3.16Z" style="fill: #231f20;"/>
      <path d="M21.17,293.76h.23l-1.98,5.52h-.23l1.98-5.52Z" style="fill: #231f20;"/>
      <path d="M21.67,296.79c0-.94.67-1.64,1.58-1.64s1.57.7,1.57,1.64-.67,1.64-1.57,1.64-1.58-.7-1.58-1.64ZM23.24,298.2c.77,0,1.34-.6,1.34-1.41s-.57-1.42-1.34-1.42-1.34.6-1.34,1.42.57,1.41,1.34,1.41Z" style="fill: #231f20;"/>
      <path d="M25.32,296.79c0-.94.67-1.61,1.58-1.61.15,0,.33.02.52.05v.22c-.22-.04-.38-.05-.5-.05-.8,0-1.37.57-1.37,1.38s.56,1.39,1.37,1.39c.11,0,.28-.01.5-.05v.22c-.19.04-.37.05-.52.05-.92,0-1.58-.67-1.58-1.61Z" style="fill: #231f20;"/>
      <path d="M28.19,295.43h-.4v-.22h.4v-.92l.23-.12v1.04h.42v.22h-.42v2.94h-.23v-2.94Z" style="fill: #231f20;"/>
    </g>
    <g>
      <path d="M82.82,250.17v-.22c.23.02.46.03.59.03.54,0,.81-.19.81-.58,0-.28-.15-.46-.52-.68l-.23-.14c-.45-.28-.66-.53-.66-.87,0-.44.36-.72.93-.72.12,0,.3.01.47.03v.21c-.18-.02-.32-.02-.42-.02-.49,0-.75.19-.75.51,0,.25.17.44.54.67l.25.15c.43.26.62.51.62.86,0,.5-.38.81-1.03.81-.13,0-.36-.01-.59-.03Z" style="fill: #231f20;"/>
      <path d="M85.09,245.57h.23v1.48c0,.16,0,.3,0,.44.17-.33.49-.53.93-.53.7,0,1.12.47,1.12,1.29v1.92h-.23v-1.91c0-.69-.32-1.08-.91-1.08s-.91.38-.91,1.08v1.91h-.23v-4.6Z" style="fill: #231f20;"/>
      <path d="M88.05,248.6c0-.96.69-1.64,1.56-1.64.58,0,1.08.3,1.29.75v-.69h.21v3.15h-.21v-.69c-.21.44-.71.75-1.29.75-.87,0-1.56-.68-1.56-1.63ZM89.62,250c.7,0,1.3-.48,1.3-1.41s-.6-1.41-1.3-1.41c-.77,0-1.34.6-1.34,1.41s.57,1.41,1.34,1.41Z" style="fill: #231f20;"/>
      <path d="M92.04,247.02h.21v.69c.21-.44.71-.75,1.29-.75.87,0,1.56.68,1.56,1.64s-.69,1.63-1.56,1.63c-.59,0-1.09-.3-1.29-.75,0,.23.01.46.01.69v1.17h-.23v-4.32ZM93.53,250c.78,0,1.35-.6,1.35-1.41s-.57-1.41-1.35-1.41c-.69,0-1.29.48-1.29,1.41s.6,1.41,1.29,1.41Z" style="fill: #231f20;"/>
      <path d="M95.61,248.6c0-.89.64-1.63,1.54-1.63.75,0,1.41.51,1.48,1.54h-2.79v.1c0,.76.53,1.38,1.34,1.38.56,0,1-.29,1.24-.75l.2.1c-.2.4-.67.88-1.44.88-.94,0-1.57-.72-1.57-1.62ZM98.37,248.3c-.14-.77-.67-1.09-1.23-1.09-.68,0-1.16.48-1.27,1.09h2.5Z" style="fill: #231f20;"/>
    </g>
    <g>
      <path d="M85.25,353.4l-.16.77-.08.03c-.38-.29-.8-.44-1.26-.44-.5,0-.88.17-1.14.51-.26.34-.4.84-.4,1.51s.13,1.21.4,1.56c.27.36.65.54,1.14.54.24,0,.47-.04.71-.12s.45-.2.65-.34l.08.05-.07.8c-.49.24-.97.36-1.44.36-.77,0-1.35-.24-1.77-.71-.41-.48-.62-1.15-.62-2.03s.22-1.61.65-2.1,1.05-.74,1.84-.74c.56,0,1.05.12,1.47.37Z" style="fill: #231f20;"/>
      <path d="M89.52,357.93l-.08.48c-.19.11-.37.17-.55.19-.17-.03-.3-.09-.4-.18-.1-.09-.17-.23-.23-.42h-.06c-.33.3-.67.5-1.02.59-.43,0-.75-.1-.98-.3-.23-.2-.34-.48-.33-.85l.02-1.06-.03-1.7.86-.08-.04,2.6c0,.21.04.37.14.49.1.12.25.18.45.18.3,0,.61-.14.93-.42v-2.77l.82-.08-.06,3.03c0,.1.02.17.05.22.03.04.09.06.18.06.07,0,.16-.01.26-.03l.08.06Z" style="fill: #231f20;"/>
      <path d="M92.26,357.73l.08.06-.08.54c-.31.15-.6.23-.87.25-.35-.06-.61-.17-.76-.35-.16-.18-.24-.44-.24-.78l.03-.61v-1.66h-.54l-.03-.05.04-.5h.52v-.62l.76-.29.08.07-.02.84h1.09l.03.06-.04.49h-1.1l-.04,2.13c0,.21.03.36.11.44.08.08.21.12.39.12s.38-.05.59-.15Z" style="fill: #231f20;"/>
      <path d="M95.86,356.62h-2.39c0,.44.11.77.31.99.2.22.49.33.87.33s.77-.12,1.15-.35l.08.05-.13.7c-.41.18-.82.27-1.21.27-.58,0-1.04-.18-1.37-.54-.33-.36-.5-.85-.5-1.47s.16-1.13.49-1.5c.33-.37.77-.55,1.33-.55.48,0,.84.13,1.1.39.26.26.39.63.39,1.1,0,.13-.01.29-.04.47l-.09.1ZM95.21,355.95c0-.27-.06-.47-.18-.6-.12-.14-.3-.2-.53-.2-.26,0-.48.08-.65.25s-.28.4-.34.71l1.68-.03.02-.12Z" style="fill: #231f20;"/>
      <path d="M99.66,357.88l-.07.65h-2.81l.06-1.64-.06-3.82h.9l-.05,3.74.02.99h1.95l.06.08Z" style="fill: #231f20;"/>
      <path d="M102.62,354.82c.23.19.34.45.34.78,0,.1-.02.44-.05,1.02-.03.57-.05.9-.05,1,0,.11.02.18.06.22.04.04.1.06.19.06.06,0,.14-.01.25-.03l.08.06-.08.48c-.16.1-.34.16-.54.19-.18-.02-.32-.08-.42-.19-.11-.11-.17-.26-.2-.44h-.06c-.29.31-.58.52-.88.64-.39,0-.7-.11-.92-.31s-.34-.47-.34-.81c0-.5.27-.82.82-.94l1.34-.3v-.46c0-.21-.04-.37-.15-.48-.1-.11-.26-.16-.45-.16s-.39.04-.58.13c-.19.09-.41.23-.64.41l-.07-.04-.11-.6c.5-.34,1.01-.51,1.53-.51.39,0,.7.09.93.28ZM101.05,357.02c-.1.02-.18.06-.22.11-.05.05-.07.14-.07.25,0,.17.05.3.14.4.09.1.22.14.38.14.27,0,.55-.17.85-.52l.03-.65-1.11.26Z" style="fill: #231f20;"/>
      <path d="M107.36,355.07c.26.33.39.79.39,1.38,0,.69-.17,1.22-.5,1.6-.33.37-.8.56-1.39.56-.29,0-.58-.07-.87-.2l-.54.22-.13-.08.06-1.65-.05-4.27.87-.07-.03,2.59h.05c.18-.15.34-.27.49-.36.15-.09.33-.16.53-.22.49,0,.87.16,1.13.49ZM106.66,357.67c.19-.24.28-.59.28-1.07,0-.42-.07-.75-.22-.98s-.36-.34-.64-.34c-.3,0-.61.17-.94.51l-.02,1.02.03.99c.25.15.5.23.73.23.33,0,.59-.12.77-.35Z" style="fill: #231f20;"/>
    </g>
    <g>
      <path d="M82.7,321.96c0-.94.67-1.64,1.57-1.64s1.57.7,1.57,1.64-.67,1.63-1.57,1.63-1.57-.7-1.57-1.63ZM84.27,323.37c.77,0,1.33-.6,1.33-1.41s-.57-1.41-1.33-1.41-1.34.6-1.34,1.41.57,1.41,1.34,1.41Z" style="fill: #231f20;"/>
      <path d="M87.65,323.59c-.72,0-1.14-.47-1.14-1.29v-1.92h.23v1.91c0,.7.32,1.08.91,1.08s.91-.38.91-1.08v-1.91h.23v1.92c0,.82-.41,1.29-1.14,1.29Z" style="fill: #231f20;"/>
      <path d="M89.78,320.6h-.39v-.22h.39v-.92l.23-.12v1.04h.42v.22h-.42v2.93h-.23v-2.93Z" style="fill: #231f20;"/>
      <path d="M91.06,320.38h.21v.69c.21-.44.71-.75,1.29-.75.87,0,1.56.68,1.56,1.64s-.69,1.63-1.56,1.63c-.59,0-1.09-.3-1.29-.75,0,.23.01.46.01.69v1.17h-.23v-4.32ZM92.55,323.37c.78,0,1.35-.6,1.35-1.41s-.57-1.41-1.35-1.41c-.69,0-1.29.48-1.29,1.41s.6,1.41,1.29,1.41Z" style="fill: #231f20;"/>
      <path d="M95.95,323.59c-.72,0-1.14-.47-1.14-1.29v-1.92h.23v1.91c0,.7.32,1.08.91,1.08s.91-.38.91-1.08v-1.91h.23v1.92c0,.82-.41,1.29-1.14,1.29Z" style="fill: #231f20;"/>
      <path d="M98.08,320.6h-.39v-.22h.39v-.92l.23-.12v1.04h.42v.22h-.42v2.93h-.23v-2.93Z" style="fill: #231f20;"/>
    </g>
    <g>
      <path d="M31.42,11.07h-.72l.11-1.75.07-2.66h-.06l-1.72,3.77h-.65l-.78-3.77h-.07l-.52,2.59-.34,1.83h-.67l1.17-5.78h.92l.14.87.61,3.11h.07l1.38-3.15.33-.84h.91l-.19,5.78Z" style="fill: #231f20;"/>
      <path d="M34.19,6.85c.31.07.55.21.71.44s.24.55.24.97c0,.85-.17,1.53-.5,2.04-.33.52-.79.8-1.38.85h-.08c-.32-.08-.56-.23-.72-.47-.16-.23-.24-.57-.24-1.01,0-.54.08-1.02.23-1.44s.37-.75.66-.99c.28-.24.62-.38,1.01-.4h.08ZM33.19,8.1c-.17.38-.25.9-.25,1.58,0,.29.03.5.1.62.07.13.18.19.35.19.34,0,.59-.19.76-.57.17-.38.25-.91.25-1.59,0-.29-.03-.49-.1-.61s-.18-.18-.34-.18c-.34,0-.6.19-.77.56Z" style="fill: #231f20;"/>
      <path d="M40.78,7.16c.13.14.2.32.19.53v.12s-.34,2.28-.34,2.28l-.04.96-.79.06.42-2.97v-.1c0-.16-.04-.23-.13-.23-.16,0-.37.2-.63.61-.26.41-.56.99-.89,1.76l-.04.87-.8.06.43-2.97v-.1c0-.16-.04-.23-.14-.23-.15,0-.36.2-.62.59s-.55.97-.88,1.71l-.03.94-.79.06.43-3.25.03-.91.77-.06-.24,1.85h.08c.25-.46.47-.83.68-1.12.2-.29.42-.54.64-.74h.09c.22.05.39.14.53.28.13.14.2.32.19.53v.12s-.14.94-.14.94h.08c.25-.46.47-.83.67-1.12.2-.29.42-.54.64-.74h.09c.22.05.39.14.53.28Z" style="fill: #231f20;"/>
      <path d="M44.26,9.16l-.07.84c-.05.47-.21.85-.46,1.15s-.66.58-1.22.85l-.23-.49v-.1c.4-.22.67-.43.85-.63s.28-.47.32-.79l.09-.75.33-3.26-.92.02-.07-.07.11-.64h1.77l-.49,3.87Z" style="fill: #231f20;"/>
      <path d="M47.45,9.75l.25.35c-.35.56-.79.91-1.32,1.04h-.11c-.38-.05-.66-.19-.84-.44-.18-.24-.27-.6-.27-1.08,0-.53.08-1,.24-1.41.16-.41.38-.74.66-.98.28-.24.61-.37.97-.39h.08c.25.05.44.15.58.3.13.15.2.35.2.58,0,.73-.67,1.32-2.01,1.76,0,.34.05.58.14.73.09.15.22.22.39.22.15,0,.29-.05.44-.16s.31-.28.49-.54h.11ZM46.23,7.84c-.17.26-.28.62-.32,1.07.86-.29,1.29-.66,1.29-1.12,0-.23-.11-.34-.33-.34-.25,0-.46.13-.63.4Z" style="fill: #231f20;"/>
      <path d="M51.41,6.9l-.4,3.17-.03.97-.79.06.21-1.64h-.09c-.35.67-.74,1.22-1.15,1.67h-.13c-.47-.25-.71-.73-.71-1.45,0-.41.07-.82.22-1.22.14-.4.36-.75.65-1.04s.65-.48,1.06-.57h.04l.55.22.48-.23.08.05ZM49.58,9.96c.14-.18.3-.45.49-.8.18-.35.37-.78.55-1.27v-.14l-.52-.22c-.33,0-.59.18-.78.54-.19.36-.29.82-.29,1.37,0,.28.02.48.07.6.04.12.09.18.16.18.07,0,.18-.09.32-.27Z" style="fill: #231f20;"/>
      <path d="M55.07,7.16c.14.14.2.32.2.53v.12s-.33,2.28-.33,2.28l-.04.96-.8.06.43-2.97v-.1c0-.16-.04-.23-.14-.23-.15,0-.36.2-.62.59s-.55.97-.88,1.71l-.03.94-.79.06.43-3.25.03-.91.77-.06-.24,1.85h.08c.25-.46.47-.83.68-1.12.2-.29.42-.54.64-.74h.09c.21.05.39.14.52.28Z" style="fill: #231f20;"/>
      <path d="M58.26,7.09l-.21.77-.11.04c-.23-.29-.46-.43-.7-.43-.14,0-.26.05-.36.16-.1.11-.14.23-.14.37,0,.12.04.23.12.31.08.09.2.2.37.32.24.18.42.35.55.52.13.17.19.38.19.64s-.06.49-.19.69c-.13.2-.31.36-.53.48s-.48.18-.77.18c-.32-.05-.61-.15-.88-.3l.2-.79.11-.04c.12.18.25.32.39.41s.29.14.43.14c.16,0,.29-.06.38-.17.1-.11.15-.24.15-.38,0-.13-.04-.25-.13-.35-.08-.1-.22-.21-.4-.35-.23-.19-.41-.36-.54-.51-.12-.16-.18-.36-.18-.61s.07-.49.2-.69c.14-.2.32-.36.55-.48.23-.11.48-.17.75-.17.24.06.49.14.74.23Z" style="fill: #231f20;"/>
    </g>
  </g>
  <g id="components">
    <rect id="density" x="61.65" y="45.6" width="43.94" height="43.94" style="fill: red;"/>
    <rect id="pitch" x="10.87" y="41.3" width="32.31" height="32.31" style="fill: red;"/>
    <rect id="cadence" x="24.01" y="125.16" width="32.31" height="32.31" style="fill: red;"/>
    <rect id="torque" x="67.47" y="111.36" width="32.31" height="32.31" style="fill: red;"/>
    <rect id="shape" x="49.52" y="178.33" width="32.31" height="32.31" style="fill: red;"/>
    <circle id="quantization" cx="22.68" cy="207.64" r="9.55" style="fill: red;"/>
    <circle id="coupling" cx="22.68" cy="177.5" r="9.55" style="fill: red;"/>
    <circle id="pitch_led" cx="48.9" cy="35.73" r="5.18" style="fill: #f0f;"/>
    <circle id="cadence_led" cx="18.45" cy="119.48" r="5.18" style="fill: #f0f;"/>
    <circle id="density-2" data-name="density" cx="50.99" cy="97.64" r="12.69" style="fill: lime;"/>
    <circle id="cadence-2" data-name="cadence" cx="22.68" cy="241.65" r="12.69" style="fill: lime;"/>
    <circle id="torque-2" data-name="torque" cx="56.69" cy="235.98" r="12.69" style="fill: lime;"/>
    <circle id="shape-2" data-name="shape" cx="90.71" cy="230.31" r="12.69" style="fill: lime;"/>
    <circle id="v_oct" cx="22.96" cy="278.5" r="12.69" style="fill: lime;"/>
    <circle id="linear_fm" cx="56.69" cy="272.83" r="12.69" style="fill: lime;"/>
    <circle id="fm_index" cx="90.71" cy="267.16" r="12.69" style="fill: lime;"/>
    <circle id="sync" cx="22.68" cy="315.35" r="12.69" style="fill: lime;"/>
    <circle id="trigger" cx="56.69" cy="309.68" r="12.69" style="fill: blue;"/>
    <circle id="output" cx="90.71" cy="304.02" r="12.69" style="fill: blue;"/>
  </g>
</svg>