<?xml version="1.0" encoding="UTF-8"?>
<svg id="Layer_2" data-name="Layer 2" xmlns="http://www.w3.org/2000/svg" xmlns:xlink="http://www.w3.org/1999/xlink" viewBox="0 0 114.52 364.25">
  <defs>
    <linearGradient id="panel-gradient" x1="0" y1="182.13" x2="114.52" y2="182.13" gradientUnits="userSpaceOnUse">
      <stop offset="0" stop-color="#e2e2e3"/>
      <stop offset=".29" stop-color="#d0d3d6"/>
      <stop offset=".65" stop-color="#d8d7da"/>
      <stop offset=".87" stop-color="#d7d9dc"/>
      <stop offset="1" stop-color="#d6d9dd"/>
      <stop offset="1" stop-color="#a6a8ab"/>
    </linearGradient>
  </defs>
  <g id="Panel_Background" data-name="Panel Background">
    <rect width="114.52" height="364.25" style="fill: url(#panel-gradient);"/>
  </g>
  <g id="Design">
    <g>
      <path d="M16.51,135.28c-1.11.97-3.04,1.64-2.68,3.53.02.11-.2.03-.21-.01-.51-1.44-.68-1.67-2.33-2.22-.32-.11-.49-.17-.49-.21,0-.17,2.05.6,3.71,0,0,0,.96-.43.96-.43l.93-.73s.23-.03.11.08Z"/>
      <path d="M13.69,138.72c.63,2.59,1.83,3.48,3.75,4.78" style="fill: none; stroke: #231f20; stroke-miterlimit: 10; stroke-width: .3px;"/>
    </g>
    <path d="M12.79,126.22c1.3,0,2.6.49,3.61,1.46,2.05,1.99,2.1,5.27.11,7.33-1.02,1.05-2.37,1.57-3.72,1.57s-2.6-.49-3.61-1.46c-2.05-1.99-2.1-5.27-.11-7.33,1.02-1.05,2.37-1.57,3.72-1.57M12.79,125.92c-1.5,0-2.89.59-3.93,1.66-2.11,2.17-2.05,5.65.11,7.75,1.03,1,2.38,1.55,3.82,1.55s2.89-.59,3.93-1.66c1.02-1.05,1.57-2.44,1.55-3.9-.02-1.46-.61-2.83-1.66-3.85-1.03-1-2.38-1.55-3.82-1.55h0Z" style="fill: #181718;"/>
    <g>
      <path d="M51.86,99s-2.28.9-4.3-.47c-.08-.05.02.26.06.29.61.54,2,2.12,2.26,3.85.01.07.05-.35.04-.42-.28-1.32-.6-2.08,2.03-3.06l-.08-.19Z"/>
      <path d="M65.47,90.88c-2.69,3.81-10.02,7.09-14.46,8.51" style="fill: none; stroke: #000; stroke-miterlimit: 10; stroke-width: .3px;"/>
    </g>
    <path d="M46.62,144.13s-2.91,1.05-5.4-.74c-.09-.07.02.33.06.37.75.71,2.45,2.74,2.71,4.93.01.09.08-.44.06-.53-.31-1.67-.68-2.65,2.67-3.79l-.1-.24Z"/>
    <path d="M57.76,139.65s2.59-1.7,2.64-4.77c0-.12.25.21.26.27.12,1.02.73,3.6,2.33,5.12.06.06-.4-.2-.46-.27-1.15-1.25-1.71-2.13-4.63-.13l-.14-.22Z"/>
    <path d="M64.94,91.38s1.97-2.38,1.12-5.33c-.03-.11.3.13.33.18.41.95,1.76,3.23,3.73,4.22.08.04-.44-.08-.52-.12-1.47-.86-2.26-1.53-4.46,1.23l-.19-.17Z"/>
    <g>
      <path d="M30.89,200.63s-2.42-.37-3.48-2.57c-.04-.08-.11.24-.1.28.25.78.66,2.84.01,4.46-.03.06.22-.28.24-.35.42-1.28.53-2.1,3.29-1.63l.03-.2Z"/>
      <path d="M33.86,200.94s2.43.31,3.54,2.48c.04.08.1-.24.09-.28-.27-.77-.73-2.82-.13-4.46.02-.07-.21.29-.23.35-.39,1.29-.48,2.11-3.25,1.71l-.02.2Z"/>
    </g>
    <path d="M54.83,205.83s-1.99-1.43-1.94-3.87c0-.09-.21.16-.21.21-.13.81-.7,2.83-2.01,3.98-.05.05.32-.15.37-.2.96-.95,1.43-1.63,3.67.04l.11-.17Z"/>
    <g>
      <path d="M12.47,192.52s1.86,1.6,4.22.96c.09-.02-.11.24-.15.26-.75.32-2.58,1.35-3.39,2.9-.03.06.07-.35.1-.41.7-1.15,1.24-1.77-.92-3.56l.14-.15Z"/>
      <path d="M17.83,160.25c-3.16-.33-19.72,18.38-5.37,32.39" style="fill: none; stroke: #000; stroke-miterlimit: 10; stroke-width: .3px;"/>
    </g>
    <path d="M28.45,200.43c.6-.11,1.63.23,2.8.31,1.46.1,3.64.13,4.53.21" style="fill: none; stroke: #000; stroke-miterlimit: 10; stroke-width: .3px;"/>
    <path d="M60.34,222.42c.55-3.67-.69-13.88-6.57-17.21" style="fill: none; stroke: #000; stroke-miterlimit: 10; stroke-width: .3px;"/>
    <path d="M95.12,202.57s-1.01-2.24.26-4.32c.05-.08-.26.04-.29.07-.51.64-2.02,2.1-3.74,2.44-.07.01.35.03.42.02,1.3-.35,2.05-.7,3.16,1.88l.18-.09Z"/>
    <path d="M94.55,217.12c1.02-2.11,2.75-6.62,1.36-12.04-.32-1.23-.75-2.33-1.22-3.3" style="fill: none; stroke: #000; stroke-miterlimit: 10; stroke-width: .3px;"/>
    <path d="M45.29,144.74c4.16-1.5,9.16-2.5,13.82-5.81" style="fill: none; stroke: #000; stroke-miterlimit: 10; stroke-width: .3px;"/>
    <path d="M12.78,73.9c1.43,0,2.85.59,3.87,1.74,1.9,2.14,1.71,5.41-.43,7.32-.99.88-2.22,1.31-3.44,1.31-1.43,0-2.85-.59-3.87-1.74-1.9-2.14-1.71-5.41.43-7.32.99-.88,2.22-1.31,3.44-1.31M12.78,73.6c-1.34,0-2.64.49-3.64,1.38-2.26,2.01-2.46,5.48-.45,7.74,1.04,1.17,2.53,1.84,4.1,1.84,1.34,0,2.64-.49,3.64-1.38,1.09-.97,1.74-2.31,1.83-3.78.09-1.46-.4-2.87-1.38-3.96-1.04-1.17-2.53-1.84-4.1-1.84h0Z" style="fill: #181718;"/>
    <g>
      <path d="M16.67,75.37c-1.06-1.02-2.97-1.77-2.52-3.65.03-.11-.2-.04-.21,0-.57,1.41-.75,1.64-2.42,2.12-.33.09-.5.15-.5.19,0,.17,2.08-.51,3.71.16,0,0,.94.47.94.47l.89.77s.23.04.12-.07Z"/>
      <path d="M14.01,71.81c.75-2.56,1.98-3.4,3.95-4.62" style="fill: none; stroke: #231f20; stroke-miterlimit: 10; stroke-width: .3px;"/>
    </g>
    <path d="M91.26,218.77c3.88,0,7.67,1.96,9.85,5.51,3.34,5.43,1.64,12.54-3.8,15.88-1.88,1.16-3.97,1.71-6.03,1.71-3.88,0-7.67-1.96-9.85-5.51-3.34-5.43-1.64-12.54,3.8-15.88,1.88-1.16,3.97-1.71,6.03-1.71M91.27,218.47h0c-2.18,0-4.32.61-6.19,1.75-2.7,1.66-4.59,4.26-5.32,7.34-.74,3.08-.23,6.26,1.43,8.95,2.17,3.54,5.95,5.65,10.1,5.65,2.18,0,4.32-.61,6.19-1.75,2.7-1.66,4.59-4.26,5.32-7.34s.23-6.26-1.43-8.95c-2.17-3.54-5.95-5.65-10.1-5.65h0Z"/>
    <g id="dot_circle_right" data-name="dot circle right">
      <g>
        <circle cx="95.77" cy="242.22" r=".37"/>
        <circle cx="90.86" cy="242.98" r=".37"/>
        <circle cx="86" cy="241.89" r=".37"/>
        <circle cx="81.94" cy="238.95" r=".37"/>
        <circle cx="79.33" cy="234.75" r=".37"/>
        <circle cx="78.5" cy="229.88" r=".37"/>
        <circle cx="99.97" cy="239.63" r=".37"/>
        <circle cx="102.92" cy="235.63" r=".37"/>
        <circle cx="104.05" cy="230.9" r=".37"/>
        <circle cx="103.39" cy="225.92" r=".37"/>
        <circle cx="93.38" cy="242.87" r=".37"/>
        <circle cx="88.37" cy="242.68" r=".37"/>
        <circle cx="83.83" cy="240.62" r=".37"/>
        <circle cx="80.45" cy="236.99" r=".37"/>
        <circle cx="78.66" cy="232.36" r=".37"/>
        <circle cx="98.04" cy="241.04" r=".37"/>
        <circle cx="101.65" cy="237.78" r=".37"/>
        <circle cx="103.76" cy="233.29" r=".37"/>
      </g>
      <g>
        <circle cx="96.59" cy="218.76" r=".37"/>
        <circle cx="91.72" cy="217.65" r=".37"/>
        <circle cx="86.81" cy="218.42" r=".37"/>
        <circle cx="82.57" cy="221" r=".37"/>
        <circle cx="79.66" cy="225" r=".37"/>
        <circle cx="100.63" cy="221.67" r=".37"/>
        <circle cx="94.23" cy="217.95" r=".37"/>
        <circle cx="89.22" cy="217.81" r=".37"/>
        <circle cx="84.58" cy="219.49" r=".37"/>
        <circle cx="80.94" cy="222.85" r=".37"/>
        <circle cx="78.82" cy="227.37" r=".37"/>
        <circle cx="98.79" cy="220.01" r=".37"/>
        <circle cx="102.16" cy="223.63" r=".37"/>
        <circle cx="103.92" cy="228.28" r=".37"/>
      </g>
    </g>
    <g>
      <g>
        <g>
          <circle cx="28.5" cy="98.76" r=".37"/>
          <circle cx="27.11" cy="97.67" r=".29"/>
        </g>
        <g>
          <circle cx="32.24" cy="95.49" r=".37"/>
          <circle cx="31.36" cy="93.97" r=".29"/>
        </g>
        <g>
          <circle cx="36.93" cy="93.82" r=".37"/>
          <circle cx="36.68" cy="92.08" r=".29"/>
        </g>
        <g>
          <circle cx="41.93" cy="94.13" r=".37"/>
          <circle cx="42.39" cy="92.43" r=".29"/>
        </g>
        <g>
          <circle cx="46.39" cy="96.28" r=".37"/>
          <circle cx="47.47" cy="94.89" r=".29"/>
        </g>
        <g>
          <circle cx="26.33" cy="103.19" r=".37"/>
          <circle cx="24.62" cy="102.75" r=".29"/>
        </g>
        <g>
          <circle cx="27.55" cy="112.75" r=".37"/>
          <circle cx="26.03" cy="113.64" r=".29"/>
        </g>
        <g>
          <circle cx="30.81" cy="116.6" r=".37"/>
          <circle cx="29.78" cy="118.03" r=".29"/>
        </g>
        <g>
          <circle cx="30.17" cy="96.94" r=".37"/>
          <circle cx="29" cy="95.62" r=".29"/>
          <circle cx="27.83" cy="94.3" r=".24"/>
          <circle cx="26.66" cy="92.97" r=".17"/>
        </g>
        <g>
          <circle cx="34.5" cy="94.42" r=".37"/>
          <circle cx="33.93" cy="92.75" r=".29"/>
          <circle cx="33.36" cy="91.08" r=".24"/>
          <circle cx="32.79" cy="89.41" r=".17"/>
        </g>
        <g>
          <circle cx="39.44" cy="93.73" r=".37"/>
          <circle cx="39.55" cy="91.97" r=".29"/>
          <circle cx="39.65" cy="90.21" r=".24"/>
          <circle cx="39.76" cy="88.45" r=".17"/>
        </g>
        <g>
          <circle cx="44.24" cy="94.99" r=".37"/>
          <circle cx="45.02" cy="93.4" r=".29"/>
          <circle cx="45.79" cy="91.82" r=".24"/>
          <circle cx="46.57" cy="90.23" r=".17"/>
        </g>
        <g>
          <circle cx="48.22" cy="97.95" r=".37"/>
          <circle cx="49.54" cy="96.78" r=".29"/>
          <circle cx="50.86" cy="95.61" r=".24"/>
          <circle cx="52.19" cy="94.44" r=".17"/>
        </g>
        <g>
          <circle cx="27.21" cy="100.97" r=".37"/>
          <circle cx="25.64" cy="100.17" r=".29"/>
          <circle cx="24.06" cy="99.37" r=".24"/>
          <circle cx="22.48" cy="98.57" r=".17"/>
        </g>
        <g>
          <circle cx="25.9" cy="105.65" r=".37"/>
          <circle cx="24.14" cy="105.54" r=".29"/>
          <circle cx="22.38" cy="105.44" r=".24"/>
          <circle cx="20.61" cy="105.33" r=".17"/>
        </g>
        <g>
          <circle cx="26.52" cy="110.58" r=".37"/>
          <circle cx="24.85" cy="111.15" r=".29"/>
          <circle cx="23.18" cy="111.73" r=".24"/>
          <circle cx="21.5" cy="112.3" r=".17"/>
        </g>
      </g>
      <g>
        <g>
          <circle cx="40.35" cy="119.03" r=".37"/>
          <circle cx="40.61" cy="120.77" r=".29"/>
        </g>
        <g>
          <circle cx="45.05" cy="117.36" r=".37"/>
          <circle cx="45.95" cy="118.88" r=".29"/>
        </g>
        <g>
          <circle cx="48.79" cy="114.09" r=".37"/>
          <circle cx="50.19" cy="115.16" r=".29"/>
        </g>
        <g>
          <circle cx="50.99" cy="109.64" r=".37"/>
          <circle cx="52.7" cy="110.09" r=".29"/>
        </g>
        <g>
          <circle cx="51.31" cy="104.7" r=".37"/>
          <circle cx="53.06" cy="104.45" r=".29"/>
        </g>
        <g>
          <circle cx="35.37" cy="118.73" r=".37"/>
          <circle cx="34.91" cy="120.43" r=".29"/>
        </g>
        <g>
          <circle cx="42.77" cy="118.45" r=".37"/>
          <circle cx="43.34" cy="120.12" r=".29"/>
          <circle cx="43.91" cy="121.79" r=".24"/>
          <circle cx="44.49" cy="123.47" r=".17"/>
        </g>
        <g>
          <circle cx="47.08" cy="115.89" r=".37"/>
          <circle cx="48.25" cy="117.21" r=".29"/>
          <circle cx="49.42" cy="118.53" r=".24"/>
          <circle cx="50.6" cy="119.85" r=".17"/>
        </g>
        <g>
          <circle cx="50.11" cy="111.99" r=".37"/>
          <circle cx="51.69" cy="112.77" r=".29"/>
          <circle cx="53.28" cy="113.54" r=".24"/>
          <circle cx="54.87" cy="114.32" r=".17"/>
        </g>
        <g>
          <circle cx="51.38" cy="107.2" r=".37"/>
          <circle cx="53.14" cy="107.31" r=".29"/>
          <circle cx="54.9" cy="107.42" r=".24"/>
          <circle cx="56.67" cy="107.53" r=".17"/>
        </g>
        <g>
          <circle cx="50.76" cy="102.25" r=".37"/>
          <circle cx="52.43" cy="101.68" r=".29"/>
          <circle cx="54.1" cy="101.11" r=".24"/>
          <circle cx="55.77" cy="100.53" r=".17"/>
        </g>
        <g>
          <circle cx="37.82" cy="119.15" r=".37"/>
          <circle cx="37.73" cy="120.91" r=".29"/>
        </g>
        <g>
          <circle cx="33.04" cy="117.89" r=".37"/>
          <circle cx="32.26" cy="119.47" r=".29"/>
          <circle cx="31.49" cy="121.06" r=".24"/>
          <circle cx="30.71" cy="122.65" r=".17"/>
        </g>
        <g>
          <circle cx="29.06" cy="114.9" r=".37"/>
          <circle cx="27.75" cy="116.08" r=".29"/>
          <circle cx="26.44" cy="117.26" r=".24"/>
          <circle cx="25.13" cy="118.45" r=".17"/>
        </g>
      </g>
    </g>
    <path d="M38.63,94.84c3.96,0,7.81,2.03,9.96,5.69,3.23,5.5,1.4,12.57-4.09,15.81-1.84,1.08-3.86,1.6-5.85,1.6-3.96,0-7.81-2.03-9.96-5.69-3.23-5.5-1.4-12.57,4.09-15.81,1.84-1.08,3.86-1.6,5.85-1.6M38.63,94.54h0c-2.1,0-4.18.57-6,1.64-5.63,3.31-7.51,10.59-4.2,16.22,2.12,3.6,6.04,5.84,10.22,5.84,2.1,0,4.18-.57,6-1.64,5.63-3.31,7.51-10.59,4.2-16.22-2.12-3.6-6.04-5.84-10.22-5.84h0Z"/>
    <path d="M19.8,193.22c4.23,0,7.66,3.43,7.66,7.66s-3.43,7.66-7.66,7.66-7.66-3.43-7.66-7.66,3.43-7.66,7.66-7.66M19.8,192.92c-4.39,0-7.96,3.57-7.96,7.96s3.57,7.96,7.96,7.96,7.96-3.57,7.96-7.96-3.57-7.96-7.96-7.96h0Z" style="fill: #181718;"/>
    <path d="M44.99,193.22c4.23,0,7.66,3.43,7.66,7.66s-3.43,7.66-7.66,7.66-7.66-3.43-7.66-7.66,3.43-7.66,7.66-7.66M44.99,192.92c-4.39,0-7.96,3.57-7.96,7.96s3.57,7.96,7.96,7.96,7.96-3.57,7.96-7.96-3.57-7.96-7.96-7.96h0Z" style="fill: #181718;"/>
    <path d="M57.25,261.29c3.88,0,7.67,1.96,9.85,5.51,3.34,5.43,1.64,12.54-3.8,15.88-1.88,1.16-3.97,1.71-6.03,1.71-3.88,0-7.67-1.96-9.85-5.51-3.34-5.43-1.64-12.54,3.8-15.88,1.88-1.16,3.97-1.71,6.03-1.71M57.25,260.99h0c-2.18,0-4.32.61-6.19,1.75-2.7,1.66-4.59,4.26-5.32,7.34-.74,3.08-.23,6.26,1.43,8.95,2.17,3.54,5.95,5.65,10.1,5.65,2.18,0,4.32-.61,6.19-1.75,2.7-1.66,4.59-4.26,5.32-7.34.74-3.08.23-6.26-1.43-8.95-2.17-3.54-5.95-5.65-10.1-5.65h0Z"/>
    <g id="dot_circle_right-2" data-name="dot circle right">
      <g>
        <circle cx="61.75" cy="284.74" r=".37"/>
        <circle cx="56.84" cy="285.5" r=".37"/>
        <circle cx="51.99" cy="284.41" r=".37"/>
        <circle cx="47.92" cy="281.47" r=".37"/>
        <circle cx="45.31" cy="277.27" r=".37"/>
        <circle cx="44.49" cy="272.39" r=".37"/>
        <circle cx="65.95" cy="282.15" r=".37"/>
        <circle cx="68.9" cy="278.15" r=".37"/>
        <circle cx="70.03" cy="273.42" r=".37"/>
        <circle cx="69.37" cy="268.44" r=".37"/>
        <circle cx="59.36" cy="285.39" r=".37"/>
        <circle cx="54.36" cy="285.2" r=".37"/>
        <circle cx="49.82" cy="283.14" r=".37"/>
        <circle cx="46.43" cy="279.51" r=".37"/>
        <circle cx="44.65" cy="274.88" r=".37"/>
        <circle cx="64.02" cy="283.56" r=".37"/>
        <circle cx="67.63" cy="280.3" r=".37"/>
        <circle cx="69.75" cy="275.81" r=".37"/>
      </g>
      <g>
        <circle cx="62.57" cy="261.28" r=".37"/>
        <circle cx="57.71" cy="260.17" r=".37"/>
        <circle cx="52.8" cy="260.94" r=".37"/>
        <circle cx="48.56" cy="263.52" r=".37"/>
        <circle cx="45.65" cy="267.52" r=".37"/>
        <circle cx="66.62" cy="264.19" r=".37"/>
        <circle cx="60.22" cy="260.47" r=".37"/>
        <circle cx="55.21" cy="260.33" r=".37"/>
        <circle cx="50.56" cy="262.01" r=".37"/>
        <circle cx="46.93" cy="265.37" r=".37"/>
        <circle cx="44.81" cy="269.89" r=".37"/>
        <circle cx="64.77" cy="262.53" r=".37"/>
        <circle cx="68.14" cy="266.15" r=".37"/>
        <circle cx="69.9" cy="270.8" r=".37"/>
      </g>
    </g>
    <path d="M23.23,266.96c3.88,0,7.67,1.96,9.85,5.51,3.34,5.43,1.64,12.54-3.8,15.88-1.88,1.16-3.97,1.71-6.03,1.71-3.88,0-7.67-1.96-9.85-5.51-3.34-5.43-1.64-12.54,3.8-15.88,1.88-1.16,3.97-1.71,6.03-1.71M23.23,266.66h0c-2.18,0-4.32.61-6.19,1.75-5.57,3.42-7.31,10.73-3.9,16.29,2.17,3.54,5.95,5.65,10.1,5.65,2.18,0,4.32-.61,6.19-1.75,2.7-1.66,4.59-4.26,5.32-7.34.74-3.08.23-6.26-1.43-8.95-2.17-3.54-5.95-5.65-10.1-5.65h0Z"/>
    <g id="dot_circle_right-3" data-name="dot circle right">
      <g>
        <circle cx="27.74" cy="290.41" r=".37"/>
        <circle cx="22.82" cy="291.17" r=".37"/>
        <circle cx="17.97" cy="290.08" r=".37"/>
        <circle cx="13.9" cy="287.14" r=".37"/>
        <circle cx="11.29" cy="282.94" r=".37"/>
        <circle cx="10.47" cy="278.06" r=".37"/>
        <circle cx="31.94" cy="287.82" r=".37"/>
        <circle cx="34.89" cy="283.82" r=".37"/>
        <circle cx="36.02" cy="279.09" r=".37"/>
        <circle cx="35.36" cy="274.11" r=".37"/>
        <circle cx="25.35" cy="291.06" r=".37"/>
        <circle cx="20.34" cy="290.87" r=".37"/>
        <circle cx="15.8" cy="288.81" r=".37"/>
        <circle cx="12.41" cy="285.18" r=".37"/>
        <circle cx="10.63" cy="280.55" r=".37"/>
        <circle cx="30" cy="289.23" r=".37"/>
        <circle cx="33.61" cy="285.97" r=".37"/>
        <circle cx="35.73" cy="281.48" r=".37"/>
      </g>
      <g>
        <circle cx="28.56" cy="266.95" r=".37"/>
        <circle cx="23.69" cy="265.84" r=".37"/>
        <circle cx="18.78" cy="266.61" r=".37"/>
        <circle cx="14.54" cy="269.19" r=".37"/>
        <circle cx="11.63" cy="273.19" r=".37"/>
        <circle cx="32.6" cy="269.86" r=".37"/>
        <circle cx="26.2" cy="266.14" r=".37"/>
        <circle cx="21.19" cy="266" r=".37"/>
        <circle cx="16.54" cy="267.68" r=".37"/>
        <circle cx="12.91" cy="271.04" r=".37"/>
        <circle cx="10.79" cy="275.56" r=".37"/>
        <circle cx="30.76" cy="268.2" r=".37"/>
        <circle cx="34.12" cy="271.82" r=".37"/>
        <circle cx="35.89" cy="276.47" r=".37"/>
      </g>
    </g>
    <path d="M23.23,303.81c3.88,0,7.67,1.96,9.85,5.51,3.34,5.43,1.64,12.54-3.8,15.88-1.88,1.16-3.97,1.71-6.03,1.71-3.88,0-7.67-1.96-9.85-5.51-3.34-5.43-1.64-12.54,3.8-15.88,1.88-1.16,3.97-1.71,6.03-1.71M23.23,303.51h0c-2.18,0-4.32.61-6.19,1.75-2.7,1.66-4.59,4.26-5.32,7.34-.74,3.08-.23,6.26,1.43,8.95,2.17,3.54,5.95,5.65,10.1,5.65,2.18,0,4.32-.61,6.19-1.75,5.57-3.42,7.31-10.73,3.9-16.29-2.17-3.54-5.95-5.65-10.1-5.65h0Z"/>
    <g id="dot_circle_right-4" data-name="dot circle right">
      <g>
        <circle cx="27.74" cy="327.26" r=".37"/>
        <circle cx="22.82" cy="328.02" r=".37"/>
        <circle cx="17.97" cy="326.93" r=".37"/>
        <circle cx="13.9" cy="323.99" r=".37"/>
        <circle cx="11.29" cy="319.79" r=".37"/>
        <circle cx="10.47" cy="314.91" r=".37"/>
        <circle cx="31.94" cy="324.67" r=".37"/>
        <circle cx="34.89" cy="320.67" r=".37"/>
        <circle cx="36.02" cy="315.94" r=".37"/>
        <circle cx="35.36" cy="310.96" r=".37"/>
        <circle cx="25.35" cy="327.91" r=".37"/>
        <circle cx="20.34" cy="327.72" r=".37"/>
        <circle cx="15.8" cy="325.66" r=".37"/>
        <circle cx="12.41" cy="322.03" r=".37"/>
        <circle cx="10.63" cy="317.4" r=".37"/>
        <circle cx="30" cy="326.08" r=".37"/>
        <circle cx="33.61" cy="322.82" r=".37"/>
        <circle cx="35.73" cy="318.33" r=".37"/>
      </g>
      <g>
        <circle cx="28.56" cy="303.8" r=".37"/>
        <circle cx="23.69" cy="302.69" r=".37"/>
        <circle cx="18.78" cy="303.46" r=".37"/>
        <circle cx="14.54" cy="306.04" r=".37"/>
        <circle cx="11.63" cy="310.04" r=".37"/>
        <circle cx="32.6" cy="306.71" r=".37"/>
        <circle cx="26.2" cy="302.99" r=".37"/>
        <circle cx="21.19" cy="302.85" r=".37"/>
        <circle cx="16.54" cy="304.53" r=".37"/>
        <circle cx="12.91" cy="307.89" r=".37"/>
        <circle cx="10.79" cy="312.41" r=".37"/>
        <circle cx="30.76" cy="305.05" r=".37"/>
        <circle cx="34.12" cy="308.67" r=".37"/>
        <circle cx="35.89" cy="313.32" r=".37"/>
      </g>
    </g>
    <path d="M91.26,255.62c3.88,0,7.67,1.96,9.85,5.51,3.34,5.43,1.64,12.54-3.8,15.88-1.88,1.16-3.97,1.71-6.03,1.71-3.88,0-7.67-1.96-9.85-5.51-3.34-5.43-1.64-12.54,3.8-15.88,1.88-1.16,3.97-1.71,6.03-1.71M91.26,255.32h0c-2.18,0-4.32.61-6.19,1.75-5.57,3.42-7.31,10.73-3.9,16.29,2.17,3.54,5.95,5.65,10.11,5.65,2.18,0,4.32-.61,6.19-1.75,5.57-3.42,7.31-10.73,3.9-16.29-2.17-3.54-5.95-5.65-10.1-5.65h0Z"/>
    <g id="dot_circle_right-5" data-name="dot circle right">
      <g>
        <circle cx="95.77" cy="279.07" r=".37"/>
        <circle cx="90.86" cy="279.83" r=".37"/>
        <circle cx="86" cy="278.74" r=".37"/>
        <circle cx="81.94" cy="275.8" r=".37"/>
        <circle cx="79.33" cy="271.6" r=".37"/>
        <circle cx="78.5" cy="266.73" r=".37"/>
        <circle cx="99.97" cy="276.48" r=".37"/>
        <circle cx="102.92" cy="272.48" r=".37"/>
        <circle cx="104.05" cy="267.75" r=".37"/>
        <circle cx="103.39" cy="262.77" r=".37"/>
        <circle cx="93.38" cy="279.72" r=".37"/>
        <circle cx="88.37" cy="279.53" r=".37"/>
        <circle cx="83.83" cy="277.47" r=".37"/>
        <circle cx="80.45" cy="273.84" r=".37"/>
        <circle cx="78.66" cy="269.22" r=".37"/>
        <circle cx="98.04" cy="277.89" r=".37"/>
        <circle cx="101.65" cy="274.63" r=".37"/>
        <circle cx="103.76" cy="270.14" r=".37"/>
      </g>
      <g>
        <circle cx="96.59" cy="255.61" r=".37"/>
        <circle cx="91.72" cy="254.5" r=".37"/>
        <circle cx="86.81" cy="255.27" r=".37"/>
        <circle cx="82.57" cy="257.85" r=".37"/>
        <circle cx="79.66" cy="261.85" r=".37"/>
        <circle cx="100.63" cy="258.52" r=".37"/>
        <circle cx="94.23" cy="254.8" r=".37"/>
        <circle cx="89.22" cy="254.66" r=".37"/>
        <circle cx="84.58" cy="256.34" r=".37"/>
        <circle cx="80.94" cy="259.7" r=".37"/>
        <circle cx="78.82" cy="264.22" r=".37"/>
        <circle cx="98.79" cy="256.86" r=".37"/>
        <circle cx="102.16" cy="260.48" r=".37"/>
        <circle cx="103.92" cy="265.13" r=".37"/>
      </g>
    </g>
    <g>
      <path d="M52.79,301.4h-3.21c-2.64,1.46-4.82,3.64-6.28,6.28v3.21c1.45-4.49,5-8.03,9.48-9.48Z" style="fill: none;"/>
      <path d="M43.31,328.22v1.09h1.09c-.38-.35-.74-.71-1.09-1.09Z" style="fill: none;"/>
      <path d="M43.31,325.93v2.08c.41.45.84.89,1.29,1.3h2.07c-1.27-.97-2.4-2.11-3.36-3.38Z" style="fill: none;"/>
      <path d="M71.21,328.06v-2.07c-.95,1.25-2.07,2.36-3.31,3.31h2.07c.43-.4.85-.81,1.24-1.24Z" style="fill: none;"/>
      <path d="M71.21,323.17v-3.15c-1.46,4.37-4.92,7.83-9.29,9.29h3.15c2.57-1.44,4.7-3.57,6.14-6.14Z" style="fill: none;"/>
      <path d="M71.21,319.54v-8.32c-1.42-4.75-5.19-8.47-9.97-9.82h-7.92c-4.84,1.37-8.65,5.18-10.02,10.02v7.92c1.35,4.77,5.07,8.55,9.82,9.97h8.32c4.68-1.4,8.37-5.09,9.77-9.77ZM57.29,328.6c-7.29,0-13.22-5.93-13.22-13.22s5.93-13.22,13.22-13.22,13.22,5.93,13.22,13.22-5.93,13.22-13.22,13.22Z" style="fill: none;"/>
      <path d="M71.21,325.76v-2.31c-1.41,2.43-3.43,4.45-5.86,5.86h2.31c1.35-1.01,2.54-2.2,3.55-3.55Z" style="fill: none;"/>
      <path d="M43.31,323.36v2.33c1.02,1.38,2.23,2.59,3.6,3.62h2.31c-2.46-1.43-4.5-3.48-5.91-5.95Z" style="fill: none;"/>
      <path d="M43.31,319.88v3.21c1.44,2.61,3.59,4.77,6.19,6.22h3.15c-4.42-1.48-7.91-4.99-9.34-9.43Z" style="fill: none;"/>
      <path d="M70.18,329.31h1.03v-1.03c-.33.36-.68.7-1.03,1.03Z" style="fill: none;"/>
      <circle cx="57.29" cy="315.38" r="13.07" transform="translate(-206.23 132.88) rotate(-45)" style="fill: none;"/>
      <path d="M44.45,301.4h-1.14v1.14c.36-.4.75-.78,1.14-1.14Z" style="fill: none;"/>
      <path d="M71.21,304.77v-2.07c-.41-.45-.85-.88-1.3-1.3h-2.08c1.28.96,2.41,2.1,3.38,3.37Z" style="fill: none;"/>
      <path d="M46.74,301.4h-2.08c-.47.43-.92.88-1.35,1.35v2.08c.98-1.3,2.14-2.45,3.43-3.43Z" style="fill: none;"/>
      <path d="M71.21,310.74v-3.15c-1.46-2.6-3.62-4.75-6.23-6.19h-3.21c4.44,1.43,7.96,4.92,9.43,9.34Z" style="fill: none;"/>
      <path d="M49.31,301.4h-2.33c-1.4,1.03-2.64,2.27-3.67,3.67v2.33c1.43-2.49,3.5-4.57,6-6Z" style="fill: none;"/>
      <path d="M71.21,307.32v-2.31c-1.02-1.37-2.24-2.59-3.62-3.6h-2.33c2.47,1.41,4.52,3.46,5.95,5.91Z" style="fill: none;"/>
      <path d="M71.21,302.49v-1.09h-1.09c.38.35.74.71,1.09,1.09Z" style="fill: none;"/>
      <path d="M57.29,302.16c-7.29,0-13.22,5.93-13.22,13.22s5.93,13.22,13.22,13.22,13.22-5.93,13.22-13.22-5.93-13.22-13.22-13.22ZM57.29,328.45c-7.22,0-13.07-5.85-13.07-13.07s5.85-13.07,13.07-13.07,13.07,5.85,13.07,13.07-5.85,13.07-13.07,13.07Z"/>
      <path d="M71.21,311.22v-.48c-1.48-4.42-4.99-7.91-9.43-9.34h-.54c4.78,1.35,8.55,5.07,9.97,9.82Z"/>
      <path d="M43.31,319.34v.54c1.43,4.44,4.92,7.95,9.34,9.43h.48c-4.75-1.42-8.47-5.19-9.82-9.97Z"/>
      <path d="M53.32,301.4h-.54c-4.49,1.45-8.04,4.99-9.48,9.48v.54c1.37-4.84,5.18-8.65,10.02-10.02Z"/>
      <path d="M71.21,320.02v-.48c-1.4,4.68-5.08,8.37-9.77,9.77h.48c4.37-1.46,7.83-4.92,9.29-9.29Z"/>
      <path d="M43.31,323.08v.28c1.41,2.47,3.46,4.52,5.91,5.95h.28c-2.6-1.46-4.75-3.61-6.19-6.22Z"/>
      <path d="M71.21,307.59v-.28c-1.43-2.46-3.48-4.5-5.95-5.91h-.28c2.61,1.44,4.77,3.59,6.23,6.19Z"/>
      <path d="M71.21,323.45v-.28c-1.44,2.57-3.57,4.7-6.14,6.14h.28c2.43-1.41,4.45-3.43,5.86-5.86Z"/>
      <path d="M49.58,301.4h-.28c-2.49,1.43-4.57,3.5-6,6v.28c1.46-2.64,3.64-4.82,6.28-6.28Z"/>
      <path d="M43.31,325.69v.24c.96,1.27,2.09,2.41,3.36,3.38h.24c-1.37-1.02-2.58-2.24-3.6-3.62Z"/>
      <path d="M71.21,305v-.24c-.97-1.27-2.11-2.4-3.38-3.37h-.24c1.38,1.02,2.6,2.23,3.62,3.6Z"/>
      <path d="M71.21,325.99v-.24c-1.01,1.35-2.2,2.54-3.55,3.55h.24c1.25-.95,2.36-2.07,3.31-3.31Z"/>
      <path d="M46.98,301.4h-.24c-1.3.98-2.45,2.14-3.43,3.43v.24c1.03-1.4,2.27-2.64,3.67-3.67Z"/>
      <path d="M71.21,302.7v-.21c-.35-.38-.71-.74-1.09-1.09h-.21c.45.41.89.84,1.3,1.3Z"/>
      <path d="M71.21,328.27v-.21c-.4.43-.81.85-1.24,1.24h.21c.36-.33.7-.68,1.03-1.03Z"/>
      <path d="M43.31,328.01v.21c.35.38.71.74,1.09,1.09h.21c-.45-.41-.88-.85-1.29-1.3Z"/>
      <path d="M44.66,301.4h-.21c-.4.36-.78.75-1.14,1.14v.21c.43-.47.88-.92,1.35-1.35Z"/>
    </g>
    <path d="M57.26,303.81c6.38,0,11.55,5.17,11.55,11.55s-5.17,11.55-11.55,11.55-11.55-5.17-11.55-11.55,5.17-11.55,11.55-11.55M57.26,303.51c-6.53,0-11.85,5.31-11.85,11.85s5.31,11.85,11.85,11.85,11.85-5.31,11.85-11.85-5.31-11.85-11.85-11.85h0Z"/>
    <path d="M71.21,301.4v27.91h-27.91v-27.91h27.91M71.51,301.1h-28.51v28.51h28.51v-28.51h0Z"/>
    <g>
      <path d="M86.8,301.4h-3.21c-2.64,1.46-4.82,3.64-6.28,6.28v3.21c1.45-4.49,5-8.03,9.48-9.48Z" style="fill: none;"/>
      <path d="M77.32,328.22v1.09h1.09c-.38-.35-.74-.71-1.09-1.09Z" style="fill: none;"/>
      <path d="M77.32,325.93v2.08c.41.45.84.89,1.29,1.3h2.07c-1.27-.97-2.4-2.11-3.36-3.38Z" style="fill: none;"/>
      <path d="M105.23,328.06v-2.07c-.95,1.25-2.07,2.36-3.31,3.31h2.07c.43-.4.85-.81,1.24-1.24Z" style="fill: none;"/>
      <path d="M105.23,323.17v-3.15c-1.46,4.37-4.92,7.83-9.29,9.29h3.15c2.57-1.44,4.7-3.57,6.14-6.14Z" style="fill: none;"/>
      <path d="M105.23,319.54v-8.32c-1.42-4.75-5.19-8.47-9.97-9.82h-7.92c-4.84,1.37-8.65,5.18-10.02,10.02v7.92c1.35,4.77,5.07,8.55,9.82,9.97h8.32c4.68-1.4,8.37-5.09,9.77-9.77ZM91.3,328.6c-7.29,0-13.22-5.93-13.22-13.22s5.93-13.22,13.22-13.22,13.22,5.93,13.22,13.22-5.93,13.22-13.22,13.22Z" style="fill: none;"/>
      <path d="M105.23,325.76v-2.31c-1.41,2.43-3.43,4.45-5.86,5.86h2.31c1.35-1.01,2.54-2.2,3.55-3.55Z" style="fill: none;"/>
      <path d="M77.32,323.36v2.33c1.02,1.38,2.23,2.59,3.6,3.62h2.31c-2.46-1.43-4.5-3.48-5.91-5.95Z" style="fill: none;"/>
      <path d="M77.32,319.88v3.21c1.44,2.61,3.59,4.77,6.19,6.22h3.15c-4.42-1.48-7.91-4.99-9.34-9.43Z" style="fill: none;"/>
      <path d="M104.19,329.31h1.03v-1.03c-.33.36-.68.7-1.03,1.03Z" style="fill: none;"/>
      <circle cx="91.3" cy="315.38" r="13.07" transform="translate(-196.27 156.93) rotate(-45)" style="fill: none;"/>
      <path d="M78.46,301.4h-1.14v1.14c.36-.4.75-.78,1.14-1.14Z" style="fill: none;"/>
      <path d="M105.23,304.77v-2.07c-.41-.45-.85-.88-1.3-1.3h-2.08c1.28.96,2.41,2.1,3.38,3.37Z" style="fill: none;"/>
      <path d="M80.76,301.4h-2.08c-.47.43-.92.88-1.35,1.35v2.08c.98-1.3,2.14-2.45,3.43-3.43Z" style="fill: none;"/>
      <path d="M105.23,310.74v-3.15c-1.46-2.6-3.62-4.75-6.23-6.19h-3.21c4.44,1.43,7.96,4.92,9.43,9.34Z" style="fill: none;"/>
      <path d="M83.32,301.4h-2.33c-1.4,1.03-2.64,2.27-3.67,3.67v2.33c1.43-2.49,3.5-4.57,6-6Z" style="fill: none;"/>
      <path d="M105.23,307.32v-2.31c-1.02-1.37-2.24-2.59-3.62-3.6h-2.33c2.47,1.41,4.52,3.46,5.95,5.91Z" style="fill: none;"/>
      <path d="M105.23,302.49v-1.09h-1.09c.38.35.74.71,1.09,1.09Z" style="fill: none;"/>
      <path d="M91.3,302.16c-7.29,0-13.22,5.93-13.22,13.22s5.93,13.22,13.22,13.22,13.22-5.93,13.22-13.22-5.93-13.22-13.22-13.22ZM91.3,328.45c-7.22,0-13.07-5.85-13.07-13.07s5.85-13.07,13.07-13.07,13.07,5.85,13.07,13.07-5.85,13.07-13.07,13.07Z"/>
      <path d="M105.23,311.22v-.48c-1.48-4.42-4.99-7.91-9.43-9.34h-.54c4.78,1.35,8.55,5.07,9.97,9.82Z"/>
      <path d="M77.32,319.34v.54c1.43,4.44,4.92,7.95,9.34,9.43h.48c-4.75-1.42-8.47-5.19-9.82-9.97Z"/>
      <path d="M87.34,301.4h-.54c-4.49,1.45-8.04,4.99-9.48,9.48v.54c1.37-4.84,5.18-8.65,10.02-10.02Z"/>
      <path d="M105.23,320.02v-.48c-1.4,4.68-5.08,8.37-9.77,9.77h.48c4.37-1.46,7.83-4.92,9.29-9.29Z"/>
      <path d="M77.32,323.08v.28c1.41,2.47,3.46,4.52,5.91,5.95h.28c-2.6-1.46-4.75-3.61-6.19-6.22Z"/>
      <path d="M105.23,307.59v-.28c-1.43-2.46-3.48-4.5-5.95-5.91h-.28c2.61,1.44,4.77,3.59,6.23,6.19Z"/>
      <path d="M105.23,323.45v-.28c-1.44,2.57-3.57,4.7-6.14,6.14h.28c2.43-1.41,4.45-3.43,5.86-5.86Z"/>
      <path d="M83.6,301.4h-.28c-2.49,1.43-4.57,3.5-6,6v.28c1.46-2.64,3.64-4.82,6.28-6.28Z"/>
      <path d="M77.32,325.69v.24c.96,1.27,2.09,2.41,3.36,3.38h.24c-1.37-1.02-2.58-2.24-3.6-3.62Z"/>
      <path d="M105.23,305v-.24c-.97-1.27-2.11-2.4-3.38-3.37h-.24c1.38,1.02,2.6,2.23,3.62,3.6Z"/>
      <path d="M105.23,325.99v-.24c-1.01,1.35-2.2,2.54-3.55,3.55h.24c1.25-.95,2.36-2.07,3.31-3.31Z"/>
      <path d="M80.99,301.4h-.24c-1.3.98-2.45,2.14-3.43,3.43v.24c1.03-1.4,2.27-2.64,3.67-3.67Z"/>
      <path d="M105.23,302.7v-.21c-.35-.38-.71-.74-1.09-1.09h-.21c.45.41.89.84,1.3,1.3Z"/>
      <path d="M105.23,328.27v-.21c-.4.43-.81.85-1.24,1.24h.21c.36-.33.7-.68,1.03-1.03Z"/>
      <path d="M77.32,328.01v.21c.35.38.71.74,1.09,1.09h.21c-.45-.41-.88-.85-1.29-1.3Z"/>
      <path d="M78.67,301.4h-.21c-.4.36-.78.75-1.14,1.14v.21c.43-.47.88-.92,1.35-1.35Z"/>
    </g>
    <path d="M91.28,303.81c6.38,0,11.55,5.17,11.55,11.55s-5.17,11.55-11.55,11.55-11.55-5.17-11.55-11.55,5.17-11.55,11.55-11.55M91.28,303.51c-6.53,0-11.85,5.31-11.85,11.85s5.31,11.85,11.85,11.85,11.85-5.31,11.85-11.85-5.31-11.85-11.85-11.85h0Z"/>
    <path d="M105.23,301.4v27.91h-27.91v-27.91h27.91M105.53,301.1h-28.51v28.51h28.51v-28.51h0Z"/>
    <path d="M23.24,303.81c6.38,0,11.55,5.17,11.55,11.55s-5.17,11.55-11.55,11.55-11.55-5.17-11.55-11.55,5.17-11.55,11.55-11.55M23.24,303.51c-6.53,0-11.85,5.31-11.85,11.85s5.31,11.85,11.85,11.85,11.85-5.31,11.85-11.85-5.31-11.85-11.85-11.85h0Z"/>
    <path d="M57.25,224.44c3.88,0,7.67,1.96,9.85,5.51,3.34,5.43,1.64,12.54-3.8,15.88-1.88,1.16-3.97,1.71-6.03,1.71-3.88,0-7.67-1.96-9.85-5.51-3.34-5.43-1.64-12.54,3.8-15.88,1.88-1.16,3.97-1.71,6.03-1.71M57.25,224.14h0c-2.18,0-4.32.61-6.19,1.75-5.57,3.42-7.31,10.73-3.9,16.29,2.17,3.54,5.95,5.65,10.1,5.65,2.18,0,4.32-.61,6.19-1.75,2.7-1.66,4.59-4.26,5.32-7.34.74-3.08.23-6.26-1.43-8.95-2.17-3.54-5.95-5.65-10.1-5.65h0Z"/>
    <g id="dot_circle_right-6" data-name="dot circle right">
      <g>
        <circle cx="61.75" cy="247.89" r=".37"/>
        <circle cx="56.84" cy="248.65" r=".37"/>
        <circle cx="51.99" cy="247.56" r=".37"/>
        <circle cx="47.92" cy="244.62" r=".37"/>
        <circle cx="45.31" cy="240.42" r=".37"/>
        <circle cx="44.49" cy="235.54" r=".37"/>
        <circle cx="65.95" cy="245.3" r=".37"/>
        <circle cx="68.9" cy="241.3" r=".37"/>
        <circle cx="70.03" cy="236.57" r=".37"/>
        <circle cx="69.37" cy="231.59" r=".37"/>
        <circle cx="59.36" cy="248.54" r=".37"/>
        <circle cx="54.36" cy="248.35" r=".37"/>
        <circle cx="49.82" cy="246.29" r=".37"/>
        <circle cx="46.43" cy="242.66" r=".37"/>
        <circle cx="44.65" cy="238.03" r=".37"/>
        <circle cx="64.02" cy="246.71" r=".37"/>
        <circle cx="67.63" cy="243.45" r=".37"/>
        <circle cx="69.75" cy="238.96" r=".37"/>
      </g>
      <g>
        <circle cx="62.57" cy="224.43" r=".37"/>
        <circle cx="57.71" cy="223.32" r=".37"/>
        <circle cx="52.8" cy="224.09" r=".37"/>
        <circle cx="48.56" cy="226.67" r=".37"/>
        <circle cx="45.65" cy="230.67" r=".37"/>
        <circle cx="66.62" cy="227.34" r=".37"/>
        <circle cx="60.22" cy="223.62" r=".37"/>
        <circle cx="55.21" cy="223.48" r=".37"/>
        <circle cx="50.56" cy="225.16" r=".37"/>
        <circle cx="46.93" cy="228.52" r=".37"/>
        <circle cx="44.81" cy="233.04" r=".37"/>
        <circle cx="64.77" cy="225.68" r=".37"/>
        <circle cx="68.14" cy="229.3" r=".37"/>
        <circle cx="69.9" cy="233.95" r=".37"/>
      </g>
    </g>
    <path d="M23.23,230.11c3.88,0,7.67,1.96,9.85,5.51,3.34,5.43,1.64,12.54-3.8,15.88-1.88,1.16-3.97,1.71-6.03,1.71-3.88,0-7.67-1.96-9.85-5.51-3.34-5.43-1.64-12.54,3.8-15.88,1.88-1.16,3.97-1.71,6.03-1.71M23.23,229.81h0c-2.18,0-4.32.61-6.19,1.75-5.57,3.42-7.31,10.73-3.9,16.29,2.17,3.54,5.95,5.65,10.11,5.65,2.18,0,4.32-.61,6.19-1.75,5.57-3.42,7.31-10.73,3.9-16.29-2.17-3.54-5.95-5.65-10.1-5.65h0Z"/>
    <g id="dot_circle_right-7" data-name="dot circle right">
      <g>
        <circle cx="27.74" cy="253.56" r=".37"/>
        <circle cx="22.82" cy="254.32" r=".37"/>
        <circle cx="17.97" cy="253.23" r=".37"/>
        <circle cx="13.9" cy="250.29" r=".37"/>
        <circle cx="11.29" cy="246.09" r=".37"/>
        <circle cx="10.47" cy="241.21" r=".37"/>
        <circle cx="31.94" cy="250.97" r=".37"/>
        <circle cx="34.89" cy="246.97" r=".37"/>
        <circle cx="36.02" cy="242.24" r=".37"/>
        <circle cx="35.36" cy="237.26" r=".37"/>
        <circle cx="25.35" cy="254.21" r=".37"/>
        <circle cx="20.34" cy="254.02" r=".37"/>
        <circle cx="15.8" cy="251.96" r=".37"/>
        <circle cx="12.41" cy="248.33" r=".37"/>
        <circle cx="10.63" cy="243.7" r=".37"/>
        <circle cx="30" cy="252.38" r=".37"/>
        <circle cx="33.61" cy="249.12" r=".37"/>
        <circle cx="35.73" cy="244.63" r=".37"/>
      </g>
      <g>
        <circle cx="28.56" cy="230.1" r=".37"/>
        <circle cx="23.69" cy="228.99" r=".37"/>
        <circle cx="18.78" cy="229.76" r=".37"/>
        <circle cx="14.54" cy="232.34" r=".37"/>
        <circle cx="11.63" cy="236.34" r=".37"/>
        <circle cx="32.6" cy="233.01" r=".37"/>
        <circle cx="26.2" cy="229.29" r=".37"/>
        <circle cx="21.19" cy="229.15" r=".37"/>
        <circle cx="16.54" cy="230.83" r=".37"/>
        <circle cx="12.91" cy="234.19" r=".37"/>
        <circle cx="10.79" cy="238.71" r=".37"/>
        <circle cx="30.76" cy="231.35" r=".37"/>
        <circle cx="34.12" cy="234.97" r=".37"/>
        <circle cx="35.89" cy="239.62" r=".37"/>
      </g>
    </g>
    <path d="M56,201.59c.22.33.51.64.82.61.8-.08.94-2.4,1.58-2.45.66-.04,1.02,2.37,1.6,2.37,1.04,0,1.43-7.79,2.51-7.84,1.09-.05,2.1,7.85,3.37,7.78.76-.04,1.16-2.93,1.78-2.87.58.06.56,2.6,1.39,2.74.32.05.64-.26.91-.61" style="fill: none; stroke: #231f20; stroke-miterlimit: 10; stroke-width: .29px;"/>
    <polyline points="54.75 184.66 57.93 180.43 62.98 187.05 65.99 182.81" style="fill: none; stroke: #231f20; stroke-miterlimit: 10; stroke-width: .29px;"/>
    <polyline points="72.17 172.89 67.68 172.83 67.68 166.55 62.9 166.55 62.87 173.03" style="fill: none; stroke: #231f20; stroke-miterlimit: 10; stroke-width: .29px;"/>
    <polyline points="79.13 165.2 85.01 160.92 85.04 167.41 90.29 163.24" style="fill: none; stroke: #231f20; stroke-miterlimit: 10; stroke-width: .29px;"/>
    <polyline points="103.02 188.29 103.02 181.43 105.57 181.43 105.57 185.22 109.81 185.22 109.81 188.03 112.34 188.03" style="fill: none; stroke: #231f20; stroke-miterlimit: 10; stroke-width: .29px;"/>
    <polyline points="97.12 173.16 97.12 166.81 98.89 169.99 98.84 166.91 100.74 170.35 103.92 170.36 103.92 172.89 106.44 172.89" style="fill: none; stroke: #231f20; stroke-miterlimit: 10; stroke-width: .29px;"/>
    <polyline points="110.44 199.28 110.42 201.46 107.86 196.07 107.97 201.46 105.73 195.88 103.46 201.46 103.53 196.15 101.34 201.42 101.34 199.42" style="fill: none; stroke: #231f20; stroke-miterlimit: 10; stroke-width: .29px;"/>
  </g>
  <g id="Labels_as_shapes" data-name="Labels as shapes">
    <g>
      <path d="M76.79,99.97h.3s.06.02.06.06v4.06s-.02.06-.06.06h-.3s-.06-.02-.06-.06v-.25s0-.01,0-.02c0,0-.01,0-.02,0-.09.12-.2.21-.33.27-.13.06-.27.1-.43.1-.28,0-.51-.07-.7-.21s-.32-.34-.39-.59c-.06-.18-.08-.43-.08-.76s.02-.58.07-.74c.07-.25.2-.46.39-.6s.43-.22.71-.22c.16,0,.3.03.43.09.13.06.24.15.33.27,0,0,.02.01.02,0s0,0,0-.01v-1.4s.02-.06.06-.06ZM76.7,103.09c.02-.11.02-.26.02-.45s0-.34-.02-.45c-.02-.11-.04-.21-.08-.29-.05-.14-.13-.24-.24-.33-.11-.08-.24-.12-.39-.12-.16,0-.3.04-.41.12-.12.08-.2.19-.25.32-.05.09-.08.19-.1.3-.02.11-.03.26-.03.46s0,.33.02.44c.02.11.04.2.08.28.05.14.13.26.25.34.12.08.27.13.43.13s.29-.04.4-.13.19-.2.24-.33c.04-.08.06-.17.08-.28Z" style="fill: #231f20;"/>
      <path d="M80.46,102.55v.19s-.02.06-.06.06h-1.93s-.02,0-.02.02c0,.22.02.36.04.42.04.18.14.32.28.42.14.1.33.16.55.16.17,0,.32-.04.44-.11.13-.08.23-.18.3-.32.02-.04.05-.04.08-.02l.23.14s.04.05.02.08c-.1.19-.25.34-.45.45s-.43.16-.69.16c-.28,0-.52-.07-.71-.2s-.33-.31-.41-.55c-.07-.19-.11-.47-.11-.82,0-.17,0-.3,0-.41,0-.11.02-.2.04-.28.07-.26.2-.47.41-.62s.45-.23.74-.23c.36,0,.64.09.84.27.19.18.32.44.36.78.02.11.02.25.02.42ZM78.74,101.6c-.13.1-.21.24-.25.41-.02.08-.04.22-.05.41,0,.02,0,.02.02.02h1.55s.02,0,.02-.02c0-.18-.02-.31-.04-.38-.04-.18-.13-.32-.27-.43s-.3-.16-.5-.16-.36.05-.49.15Z" style="fill: #231f20;"/>
      <path d="M83.32,101.37c.19.19.28.44.28.75v1.97s-.02.06-.06.06h-.3s-.06-.02-.06-.06v-1.89c0-.22-.07-.4-.2-.54-.13-.14-.31-.21-.52-.21s-.4.07-.53.2c-.14.14-.2.31-.2.53v1.9s-.02.06-.06.06h-.3s-.06-.02-.06-.06v-2.9s.02-.06.06-.06h.3s.06.02.06.06v.26s0,.01,0,.02.01,0,.02,0c.17-.25.44-.37.81-.37.32,0,.57.09.76.28Z" style="fill: #231f20;"/>
      <path d="M84.92,104.08c-.17-.07-.31-.17-.4-.29-.09-.12-.14-.25-.14-.4v-.07s.02-.06.06-.06h.29s.06.02.06.06v.05c0,.13.07.25.21.34s.31.15.52.15.38-.05.5-.14c.13-.09.19-.21.19-.36,0-.1-.03-.18-.1-.25-.07-.06-.14-.11-.23-.15-.09-.04-.23-.08-.42-.14-.22-.06-.41-.13-.55-.19-.14-.06-.26-.15-.36-.27-.1-.11-.15-.26-.15-.43,0-.25.1-.46.3-.61s.46-.23.79-.23c.22,0,.41.04.58.11.17.07.3.17.39.3.09.13.14.27.14.42v.02s-.02.06-.06.06h-.28s-.06-.02-.06-.06v-.02c0-.13-.06-.25-.19-.34s-.3-.14-.52-.14c-.2,0-.37.04-.49.12-.12.08-.19.19-.19.34,0,.14.06.24.18.31.12.07.3.14.56.22.23.07.42.13.56.19.14.06.27.15.37.26.1.11.16.26.16.45,0,.26-.1.47-.3.62-.2.16-.47.23-.81.23-.22,0-.42-.04-.59-.11Z" style="fill: #231f20;"/>
      <path d="M87.44,100.48c-.06-.06-.1-.14-.1-.24s.03-.18.1-.24c.06-.06.14-.09.24-.09s.18.03.24.09.1.14.1.24-.03.17-.1.24c-.06.06-.14.1-.24.1s-.17-.03-.24-.1ZM87.45,104.09v-2.9s.02-.06.06-.06h.3s.06.02.06.06v2.9s-.02.06-.06.06h-.3s-.06-.02-.06-.06Z" style="fill: #231f20;"/>
      <path d="M90.22,101.48h-.67s-.02,0-.02.02v1.76c0,.19.04.33.13.4.09.08.22.12.4.12h.15s.06.02.06.06v.25s-.02.06-.06.06c-.05,0-.12,0-.22,0-.29,0-.5-.05-.65-.16s-.22-.31-.22-.6v-1.89s0-.02-.02-.02h-.37s-.06-.02-.06-.06v-.23s.02-.06.06-.06h.37s.02,0,.02-.02v-.69s.02-.06.06-.06h.29s.06.02.06.06v.69s0,.02.02.02h.67s.06.02.06.06v.23s-.02.06-.06.06Z" style="fill: #231f20;"/>
      <path d="M90.91,105.29v-.24s.02-.06.06-.06h.02c.16,0,.28-.03.36-.07.09-.04.16-.12.22-.23.06-.11.13-.29.2-.52,0-.02,0-.03,0-.04l-1.01-2.94v-.02s.01-.04.05-.04h.32s.06.02.07.05l.78,2.41s0,.01.02.01c0,0,.01,0,.02-.01l.76-2.41s.04-.05.07-.05h.31s.06.02.05.07l-1.11,3.22c-.1.27-.19.46-.27.59-.08.13-.19.22-.31.27-.12.05-.3.08-.53.08h-.04s-.04-.02-.04-.06Z" style="fill: #231f20;"/>
    </g>
    <g>
      <path d="M19.38,177.88c-.21-.15-.35-.35-.42-.61-.05-.17-.08-.42-.08-.74,0-.29.03-.53.08-.73.07-.25.21-.45.42-.59.21-.15.45-.22.74-.22s.54.07.76.22c.21.15.35.33.42.55.02.07.03.13.04.18h0s-.02.06-.05.07l-.3.04h-.01s-.05-.02-.05-.05l-.02-.09c-.04-.15-.12-.28-.26-.39-.14-.11-.31-.16-.51-.16s-.37.05-.5.16c-.13.11-.22.25-.26.42-.04.15-.05.35-.05.6s.02.47.05.61c.04.18.13.32.26.43.13.11.3.16.5.16s.36-.05.5-.15c.14-.1.23-.23.27-.39v-.05s.03-.06.08-.05l.29.05s.06.03.05.07l-.02.12c-.06.23-.2.42-.41.56-.22.14-.47.21-.76.21s-.53-.08-.74-.22Z" style="fill: #231f20;"/>
      <path d="M23.96,175.26c.2.18.29.43.29.73v2.01s-.02.06-.06.06h-.3s-.06-.02-.06-.06v-.25s0-.01,0-.02-.01,0-.02,0c-.1.12-.23.21-.39.27s-.34.09-.53.09c-.28,0-.52-.07-.71-.21s-.29-.36-.29-.66.11-.54.33-.71c.22-.17.52-.26.91-.26h.69s.02,0,.02-.02v-.23c0-.2-.06-.36-.17-.48-.11-.12-.29-.18-.53-.18-.19,0-.35.04-.47.11-.12.07-.19.18-.22.31-.01.04-.04.06-.07.05l-.32-.04s-.06-.02-.05-.05c.03-.22.15-.4.36-.54s.47-.21.78-.21c.36,0,.64.09.83.27ZM23.57,177.57c.17-.12.26-.28.26-.47v-.47s0-.02-.02-.02h-.63c-.26,0-.47.05-.63.16s-.24.26-.24.45c0,.18.06.31.18.4.12.09.28.13.47.13.24,0,.44-.06.61-.18Z" style="fill: #231f20;"/>
      <path d="M27.07,173.88h.3s.06.02.06.06v4.06s-.02.06-.06.06h-.3s-.06-.02-.06-.06v-.25s0-.01,0-.02c0,0-.01,0-.02,0-.09.12-.2.21-.33.27-.13.06-.27.1-.43.1-.28,0-.51-.07-.7-.21s-.32-.34-.39-.59c-.06-.18-.08-.43-.08-.76s.02-.58.07-.74c.07-.25.2-.46.39-.6s.43-.22.71-.22c.16,0,.3.03.43.09.13.06.24.15.33.27,0,0,.02.01.02,0s0,0,0-.01v-1.4s.02-.06.06-.06ZM26.98,177c.02-.11.02-.26.02-.45s0-.34-.02-.45c-.02-.11-.04-.21-.08-.29-.05-.14-.13-.24-.24-.33-.11-.08-.24-.12-.39-.12-.16,0-.3.04-.41.12-.12.08-.2.19-.25.32-.05.09-.08.19-.1.3-.02.11-.03.26-.03.46s0,.33.02.44c.02.11.04.2.08.28.05.14.13.26.25.34.12.08.27.13.43.13s.29-.04.4-.13.19-.2.24-.33c.04-.08.06-.17.08-.28Z" style="fill: #231f20;"/>
      <path d="M30.74,176.46v.19s-.02.06-.06.06h-1.93s-.02,0-.02.02c0,.22.02.36.04.42.04.18.14.32.28.42.14.1.33.16.55.16.17,0,.32-.04.44-.11.13-.08.23-.18.3-.32.02-.04.05-.04.08-.02l.23.14s.04.05.02.08c-.1.19-.25.34-.45.45s-.43.16-.69.16c-.28,0-.52-.07-.71-.2s-.33-.31-.41-.55c-.07-.19-.11-.47-.11-.82,0-.17,0-.3,0-.41,0-.11.02-.2.04-.28.07-.26.2-.47.41-.62s.45-.23.74-.23c.36,0,.64.09.84.27.19.18.32.44.36.78.02.11.02.25.02.42ZM29.03,175.51c-.13.1-.21.24-.25.41-.02.08-.04.22-.05.41,0,.02,0,.02.02.02h1.55s.02,0,.02-.02c0-.18-.02-.31-.04-.38-.04-.18-.13-.32-.27-.43-.13-.11-.3-.16-.5-.16s-.36.05-.49.15Z" style="fill: #231f20;"/>
      <path d="M33.6,175.27c.19.19.28.44.28.75v1.97s-.02.06-.06.06h-.3s-.06-.02-.06-.06v-1.89c0-.22-.07-.4-.2-.54-.13-.14-.31-.21-.52-.21s-.4.07-.53.2c-.14.14-.2.31-.2.53v1.9s-.02.06-.06.06h-.3s-.06-.02-.06-.06v-2.9s.02-.06.06-.06h.3s.06.02.06.06v.26s0,.01,0,.02.01,0,.02,0c.17-.25.44-.37.81-.37.32,0,.57.09.76.28Z" style="fill: #231f20;"/>
      <path d="M35.17,177.88c-.21-.15-.35-.35-.42-.61-.05-.17-.08-.42-.08-.74,0-.29.03-.53.08-.73.07-.25.21-.45.42-.59.21-.15.45-.22.74-.22s.54.07.76.22c.21.15.35.33.42.55.02.07.03.13.04.18h0s-.02.06-.05.07l-.3.04h-.01s-.05-.02-.05-.05l-.02-.09c-.04-.15-.12-.28-.26-.39-.14-.11-.31-.16-.51-.16s-.37.05-.5.16c-.13.11-.22.25-.26.42-.04.15-.05.35-.05.6s.02.47.05.61c.04.18.13.32.26.43.13.11.3.16.5.16s.36-.05.5-.15c.14-.1.23-.23.27-.39v-.05s.03-.06.08-.05l.29.05s.06.03.05.07l-.02.12c-.06.23-.2.42-.41.56-.22.14-.47.21-.76.21s-.53-.08-.74-.22Z" style="fill: #231f20;"/>
      <path d="M40.2,176.46v.19s-.02.06-.06.06h-1.93s-.02,0-.02.02c0,.22.02.36.04.42.04.18.14.32.28.42.14.1.33.16.55.16.17,0,.32-.04.44-.11.13-.08.23-.18.3-.32.02-.04.05-.04.08-.02l.23.14s.04.05.02.08c-.1.19-.25.34-.45.45s-.43.16-.69.16c-.28,0-.52-.07-.71-.2s-.33-.31-.41-.55c-.07-.19-.11-.47-.11-.82,0-.17,0-.3,0-.41,0-.11.02-.2.04-.28.07-.26.2-.47.41-.62s.45-.23.74-.23c.36,0,.64.09.84.27.19.18.32.44.36.78.02.11.02.25.02.42ZM38.48,175.51c-.13.1-.21.24-.25.41-.02.08-.04.22-.05.41,0,.02,0,.02.02.02h1.55s.02,0,.02-.02c0-.18-.02-.31-.04-.38-.04-.18-.13-.32-.27-.43s-.3-.16-.5-.16-.36.05-.49.15Z" style="fill: #231f20;"/>
    </g>
    <g>
      <path d="M39.08,213.85h.3s.06.02.06.06v4.06s-.02.06-.06.06h-.3s-.06-.02-.06-.06v-1.4s0-.01,0-.01-.01,0-.02,0c-.09.12-.2.2-.33.27s-.28.09-.43.09c-.28,0-.52-.07-.71-.22s-.32-.35-.39-.6c-.05-.16-.07-.41-.07-.74s.03-.58.08-.76c.07-.25.2-.44.39-.59s.42-.21.7-.21c.16,0,.3.03.43.1.13.06.24.15.33.27,0,0,.02.01.02,0s0,0,0-.01v-.25s.02-.06.06-.06ZM38.99,215.81c.02-.11.02-.26.02-.45s0-.34-.02-.45c-.02-.11-.04-.2-.08-.28-.05-.14-.13-.25-.24-.33-.11-.08-.24-.13-.4-.13-.17,0-.31.04-.43.13-.12.08-.21.2-.25.34-.04.08-.07.18-.08.28-.02.11-.02.25-.02.44s.01.35.03.46c.02.11.06.21.1.3.05.13.14.24.25.32.12.08.25.12.41.12s.28-.04.39-.12c.11-.08.19-.19.24-.33.04-.08.07-.18.08-.29Z" style="fill: #231f20;"/>
      <path d="M42.33,213.85h.3s.06.02.06.06v2.9s-.02.06-.06.06h-.3s-.06-.02-.06-.06v-.26s0-.01-.01-.02-.01,0-.02,0c-.17.25-.43.37-.79.37-.19,0-.37-.04-.53-.12-.16-.08-.29-.19-.38-.34-.09-.15-.14-.33-.14-.53v-2.02s.02-.06.06-.06h.3s.06.02.06.06v1.89c0,.23.06.41.19.54.13.13.3.2.52.2s.41-.07.54-.2c.13-.13.2-.31.2-.54v-1.89s.02-.06.06-.06Z" style="fill: #231f20;"/>
      <path d="M45.52,214.08c.2.18.29.43.29.73v2.01s-.02.06-.06.06h-.3s-.06-.02-.06-.06v-.25s0-.01,0-.02-.01,0-.02,0c-.1.12-.23.21-.39.27s-.34.09-.53.09c-.28,0-.52-.07-.71-.21s-.29-.36-.29-.66.11-.54.33-.71c.22-.17.52-.26.91-.26h.69s.02,0,.02-.02v-.23c0-.2-.06-.36-.17-.48-.11-.12-.29-.18-.53-.18-.19,0-.35.04-.47.11-.12.07-.19.18-.22.31-.01.04-.04.06-.07.05l-.32-.04s-.06-.02-.05-.05c.03-.22.15-.4.36-.54s.47-.21.78-.21c.36,0,.64.09.83.27ZM45.13,216.38c.17-.12.26-.28.26-.47v-.47s0-.02-.02-.02h-.63c-.26,0-.47.05-.63.16s-.24.26-.24.45c0,.18.06.31.18.4.12.09.28.13.47.13.24,0,.44-.06.61-.18Z" style="fill: #231f20;"/>
      <path d="M48.71,214.09c.19.19.28.44.28.75v1.97s-.02.06-.06.06h-.3s-.06-.02-.06-.06v-1.89c0-.22-.07-.4-.2-.54-.13-.14-.31-.21-.52-.21s-.4.07-.53.2c-.14.14-.2.31-.2.53v1.9s-.02.06-.06.06h-.3s-.06-.02-.06-.06v-2.9s.02-.06.06-.06h.3s.06.02.06.06v.26s0,.01,0,.02.01,0,.02,0c.17-.25.44-.37.81-.37.32,0,.57.09.76.28Z" style="fill: #231f20;"/>
      <path d="M51.21,214.2h-.67s-.02,0-.02.02v1.76c0,.19.04.33.13.4.09.08.22.12.4.12h.15s.06.02.06.06v.25s-.02.06-.06.06c-.05,0-.12,0-.22,0-.29,0-.5-.05-.65-.16s-.22-.31-.22-.6v-1.89s0-.02-.02-.02h-.37s-.06-.02-.06-.06v-.23s.02-.06.06-.06h.37s.02,0,.02-.02v-.69s.02-.06.06-.06h.29s.06.02.06.06v.69s0,.02.02.02h.67s.06.02.06.06v.23s-.02.06-.06.06Z" style="fill: #231f20;"/>
      <path d="M52.2,216.77c-.06-.06-.09-.14-.09-.24s.03-.18.09-.24.14-.09.24-.09.18.03.24.09c.06.06.1.14.1.24s-.03.18-.1.24-.14.1-.24.1-.18-.03-.24-.1Z" style="fill: #231f20;"/>
    </g>
    <g>
      <path d="M18.23,334.28c-.17-.07-.31-.17-.4-.29-.09-.12-.14-.25-.14-.4v-.07s.02-.06.06-.06h.29s.06.02.06.06v.05c0,.13.07.25.21.34s.31.15.52.15.38-.05.5-.14c.13-.09.19-.21.19-.36,0-.1-.03-.18-.1-.25-.07-.06-.14-.11-.23-.15-.09-.04-.23-.08-.42-.14-.22-.06-.41-.13-.55-.19-.14-.06-.26-.15-.36-.27-.1-.11-.15-.26-.15-.43,0-.25.1-.46.3-.61s.46-.23.79-.23c.22,0,.41.04.58.11.17.07.3.17.39.3.09.13.14.27.14.42v.02s-.02.06-.06.06h-.28s-.06-.02-.06-.06v-.02c0-.13-.06-.25-.19-.34s-.3-.14-.52-.14c-.2,0-.37.04-.49.12-.12.08-.19.19-.19.34,0,.14.06.24.18.31.12.07.3.14.56.22.23.07.42.13.56.19.14.06.27.15.37.26.1.11.16.26.16.45,0,.26-.1.47-.3.62-.2.16-.47.23-.81.23-.22,0-.42-.04-.59-.11Z" style="fill: #231f20;"/>
      <path d="M20.35,335.5v-.24s.02-.06.06-.06h.02c.16,0,.28-.03.36-.07.09-.04.16-.12.22-.23.06-.11.13-.29.2-.52,0-.02,0-.03,0-.04l-1.01-2.94v-.02s.01-.04.05-.04h.32s.06.02.07.05l.78,2.41s0,.01.02.01c0,0,.01,0,.02-.01l.76-2.41s.04-.05.07-.05h.31s.06.02.05.07l-1.11,3.22c-.1.27-.19.46-.27.59-.08.13-.19.22-.31.27-.12.05-.3.08-.53.08h-.04s-.04-.02-.04-.06Z" style="fill: #231f20;"/>
      <path d="M25.3,331.58c.19.19.28.44.28.75v1.97s-.02.06-.06.06h-.3s-.06-.02-.06-.06v-1.89c0-.22-.07-.4-.2-.54-.13-.14-.31-.21-.52-.21s-.4.07-.53.2c-.14.14-.2.31-.2.53v1.9s-.02.06-.06.06h-.3s-.06-.02-.06-.06v-2.9s.02-.06.06-.06h.3s.06.02.06.06v.26s0,.01,0,.02.01,0,.02,0c.17-.25.44-.37.81-.37.32,0,.57.09.76.28Z" style="fill: #231f20;"/>
      <path d="M26.86,334.18c-.21-.15-.35-.35-.42-.61-.05-.17-.08-.42-.08-.74,0-.29.03-.53.08-.73.07-.25.21-.45.42-.59.21-.15.45-.22.74-.22s.54.07.76.22c.21.15.35.33.42.55.02.07.03.13.04.18h0s-.02.06-.05.07l-.3.04h-.01s-.05-.02-.05-.05l-.02-.09c-.04-.15-.12-.28-.26-.39-.14-.11-.31-.16-.51-.16s-.37.05-.5.16c-.13.11-.22.25-.26.42-.04.15-.05.35-.05.6s.02.47.05.61c.04.18.13.32.26.43.13.11.3.16.5.16s.36-.05.5-.15c.14-.1.23-.23.27-.39v-.05s.03-.06.08-.05l.29.05s.06.03.05.07l-.02.12c-.06.23-.2.42-.41.56-.22.14-.47.21-.76.21s-.53-.08-.74-.22Z" style="fill: #231f20;"/>
    </g>
    <g>
      <path d="M81.39,282.51c-.08.1-.12.26-.12.5v.12s0,.02.02.02h.67s.06.02.06.06v.27s-.02.06-.06.06h-.67s-.02,0-.02.02v2.55s-.02.06-.06.06h-.3s-.06-.02-.06-.06v-2.55s0-.02-.02-.02h-.4s-.06-.02-.06-.06v-.27s.02-.06.06-.06h.4s.02,0,.02-.02v-.14c0-.25.03-.44.08-.58.06-.14.15-.25.29-.31.14-.07.33-.1.58-.1h.17s.06.02.06.06v.25s-.02.06-.06.06h-.14c-.22,0-.37.05-.45.15Z" style="fill: #231f20;"/>
      <path d="M86.54,283.38c.17.18.26.42.26.74v2s-.02.06-.06.06h-.3s-.06-.02-.06-.06v-1.92c0-.22-.06-.39-.19-.52-.13-.13-.29-.19-.49-.19s-.38.06-.51.19c-.13.13-.19.3-.19.51v1.93s-.02.06-.06.06h-.3s-.06-.02-.06-.06v-1.92c0-.22-.06-.39-.19-.52-.12-.13-.29-.19-.5-.19s-.38.06-.5.19c-.13.13-.19.3-.19.51v1.93s-.02.06-.06.06h-.3s-.06-.02-.06-.06v-2.9s.02-.06.06-.06h.3s.06.02.06.06v.24s0,.01,0,.01.01,0,.02,0c.09-.12.2-.2.34-.26.14-.06.29-.09.46-.09.21,0,.38.04.53.12.15.08.26.21.33.37,0,.02.02.02.03,0,.09-.16.21-.29.37-.37.16-.08.34-.12.54-.12.3,0,.53.09.71.27Z" style="fill: #231f20;"/>
      <path d="M88.95,282.5c-.06-.06-.1-.14-.1-.24s.03-.18.1-.24c.06-.06.14-.09.24-.09s.18.03.24.09.1.14.1.24-.03.17-.1.24c-.06.06-.14.1-.24.1s-.17-.03-.24-.1ZM88.97,286.11v-2.9s.02-.06.06-.06h.3s.06.02.06.06v2.9s-.02.06-.06.06h-.3s-.06-.02-.06-.06Z" style="fill: #231f20;"/>
      <path d="M92.45,283.39c.19.19.28.44.28.75v1.97s-.02.06-.06.06h-.3s-.06-.02-.06-.06v-1.89c0-.22-.07-.4-.2-.54-.13-.14-.31-.21-.52-.21s-.4.07-.53.2c-.14.14-.2.31-.2.53v1.9s-.02.06-.06.06h-.3s-.06-.02-.06-.06v-2.9s.02-.06.06-.06h.3s.06.02.06.06v.26s0,.01,0,.02.01,0,.02,0c.17-.25.44-.37.81-.37.32,0,.57.09.76.28Z" style="fill: #231f20;"/>
      <path d="M95.54,281.99h.3s.06.02.06.06v4.06s-.02.06-.06.06h-.3s-.06-.02-.06-.06v-.25s0-.01,0-.02c0,0-.01,0-.02,0-.09.12-.2.21-.33.27-.13.06-.27.1-.43.1-.28,0-.51-.07-.7-.21s-.32-.34-.39-.59c-.06-.18-.08-.43-.08-.76s.02-.58.07-.74c.07-.25.2-.46.39-.6s.43-.22.71-.22c.16,0,.3.03.43.09.13.06.24.15.33.27,0,0,.02.01.02,0s0,0,0-.01v-1.4s.02-.06.06-.06ZM95.45,285.11c.02-.11.02-.26.02-.45s0-.34-.02-.45c-.02-.11-.04-.21-.08-.29-.05-.14-.13-.24-.24-.33-.11-.08-.24-.12-.39-.12-.16,0-.3.04-.41.12-.12.08-.2.19-.25.32-.05.09-.08.19-.1.3-.02.11-.03.26-.03.46s0,.33.02.44c.02.11.04.2.08.28.05.14.13.26.25.34.12.08.27.13.43.13s.29-.04.4-.13.19-.2.24-.33c.04-.08.06-.17.08-.28Z" style="fill: #231f20;"/>
      <path d="M99.21,284.57v.19s-.02.06-.06.06h-1.93s-.02,0-.02.02c0,.22.02.36.04.42.04.18.14.32.28.42.14.1.33.16.55.16.17,0,.32-.04.44-.11.13-.08.23-.18.3-.32.02-.04.05-.04.08-.02l.23.14s.04.05.02.08c-.1.19-.25.34-.45.45s-.43.16-.69.16c-.28,0-.52-.07-.71-.2s-.33-.31-.41-.55c-.07-.19-.11-.47-.11-.82,0-.17,0-.3,0-.41,0-.11.02-.2.04-.28.07-.26.2-.47.41-.62s.45-.23.74-.23c.36,0,.64.09.84.27.19.18.32.44.36.78.02.11.02.25.02.42ZM97.5,283.62c-.13.1-.21.24-.25.41-.02.08-.04.22-.05.41,0,.02,0,.02.02.02h1.55s.02,0,.02-.02c0-.18-.02-.31-.04-.38-.04-.18-.13-.32-.27-.43s-.3-.16-.5-.16-.36.05-.49.15Z" style="fill: #231f20;"/>
      <path d="M99.66,286.15s0-.03,0-.05l1-1.42s0-.02,0-.04l-1-1.42s-.01-.02-.01-.03c0-.03.02-.04.05-.04h.32s.06.01.07.04l.78,1.13s0,0,.02,0,.01,0,.02,0l.78-1.13s.04-.04.07-.04h.35s.04,0,.05.02c0,.01,0,.03-.01.05l-1,1.42s0,.02,0,.04l1,1.42s.01.02.01.04c0,0,0,.02-.01.02,0,0-.02.01-.04.01h-.33s-.06-.01-.07-.04l-.78-1.13s0-.01-.02-.01-.01,0-.02.01l-.79,1.13s-.04.04-.07.04h-.34s-.04,0-.05-.02Z" style="fill: #231f20;"/>
    </g>
    <g>
      <path d="M9.58,216.7c-.21-.15-.35-.35-.42-.61-.05-.17-.08-.42-.08-.74,0-.29.03-.53.08-.73.07-.25.21-.45.42-.59.21-.15.45-.22.74-.22s.54.07.76.22c.21.15.35.33.42.55.02.07.03.13.04.18h0s-.02.06-.05.07l-.3.04h-.01s-.05-.02-.05-.05l-.02-.09c-.04-.15-.12-.28-.26-.39-.14-.11-.31-.16-.51-.16s-.37.05-.5.16c-.13.11-.22.25-.26.42-.04.15-.05.35-.05.6s.02.47.05.61c.04.18.13.32.26.43.13.11.3.16.5.16s.36-.05.5-.15c.14-.1.23-.23.27-.39v-.05s.03-.06.08-.05l.29.05s.06.03.05.07l-.02.12c-.06.23-.2.42-.41.56-.22.14-.47.21-.76.21s-.53-.08-.74-.22Z" style="fill: #231f20;"/>
      <path d="M12.68,216.7c-.21-.15-.35-.35-.43-.61-.06-.18-.08-.43-.08-.73s.03-.55.08-.73c.08-.25.22-.46.42-.6s.46-.22.75-.22.53.07.73.22.35.35.42.6c.06.17.08.42.08.74s-.03.57-.08.73c-.08.26-.22.46-.42.61s-.45.22-.74.22-.53-.07-.74-.22ZM13.91,216.39c.14-.11.23-.25.28-.43.04-.14.05-.34.05-.6s-.02-.46-.05-.6c-.05-.18-.14-.32-.28-.43-.14-.11-.3-.16-.5-.16s-.36.05-.5.16c-.14.11-.23.25-.28.43-.03.14-.05.34-.05.6s.02.46.05.6c.04.18.13.32.27.43.14.11.31.16.5.16s.35-.05.49-.16Z" style="fill: #231f20;"/>
      <path d="M17.41,213.85h.3s.06.02.06.06v2.9s-.02.06-.06.06h-.3s-.06-.02-.06-.06v-.26s0-.01-.01-.02-.01,0-.02,0c-.17.25-.43.37-.79.37-.19,0-.37-.04-.53-.12-.16-.08-.29-.19-.38-.34-.09-.15-.14-.33-.14-.53v-2.02s.02-.06.06-.06h.3s.06.02.06.06v1.89c0,.23.06.41.19.54.13.13.3.2.52.2s.41-.07.54-.2c.13-.13.2-.31.2-.54v-1.89s.02-.06.06-.06Z" style="fill: #231f20;"/>
      <path d="M21.17,215.36c0,.32-.03.57-.08.74-.07.25-.2.46-.39.6s-.43.22-.71.22c-.16,0-.3-.03-.43-.09s-.24-.15-.33-.27c0,0-.01-.01-.02,0s0,0,0,.01v1.4s-.02.06-.06.06h-.3s-.06-.02-.06-.06v-4.06s.02-.06.06-.06h.3s.06.02.06.06v.25s0,.01,0,.01.01,0,.02,0c.09-.12.2-.21.33-.27.13-.06.27-.1.43-.1.28,0,.51.07.7.21.19.14.32.34.39.59.06.19.09.44.09.76ZM20.7,215.82c.02-.11.03-.26.03-.46s0-.33-.02-.44-.04-.2-.08-.28c-.05-.14-.13-.26-.25-.34-.12-.08-.27-.13-.43-.13s-.29.04-.4.13c-.11.08-.19.19-.24.33-.04.08-.06.17-.08.28-.02.11-.02.26-.02.45s0,.34.02.45c.02.11.04.21.08.29.05.13.13.24.24.33.11.08.24.12.39.12.16,0,.3-.04.42-.12.12-.08.2-.19.25-.32.04-.09.08-.19.1-.3Z" style="fill: #231f20;"/>
      <path d="M22.03,216.82v-4.06s.02-.06.06-.06h.3s.06.02.06.06v4.06s-.02.06-.06.06h-.3s-.06-.02-.06-.06Z" style="fill: #231f20;"/>
      <path d="M23.45,213.21c-.06-.06-.1-.14-.1-.24s.03-.18.1-.24c.06-.06.14-.09.24-.09s.18.03.24.09.1.14.1.24-.03.17-.1.24c-.06.06-.14.1-.24.1s-.17-.03-.24-.1ZM23.46,216.81v-2.9s.02-.06.06-.06h.3s.06.02.06.06v2.9s-.02.06-.06.06h-.3s-.06-.02-.06-.06Z" style="fill: #231f20;"/>
      <path d="M26.94,214.09c.19.19.28.44.28.75v1.97s-.02.06-.06.06h-.3s-.06-.02-.06-.06v-1.89c0-.22-.07-.4-.2-.54-.13-.14-.31-.21-.52-.21s-.4.07-.53.2c-.14.14-.2.31-.2.53v1.9s-.02.06-.06.06h-.3s-.06-.02-.06-.06v-2.9s.02-.06.06-.06h.3s.06.02.06.06v.26s0,.01,0,.02.01,0,.02,0c.17-.25.44-.37.81-.37.32,0,.57.09.76.28Z" style="fill: #231f20;"/>
      <path d="M30.07,213.85h.3s.06.02.06.06v2.86c0,.45-.13.77-.38.98-.26.21-.61.31-1.06.31-.09,0-.16,0-.21,0-.04,0-.06-.03-.06-.07v-.27s.02-.04.03-.04c.01,0,.03-.01.04,0h.16c.37,0,.64-.07.81-.21.17-.15.25-.38.25-.69v-.22s0-.01,0-.01-.01,0-.02,0c-.18.24-.44.36-.78.36-.26,0-.49-.07-.69-.21s-.34-.34-.4-.59c-.05-.16-.07-.41-.07-.73,0-.18,0-.32.02-.44,0-.12.03-.23.06-.32.07-.24.2-.43.39-.58.19-.15.41-.22.67-.22.35,0,.62.12.81.35,0,0,.02,0,.02,0s0,0,0-.02v-.23s.02-.06.06-.06ZM30,215.74c0-.09,0-.21,0-.38,0-.2,0-.34,0-.41,0-.07-.01-.13-.03-.19-.03-.17-.11-.31-.24-.42-.12-.11-.28-.16-.47-.16s-.35.05-.48.16c-.13.11-.22.25-.27.42-.04.13-.06.33-.06.6,0,.29.02.49.06.6.04.17.13.31.26.42s.3.16.49.16.36-.05.48-.16c.13-.11.2-.25.24-.41.01-.06.02-.13.02-.22Z" style="fill: #231f20;"/>
    </g>
    <g>
      <path d="M69.15,152.96h-.67s-.02,0-.02.02v1.76c0,.19.04.33.13.4.09.08.22.12.4.12h.15s.06.02.06.06v.25s-.02.06-.06.06c-.05,0-.12,0-.22,0-.29,0-.5-.05-.65-.16s-.22-.31-.22-.6v-1.89s0-.02-.02-.02h-.37s-.06-.02-.06-.06v-.23s.02-.06.06-.06h.37s.02,0,.02-.02v-.69s.02-.06.06-.06h.29s.06.02.06.06v.69s0,.02.02.02h.67s.06.02.06.06v.23s-.02.06-.06.06Z" style="fill: #231f20;"/>
      <path d="M70.36,155.45c-.21-.15-.35-.35-.43-.61-.06-.18-.08-.43-.08-.73s.03-.55.08-.73c.08-.25.22-.46.42-.6s.46-.22.75-.22.53.07.73.22.35.35.42.6c.06.17.08.42.08.74s-.03.57-.08.73c-.08.26-.22.46-.42.61s-.45.22-.74.22-.53-.07-.74-.22ZM71.59,155.14c.14-.11.23-.25.28-.43.04-.14.05-.34.05-.6s-.02-.46-.05-.6c-.05-.18-.14-.32-.28-.43-.14-.11-.3-.16-.5-.16s-.36.05-.5.16c-.14.11-.23.25-.28.43-.03.14-.05.34-.05.6s.02.46.05.6c.04.18.13.32.27.43.14.11.31.16.5.16s.35-.05.49-.16Z" style="fill: #231f20;"/>
      <path d="M74.76,152.65s.04.04.04.08l-.07.29s-.04.05-.08.04c-.07-.03-.15-.04-.23-.04h-.08c-.21.01-.38.09-.51.24-.14.14-.2.33-.2.55v1.76s-.02.06-.06.06h-.3s-.06-.02-.06-.06v-2.9s.02-.06.06-.06h.3s.06.02.06.06v.36s0,.02,0,.02c0,0,.01,0,.02,0,.08-.15.19-.26.32-.34.13-.08.28-.12.45-.12.13,0,.25.03.34.08Z" style="fill: #231f20;"/>
      <path d="M77.24,152.6h.3s.06.02.06.06v4.06s-.02.06-.06.06h-.3s-.06-.02-.06-.06v-1.4s0-.01,0-.01-.01,0-.02,0c-.09.12-.2.2-.33.27s-.28.09-.43.09c-.28,0-.52-.07-.71-.22s-.32-.35-.39-.6c-.05-.16-.07-.41-.07-.74s.03-.58.08-.76c.07-.25.2-.44.39-.59s.42-.21.7-.21c.16,0,.3.03.43.1.13.06.24.15.33.27,0,0,.02.01.02,0s0,0,0-.01v-.25s.02-.06.06-.06ZM77.15,154.57c.02-.11.02-.26.02-.45s0-.34-.02-.45c-.02-.11-.04-.2-.08-.28-.05-.14-.13-.25-.24-.33-.11-.08-.24-.13-.4-.13-.17,0-.31.04-.43.13-.12.08-.21.2-.25.34-.04.08-.07.18-.08.28-.02.11-.02.25-.02.44s.01.35.03.46c.02.11.06.21.1.3.05.13.14.24.25.32.12.08.25.12.41.12s.28-.04.39-.12c.11-.08.19-.19.24-.33.04-.08.07-.18.08-.29Z" style="fill: #231f20;"/>
      <path d="M80.49,152.6h.3s.06.02.06.06v2.9s-.02.06-.06.06h-.3s-.06-.02-.06-.06v-.26s0-.01-.01-.02-.01,0-.02,0c-.17.25-.43.37-.79.37-.19,0-.37-.04-.53-.12-.16-.08-.29-.19-.38-.34-.09-.15-.14-.33-.14-.53v-2.02s.02-.06.06-.06h.3s.06.02.06.06v1.89c0,.23.06.41.19.54.13.13.3.2.52.2s.41-.07.54-.2c.13-.13.2-.31.2-.54v-1.89s.02-.06.06-.06Z" style="fill: #231f20;"/>
      <path d="M84.15,154.02v.19s-.02.06-.06.06h-1.93s-.02,0-.02.02c0,.22.02.36.04.42.04.18.14.32.28.42.14.1.33.16.55.16.17,0,.32-.04.44-.11.13-.08.23-.18.3-.32.02-.04.05-.04.08-.02l.23.14s.04.05.02.08c-.1.19-.25.34-.45.45s-.43.16-.69.16c-.28,0-.52-.07-.71-.2s-.33-.31-.41-.55c-.07-.19-.11-.47-.11-.82,0-.17,0-.3,0-.41,0-.11.02-.2.04-.28.07-.26.2-.47.41-.62s.45-.23.74-.23c.36,0,.64.09.84.27.19.18.32.44.36.78.02.11.02.25.02.42ZM82.44,153.08c-.13.1-.21.24-.25.41-.02.08-.04.22-.05.41,0,.02,0,.02.02.02h1.55s.02,0,.02-.02c0-.18-.02-.31-.04-.38-.04-.18-.13-.32-.27-.43s-.3-.16-.5-.16-.36.05-.49.15Z" style="fill: #231f20;"/>
    </g>
    <g>
      <path d="M83.49,334.19c-.21-.15-.35-.35-.43-.61-.06-.18-.08-.43-.08-.73s.03-.55.08-.73c.08-.25.22-.46.42-.6s.46-.22.75-.22.53.07.73.22.35.35.42.6c.06.17.08.42.08.74s-.03.57-.08.73c-.08.26-.22.46-.42.61s-.45.22-.74.22-.53-.07-.74-.22ZM84.72,333.88c.14-.11.23-.25.28-.43.04-.14.05-.34.05-.6s-.02-.46-.05-.6c-.05-.18-.14-.32-.28-.43-.14-.11-.3-.16-.5-.16s-.36.05-.5.16c-.14.11-.23.25-.28.43-.03.14-.05.34-.05.6s.02.46.05.6c.04.18.13.32.27.43.14.11.31.16.5.16s.35-.05.49-.16Z" style="fill: #231f20;"/>
      <path d="M88.22,331.34h.3s.06.02.06.06v2.9s-.02.06-.06.06h-.3s-.06-.02-.06-.06v-.26s0-.01-.01-.02-.01,0-.02,0c-.17.25-.43.37-.79.37-.19,0-.37-.04-.53-.12-.16-.08-.29-.19-.38-.34-.09-.15-.14-.33-.14-.53v-2.02s.02-.06.06-.06h.3s.06.02.06.06v1.89c0,.23.06.41.19.54.13.13.3.2.52.2s.41-.07.54-.2c.13-.13.2-.31.2-.54v-1.89s.02-.06.06-.06Z" style="fill: #231f20;"/>
      <path d="M90.83,331.69h-.67s-.02,0-.02.02v1.76c0,.19.04.33.13.4.09.08.22.12.4.12h.15s.06.02.06.06v.25s-.02.06-.06.06c-.05,0-.12,0-.22,0-.29,0-.5-.05-.65-.16s-.22-.31-.22-.6v-1.89s0-.02-.02-.02h-.37s-.06-.02-.06-.06v-.23s.02-.06.06-.06h.37s.02,0,.02-.02v-.69s.02-.06.06-.06h.29s.06.02.06.06v.69s0,.02.02.02h.67s.06.02.06.06v.23s-.02.06-.06.06Z" style="fill: #231f20;"/>
      <path d="M94.15,332.85c0,.32-.03.57-.08.74-.07.25-.2.46-.39.6s-.43.22-.71.22c-.16,0-.3-.03-.43-.09s-.24-.15-.33-.27c0,0-.01-.01-.02,0s0,0,0,.01v1.4s-.02.06-.06.06h-.3s-.06-.02-.06-.06v-4.06s.02-.06.06-.06h.3s.06.02.06.06v.25s0,.01,0,.01.01,0,.02,0c.09-.12.2-.21.33-.27.13-.06.27-.1.43-.1.28,0,.51.07.7.21.19.14.32.34.39.59.06.19.09.44.09.76ZM93.68,333.31c.02-.11.03-.26.03-.46s0-.33-.02-.44-.04-.2-.08-.28c-.05-.14-.13-.26-.25-.34-.12-.08-.27-.13-.43-.13s-.29.04-.4.13c-.11.08-.19.19-.24.33-.04.08-.06.17-.08.28-.02.11-.02.26-.02.45s0,.34.02.45c.02.11.04.21.08.29.05.13.13.24.24.33.11.08.24.12.39.12.16,0,.3-.04.42-.12.12-.08.2-.19.25-.32.04-.09.08-.19.1-.3Z" style="fill: #231f20;"/>
      <path d="M96.9,331.34h.3s.06.02.06.06v2.9s-.02.06-.06.06h-.3s-.06-.02-.06-.06v-.26s0-.01-.01-.02-.01,0-.02,0c-.17.25-.43.37-.79.37-.19,0-.37-.04-.53-.12-.16-.08-.29-.19-.38-.34-.09-.15-.14-.33-.14-.53v-2.02s.02-.06.06-.06h.3s.06.02.06.06v1.89c0,.23.06.41.19.54.13.13.3.2.52.2s.41-.07.54-.2c.13-.13.2-.31.2-.54v-1.89s.02-.06.06-.06Z" style="fill: #231f20;"/>
      <path d="M99.51,331.69h-.67s-.02,0-.02.02v1.76c0,.19.04.33.13.4.09.08.22.12.4.12h.15s.06.02.06.06v.25s-.02.06-.06.06c-.05,0-.12,0-.22,0-.29,0-.5-.05-.65-.16s-.22-.31-.22-.6v-1.89s0-.02-.02-.02h-.37s-.06-.02-.06-.06v-.23s.02-.06.06-.06h.37s.02,0,.02-.02v-.69s.02-.06.06-.06h.29s.06.02.06.06v.69s0,.02.02.02h.67s.06.02.06.06v.23s-.02.06-.06.06Z" style="fill: #231f20;"/>
    </g>
    <g>
      <path d="M50.2,331.69h-.67s-.02,0-.02.02v1.76c0,.19.04.33.13.4.09.08.22.12.4.12h.15s.06.02.06.06v.25s-.02.06-.06.06c-.05,0-.12,0-.22,0-.29,0-.5-.05-.65-.16s-.22-.31-.22-.6v-1.89s0-.02-.02-.02h-.37s-.06-.02-.06-.06v-.23s.02-.06.06-.06h.37s.02,0,.02-.02v-.69s.02-.06.06-.06h.29s.06.02.06.06v.69s0,.02.02.02h.67s.06.02.06.06v.23s-.02.06-.06.06Z" style="fill: #231f20;"/>
      <path d="M52.64,331.39s.04.04.04.08l-.07.29s-.04.05-.08.04c-.07-.03-.15-.04-.23-.04h-.08c-.21.01-.38.09-.51.24-.14.14-.2.33-.2.55v1.76s-.02.06-.06.06h-.3s-.06-.02-.06-.06v-2.9s.02-.06.06-.06h.3s.06.02.06.06v.36s0,.02,0,.02c0,0,.01,0,.02,0,.08-.15.19-.26.32-.34.13-.08.28-.12.45-.12.13,0,.25.03.34.08Z" style="fill: #231f20;"/>
      <path d="M53.3,330.69c-.06-.06-.1-.14-.1-.24s.03-.18.1-.24c.06-.06.14-.09.24-.09s.18.03.24.09.1.14.1.24-.03.17-.1.24c-.06.06-.14.1-.24.1s-.17-.03-.24-.1ZM53.31,334.3v-2.9s.02-.06.06-.06h.3s.06.02.06.06v2.9s-.02.06-.06.06h-.3s-.06-.02-.06-.06Z" style="fill: #231f20;"/>
      <path d="M56.7,331.34h.3s.06.02.06.06v2.86c0,.45-.13.77-.38.98-.26.21-.61.31-1.06.31-.09,0-.16,0-.21,0-.04,0-.06-.03-.06-.07v-.27s.02-.04.03-.04c.01,0,.03-.01.04,0h.16c.37,0,.64-.07.81-.21.17-.15.25-.38.25-.69v-.22s0-.01,0-.01-.01,0-.02,0c-.18.24-.44.36-.78.36-.26,0-.49-.07-.69-.21s-.34-.34-.4-.59c-.05-.16-.07-.41-.07-.73,0-.18,0-.32.02-.44,0-.12.03-.23.06-.32.07-.24.2-.43.39-.58.19-.15.41-.22.67-.22.35,0,.62.12.81.35,0,0,.02,0,.02,0s0,0,0-.02v-.23s.02-.06.06-.06ZM56.63,333.23c0-.09,0-.21,0-.38,0-.2,0-.34,0-.41,0-.07-.01-.13-.03-.19-.03-.17-.11-.31-.24-.42-.12-.11-.28-.16-.47-.16s-.35.05-.48.16c-.13.11-.22.25-.27.42-.04.13-.06.33-.06.6,0,.29.02.49.06.6.04.17.13.31.26.42s.3.16.49.16.36-.05.48-.16c.13-.11.21-.25.24-.41.01-.06.02-.13.02-.22Z" style="fill: #231f20;"/>
      <path d="M59.9,331.34h.3s.06.02.06.06v2.86c0,.45-.13.77-.38.98-.26.21-.61.31-1.06.31-.09,0-.16,0-.21,0-.04,0-.06-.03-.06-.07v-.27s.02-.04.03-.04c.01,0,.03-.01.04,0h.16c.37,0,.64-.07.81-.21.17-.15.25-.38.25-.69v-.22s0-.01,0-.01-.01,0-.02,0c-.18.24-.44.36-.78.36-.26,0-.49-.07-.69-.21s-.34-.34-.4-.59c-.05-.16-.07-.41-.07-.73,0-.18,0-.32.02-.44,0-.12.03-.23.06-.32.07-.24.2-.43.39-.58.19-.15.41-.22.67-.22.35,0,.62.12.81.35,0,0,.02,0,.02,0s0,0,0-.02v-.23s.02-.06.06-.06ZM59.83,333.23c0-.09,0-.21,0-.38,0-.2,0-.34,0-.41,0-.07-.01-.13-.03-.19-.03-.17-.11-.31-.24-.42-.12-.11-.28-.16-.47-.16s-.35.05-.48.16c-.13.11-.22.25-.27.42-.04.13-.06.33-.06.6,0,.29.02.49.06.6.04.17.13.31.26.42s.3.16.49.16.36-.05.48-.16c.13-.11.21-.25.24-.41.01-.06.02-.13.02-.22Z" style="fill: #231f20;"/>
      <path d="M63.51,332.76v.19s-.02.06-.06.06h-1.93s-.02,0-.02.02c0,.22.02.36.04.42.04.18.14.32.28.42.14.1.33.16.55.16.17,0,.32-.04.44-.11.13-.08.23-.18.3-.32.02-.04.05-.04.08-.02l.23.14s.04.05.02.08c-.1.19-.25.34-.45.45s-.43.16-.69.16c-.28,0-.52-.07-.71-.2s-.33-.31-.41-.55c-.07-.19-.11-.47-.11-.82,0-.17,0-.3,0-.41,0-.11.02-.2.04-.28.07-.26.2-.47.41-.62s.45-.23.74-.23c.36,0,.64.09.84.27.19.18.32.44.36.78.02.11.02.25.02.42ZM61.8,331.81c-.13.1-.21.24-.25.41-.02.08-.04.22-.05.41,0,.02,0,.02.02.02h1.55s.02,0,.02-.02c0-.18-.02-.31-.04-.38-.04-.18-.13-.32-.27-.43s-.3-.16-.5-.16-.36.05-.49.15Z" style="fill: #231f20;"/>
      <path d="M65.91,331.39s.04.04.04.08l-.07.29s-.04.05-.08.04c-.07-.03-.15-.04-.23-.04h-.08c-.21.01-.38.09-.51.24-.14.14-.2.33-.2.55v1.76s-.02.06-.06.06h-.3s-.06-.02-.06-.06v-2.9s.02-.06.06-.06h.3s.06.02.06.06v.36s0,.02,0,.02c0,0,.01,0,.02,0,.08-.15.19-.26.32-.34.13-.08.28-.12.45-.12.13,0,.25.03.34.08Z" style="fill: #231f20;"/>
    </g>
    <g>
      <path d="M25.71,77.37c0,.32-.03.57-.08.74-.07.25-.2.46-.39.6s-.43.22-.71.22c-.16,0-.3-.03-.43-.09s-.24-.15-.33-.27c0,0-.01-.01-.02,0s0,0,0,.01v1.4s-.02.06-.06.06h-.3s-.06-.02-.06-.06v-4.06s.02-.06.06-.06h.3s.06.02.06.06v.25s0,.01,0,.01.01,0,.02,0c.09-.12.2-.21.33-.27.13-.06.27-.1.43-.1.28,0,.51.07.7.21.19.14.32.34.39.59.06.19.09.44.09.76ZM25.25,77.83c.02-.11.03-.26.03-.46s0-.33-.02-.44-.04-.2-.08-.28c-.05-.14-.13-.26-.25-.34-.12-.08-.27-.13-.43-.13s-.29.04-.4.13c-.11.08-.19.19-.24.33-.04.08-.06.17-.08.28-.02.11-.02.26-.02.45s0,.34.02.45c.02.11.04.21.08.29.05.13.13.24.24.33.11.08.24.12.39.12.16,0,.3-.04.42-.12.12-.08.2-.19.25-.32.04-.09.08-.19.1-.3Z" style="fill: #231f20;"/>
      <path d="M26.62,75.21c-.06-.06-.1-.14-.1-.24s.03-.18.1-.24c.06-.06.14-.09.24-.09s.18.03.24.09.1.14.1.24-.03.17-.1.24c-.06.06-.14.1-.24.1s-.17-.03-.24-.1ZM26.63,78.82v-2.9s.02-.06.06-.06h.3s.06.02.06.06v2.9s-.02.06-.06.06h-.3s-.06-.02-.06-.06Z" style="fill: #231f20;"/>
      <path d="M29.39,76.21h-.67s-.02,0-.02.02v1.76c0,.19.04.33.13.4.09.08.22.12.4.12h.15s.06.02.06.06v.25s-.02.06-.06.06c-.05,0-.12,0-.22,0-.29,0-.5-.05-.65-.16s-.22-.31-.22-.6v-1.89s0-.02-.02-.02h-.37s-.06-.02-.06-.06v-.23s.02-.06.06-.06h.37s.02,0,.02-.02v-.69s.02-.06.06-.06h.29s.06.02.06.06v.69s0,.02.02.02h.67s.06.02.06.06v.23s-.02.06-.06.06Z" style="fill: #231f20;"/>
      <path d="M30.59,78.7c-.21-.15-.35-.35-.42-.61-.05-.17-.08-.42-.08-.74,0-.29.03-.53.08-.73.07-.25.21-.45.42-.59.21-.15.45-.22.74-.22s.54.07.76.22c.21.15.35.33.42.55.02.07.03.13.04.18h0s-.02.06-.05.07l-.3.04h-.01s-.05-.02-.05-.05l-.02-.09c-.04-.15-.12-.28-.26-.39-.14-.11-.31-.16-.51-.16s-.37.05-.5.16c-.13.11-.22.25-.26.42-.04.15-.05.35-.05.6s.02.47.05.61c.04.18.13.32.26.43.13.11.3.16.5.16s.36-.05.5-.15c.14-.1.23-.23.27-.39v-.05s.03-.06.08-.05l.29.05s.06.03.05.07l-.02.12c-.06.23-.2.42-.41.56-.22.14-.47.21-.76.21s-.53-.08-.74-.22Z" style="fill: #231f20;"/>
      <path d="M35.31,76.1c.19.19.28.44.28.75v1.97s-.02.06-.06.06h-.3s-.06-.02-.06-.06v-1.89c0-.22-.07-.4-.2-.54-.13-.14-.31-.21-.52-.21s-.4.07-.53.2c-.14.14-.2.31-.2.53v1.9s-.02.06-.06.06h-.3s-.06-.02-.06-.06v-4.06s.02-.06.06-.06h.3s.06.02.06.06v1.42s0,.01,0,.02.01,0,.02,0c.17-.25.44-.37.81-.37.32,0,.57.09.76.28Z" style="fill: #231f20;"/>
    </g>
    <g>
      <path d="M50.45,252.32h-.67s-.02,0-.02.02v1.76c0,.19.04.33.13.4.09.08.22.12.4.12h.15s.06.02.06.06v.25s-.02.06-.06.06c-.05,0-.12,0-.22,0-.29,0-.5-.05-.65-.16s-.22-.31-.22-.6v-1.89s0-.02-.02-.02h-.37s-.06-.02-.06-.06v-.23s.02-.06.06-.06h.37s.02,0,.02-.02v-.69s.02-.06.06-.06h.29s.06.02.06.06v.69s0,.02.02.02h.67s.06.02.06.06v.23s-.02.06-.06.06Z" style="fill: #231f20;"/>
      <path d="M51.65,254.82c-.21-.15-.35-.35-.43-.61-.06-.18-.08-.43-.08-.73s.03-.55.08-.73c.08-.25.22-.46.42-.6s.46-.22.75-.22.53.07.73.22.35.35.42.6c.06.17.08.42.08.74s-.03.57-.08.73c-.08.26-.22.46-.42.61s-.45.22-.74.22-.53-.07-.74-.22ZM52.88,254.51c.14-.11.23-.25.28-.43.04-.14.05-.34.05-.6s-.02-.46-.05-.6c-.05-.18-.14-.32-.28-.43-.14-.11-.3-.16-.5-.16s-.36.05-.5.16c-.14.11-.23.25-.28.43-.03.14-.05.34-.05.6s.02.46.05.6c.04.18.13.32.27.43.14.11.31.16.5.16s.35-.05.49-.16Z" style="fill: #231f20;"/>
      <path d="M56.05,252.02s.04.04.04.08l-.07.29s-.04.05-.08.04c-.07-.03-.15-.04-.23-.04h-.08c-.21.01-.38.09-.51.24-.14.14-.2.33-.2.55v1.76s-.02.06-.06.06h-.3s-.06-.02-.06-.06v-2.9s.02-.06.06-.06h.3s.06.02.06.06v.36s0,.02,0,.02c0,0,.01,0,.02,0,.08-.15.19-.26.32-.34.13-.08.28-.12.45-.12.13,0,.25.03.34.08Z" style="fill: #231f20;"/>
      <path d="M58.53,251.97h.3s.06.02.06.06v4.06s-.02.06-.06.06h-.3s-.06-.02-.06-.06v-1.4s0-.01,0-.01-.01,0-.02,0c-.09.12-.2.2-.33.27s-.28.09-.43.09c-.28,0-.52-.07-.71-.22s-.32-.35-.39-.6c-.05-.16-.07-.41-.07-.74s.03-.58.08-.76c.07-.25.2-.44.39-.59s.42-.21.7-.21c.16,0,.3.03.43.1.13.06.24.15.33.27,0,0,.02.01.02,0s0,0,0-.01v-.25s.02-.06.06-.06ZM58.44,253.93c.02-.11.02-.26.02-.45s0-.34-.02-.45c-.02-.11-.04-.2-.08-.28-.05-.14-.13-.25-.24-.33-.11-.08-.24-.13-.4-.13-.17,0-.31.04-.43.13-.12.08-.21.2-.25.34-.04.08-.07.18-.08.28-.02.11-.02.25-.02.44s.01.35.03.46c.02.11.06.21.1.3.05.13.14.24.25.32.12.08.25.12.41.12s.28-.04.39-.12c.11-.08.19-.19.24-.33.04-.08.07-.18.08-.29Z" style="fill: #231f20;"/>
      <path d="M61.78,251.97h.3s.06.02.06.06v2.9s-.02.06-.06.06h-.3s-.06-.02-.06-.06v-.26s0-.01-.01-.02-.01,0-.02,0c-.17.25-.43.37-.79.37-.19,0-.37-.04-.53-.12-.16-.08-.29-.19-.38-.34-.09-.15-.14-.33-.14-.53v-2.02s.02-.06.06-.06h.3s.06.02.06.06v1.89c0,.23.06.41.19.54.13.13.3.2.52.2s.41-.07.54-.2c.13-.13.2-.31.2-.54v-1.89s.02-.06.06-.06Z" style="fill: #231f20;"/>
      <path d="M65.44,253.39v.19s-.02.06-.06.06h-1.93s-.02,0-.02.02c0,.22.02.36.04.42.04.18.14.32.28.42.14.1.33.16.55.16.17,0,.32-.04.44-.11.13-.08.23-.18.3-.32.02-.04.05-.04.08-.02l.23.14s.04.05.02.08c-.1.19-.25.34-.45.45s-.43.16-.69.16c-.28,0-.52-.07-.71-.2s-.33-.31-.41-.55c-.07-.19-.11-.47-.11-.82,0-.17,0-.3,0-.41,0-.11.02-.2.04-.28.07-.26.2-.47.41-.62s.45-.23.74-.23c.36,0,.64.09.84.27.19.18.32.44.36.78.02.11.02.25.02.42ZM63.73,252.44c-.13.1-.21.24-.25.41-.02.08-.04.22-.05.41,0,.02,0,.02.02.02h1.55s.02,0,.02-.02c0-.18-.02-.31-.04-.38-.04-.18-.13-.32-.27-.43s-.3-.16-.5-.16-.36.05-.49.15Z" style="fill: #231f20;"/>
    </g>
    <g>
      <path d="M13.07,260.48c-.21-.15-.35-.35-.42-.61-.05-.17-.08-.42-.08-.74,0-.29.03-.53.08-.73.07-.25.21-.45.42-.59.21-.15.45-.22.74-.22s.54.07.76.22c.21.15.35.33.42.55.02.07.03.13.04.18h0s-.02.06-.05.07l-.3.04h-.01s-.05-.02-.05-.05l-.02-.09c-.04-.15-.12-.28-.26-.39-.14-.11-.31-.16-.51-.16s-.37.05-.5.16c-.13.11-.22.25-.26.42-.04.15-.05.35-.05.6s.02.47.05.61c.04.18.13.32.26.43.13.11.3.16.5.16s.36-.05.5-.15c.14-.1.23-.23.27-.39v-.05s.03-.06.08-.05l.29.05s.06.03.05.07l-.02.12c-.06.23-.2.42-.41.56-.22.14-.47.21-.76.21s-.53-.08-.74-.22Z" style="fill: #231f20;"/>
      <path d="M17.65,257.86c.2.18.29.43.29.73v2.01s-.02.06-.06.06h-.3s-.06-.02-.06-.06v-.25s0-.01,0-.02-.01,0-.02,0c-.1.12-.23.21-.39.27s-.34.09-.53.09c-.28,0-.52-.07-.71-.21s-.29-.36-.29-.66.11-.54.33-.71c.22-.17.52-.26.91-.26h.69s.02,0,.02-.02v-.23c0-.2-.06-.36-.17-.48-.11-.12-.29-.18-.53-.18-.19,0-.35.04-.47.11-.12.07-.19.18-.22.31-.01.04-.04.06-.07.05l-.32-.04s-.06-.02-.05-.05c.03-.22.15-.4.36-.54s.47-.21.78-.21c.36,0,.64.09.83.27ZM17.26,260.17c.17-.12.26-.28.26-.47v-.47s0-.02-.02-.02h-.63c-.26,0-.47.05-.63.16s-.24.26-.24.45c0,.18.06.31.18.4.12.09.28.13.47.13.24,0,.44-.06.61-.18Z" style="fill: #231f20;"/>
      <path d="M20.77,256.48h.3s.06.02.06.06v4.06s-.02.06-.06.06h-.3s-.06-.02-.06-.06v-.25s0-.01,0-.02c0,0-.01,0-.02,0-.09.12-.2.21-.33.27-.13.06-.27.1-.43.1-.28,0-.51-.07-.7-.21s-.32-.34-.39-.59c-.06-.18-.08-.43-.08-.76s.02-.58.07-.74c.07-.25.2-.46.39-.6s.43-.22.71-.22c.16,0,.3.03.43.09.13.06.24.15.33.27,0,0,.02.01.02,0s0,0,0-.01v-1.4s.02-.06.06-.06ZM20.68,259.6c.02-.11.02-.26.02-.45s0-.34-.02-.45c-.02-.11-.04-.21-.08-.29-.05-.14-.13-.24-.24-.33-.11-.08-.24-.12-.39-.12-.16,0-.3.04-.41.12-.12.08-.2.19-.25.32-.05.09-.08.19-.1.3-.02.11-.03.26-.03.46s0,.33.02.44c.02.11.04.2.08.28.05.14.13.26.25.34.12.08.27.13.43.13s.29-.04.4-.13.19-.2.24-.33c.04-.08.06-.17.08-.28Z" style="fill: #231f20;"/>
      <path d="M24.43,259.06v.19s-.02.06-.06.06h-1.93s-.02,0-.02.02c0,.22.02.36.04.42.04.18.14.32.28.42.14.1.33.16.55.16.17,0,.32-.04.44-.11.13-.08.23-.18.3-.32.02-.04.05-.04.08-.02l.23.14s.04.05.02.08c-.1.19-.25.34-.45.45s-.43.16-.69.16c-.28,0-.52-.07-.71-.2s-.33-.31-.41-.55c-.07-.19-.11-.47-.11-.82,0-.17,0-.3,0-.41,0-.11.02-.2.04-.28.07-.26.2-.47.41-.62s.45-.23.74-.23c.36,0,.64.09.84.27.19.18.32.44.36.78.02.11.02.25.02.42ZM22.72,258.11c-.13.1-.21.24-.25.41-.02.08-.04.22-.05.41,0,.02,0,.02.02.02h1.55s.02,0,.02-.02c0-.18-.02-.31-.04-.38-.04-.18-.13-.32-.27-.43s-.3-.16-.5-.16-.36.05-.49.15Z" style="fill: #231f20;"/>
      <path d="M27.3,257.88c.19.19.28.44.28.75v1.97s-.02.06-.06.06h-.3s-.06-.02-.06-.06v-1.89c0-.22-.07-.4-.2-.54-.13-.14-.31-.21-.52-.21s-.4.07-.53.2c-.14.14-.2.31-.2.53v1.9s-.02.06-.06.06h-.3s-.06-.02-.06-.06v-2.9s.02-.06.06-.06h.3s.06.02.06.06v.26s0,.01,0,.02.01,0,.02,0c.17-.25.44-.37.81-.37.32,0,.57.09.76.28Z" style="fill: #231f20;"/>
      <path d="M28.86,260.48c-.21-.15-.35-.35-.42-.61-.05-.17-.08-.42-.08-.74,0-.29.03-.53.08-.73.07-.25.21-.45.42-.59.21-.15.45-.22.74-.22s.54.07.76.22c.21.15.35.33.42.55.02.07.03.13.04.18h0s-.02.06-.05.07l-.3.04h-.01s-.05-.02-.05-.05l-.02-.09c-.04-.15-.12-.28-.26-.39-.14-.11-.31-.16-.51-.16s-.37.05-.5.16c-.13.11-.22.25-.26.42-.04.15-.05.35-.05.6s.02.47.05.61c.04.18.13.32.26.43.13.11.3.16.5.16s.36-.05.5-.15c.14-.1.23-.23.27-.39v-.05s.03-.06.08-.05l.29.05s.06.03.05.07l-.02.12c-.06.23-.2.42-.41.56-.22.14-.47.21-.76.21s-.53-.08-.74-.22Z" style="fill: #231f20;"/>
      <path d="M33.89,259.06v.19s-.02.06-.06.06h-1.93s-.02,0-.02.02c0,.22.02.36.04.42.04.18.14.32.28.42.14.1.33.16.55.16.17,0,.32-.04.44-.11.13-.08.23-.18.3-.32.02-.04.05-.04.08-.02l.23.14s.04.05.02.08c-.1.19-.25.34-.45.45s-.43.16-.69.16c-.28,0-.52-.07-.71-.2s-.33-.31-.41-.55c-.07-.19-.11-.47-.11-.82,0-.17,0-.3,0-.41,0-.11.02-.2.04-.28.07-.26.2-.47.41-.62s.45-.23.74-.23c.36,0,.64.09.84.27.19.18.32.44.36.78.02.11.02.25.02.42ZM32.18,258.11c-.13.1-.21.24-.25.41-.02.08-.04.22-.05.41,0,.02,0,.02.02.02h1.55s.02,0,.02-.02c0-.18-.02-.31-.04-.38-.04-.18-.13-.32-.27-.43s-.3-.16-.5-.16-.36.05-.49.15Z" style="fill: #231f20;"/>
    </g>
    <g>
      <path d="M46.44,291.78v-4.06s.02-.06.06-.06h.3s.06.02.06.06v4.06s-.02.06-.06.06h-.3s-.06-.02-.06-.06Z" style="fill: #231f20;"/>
      <path d="M47.86,288.17c-.06-.06-.1-.14-.1-.24s.03-.18.1-.24c.06-.06.14-.09.24-.09s.18.03.24.09.1.14.1.24-.03.17-.1.24c-.06.06-.14.1-.24.1s-.17-.03-.24-.1ZM47.87,291.78v-2.9s.02-.06.06-.06h.3s.06.02.06.06v2.9s-.02.06-.06.06h-.3s-.06-.02-.06-.06Z" style="fill: #231f20;"/>
      <path d="M51.35,289.06c.19.19.28.44.28.75v1.97s-.02.06-.06.06h-.3s-.06-.02-.06-.06v-1.89c0-.22-.07-.4-.2-.54-.13-.14-.31-.21-.52-.21s-.4.07-.53.2c-.14.14-.2.31-.2.53v1.9s-.02.06-.06.06h-.3s-.06-.02-.06-.06v-2.9s.02-.06.06-.06h.3s.06.02.06.06v.26s0,.01,0,.02.01,0,.02,0c.17-.25.44-.37.81-.37.32,0,.57.09.76.28Z" style="fill: #231f20;"/>
      <path d="M54.86,290.24v.19s-.02.06-.06.06h-1.93s-.02,0-.02.02c0,.22.02.36.04.42.04.18.14.32.28.42.14.1.33.16.55.16.17,0,.32-.04.44-.11.13-.08.23-.18.3-.32.02-.04.05-.04.08-.02l.23.14s.04.05.02.08c-.1.19-.25.34-.45.45s-.43.16-.69.16c-.28,0-.52-.07-.71-.2s-.33-.31-.41-.55c-.07-.19-.11-.47-.11-.82,0-.17,0-.3,0-.41,0-.11.02-.2.04-.28.07-.26.2-.47.41-.62s.45-.23.74-.23c.36,0,.64.09.84.27.19.18.32.44.36.78.02.11.02.25.02.42ZM53.14,289.29c-.13.1-.21.24-.25.41-.02.08-.04.22-.05.41,0,.02,0,.02.02.02h1.55s.02,0,.02-.02c0-.18-.02-.31-.04-.38-.04-.18-.13-.32-.27-.43s-.3-.16-.5-.16-.36.05-.49.15Z" style="fill: #231f20;"/>
      <path d="M57.55,289.04c.2.18.29.43.29.73v2.01s-.02.06-.06.06h-.3s-.06-.02-.06-.06v-.25s0-.01,0-.02-.01,0-.02,0c-.1.12-.23.21-.39.27s-.34.09-.53.09c-.28,0-.52-.07-.71-.21s-.29-.36-.29-.66.11-.54.33-.71c.22-.17.52-.26.91-.26h.69s.02,0,.02-.02v-.23c0-.2-.06-.36-.17-.48-.11-.12-.29-.18-.53-.18-.19,0-.35.04-.47.11-.12.07-.19.18-.22.31-.01.04-.04.06-.07.05l-.32-.04s-.06-.02-.05-.05c.03-.22.15-.4.36-.54s.47-.21.78-.21c.36,0,.64.09.83.27ZM57.16,291.35c.17-.12.26-.28.26-.47v-.47s0-.02-.02-.02h-.63c-.26,0-.47.05-.63.16s-.24.26-.24.45c0,.18.06.31.18.4.12.09.28.13.47.13.24,0,.44-.06.61-.18Z" style="fill: #231f20;"/>
      <path d="M60.28,288.87s.04.04.04.08l-.07.29s-.04.05-.08.04c-.07-.03-.15-.04-.23-.04h-.08c-.21.01-.38.09-.51.24-.14.14-.2.33-.2.55v1.76s-.02.06-.06.06h-.3s-.06-.02-.06-.06v-2.9s.02-.06.06-.06h.3s.06.02.06.06v.36s0,.02,0,.02c0,0,.01,0,.02,0,.08-.15.19-.26.32-.34.13-.08.28-.12.45-.12.13,0,.25.03.34.08Z" style="fill: #231f20;"/>
      <path d="M62.84,288.17c-.08.1-.12.26-.12.5v.12s0,.02.02.02h.67s.06.02.06.06v.27s-.02.06-.06.06h-.67s-.02,0-.02.02v2.55s-.02.06-.06.06h-.3s-.06-.02-.06-.06v-2.55s0-.02-.02-.02h-.4s-.06-.02-.06-.06v-.27s.02-.06.06-.06h.4s.02,0,.02-.02v-.14c0-.25.03-.44.08-.58.06-.14.15-.25.29-.31.14-.07.33-.1.58-.1h.17s.06.02.06.06v.25s-.02.06-.06.06h-.14c-.22,0-.37.05-.45.15Z" style="fill: #231f20;"/>
      <path d="M67.99,289.04c.17.18.26.42.26.74v2s-.02.06-.06.06h-.3s-.06-.02-.06-.06v-1.92c0-.22-.06-.39-.19-.52-.13-.13-.29-.19-.49-.19s-.38.06-.51.19c-.13.13-.19.3-.19.51v1.93s-.02.06-.06.06h-.3s-.06-.02-.06-.06v-1.92c0-.22-.06-.39-.19-.52-.12-.13-.29-.19-.5-.19s-.38.06-.5.19c-.13.13-.19.3-.19.51v1.93s-.02.06-.06.06h-.3s-.06-.02-.06-.06v-2.9s.02-.06.06-.06h.3s.06.02.06.06v.24s0,.01,0,.01.01,0,.02,0c.09-.12.2-.2.34-.26.14-.06.29-.09.46-.09.21,0,.38.04.53.12.15.08.26.21.33.37,0,.02.02.02.03,0,.09-.16.21-.29.37-.37.16-.08.34-.12.54-.12.3,0,.53.09.71.27Z" style="fill: #231f20;"/>
    </g>
    <g>
      <path d="M17.8,297.46l-.98-2.91v-.02s.01-.04.05-.04h.34s.06.02.07.05l.75,2.34s0,.01.02.01c0,0,.01,0,.02-.01l.75-2.34s.04-.05.07-.05h.34s.06.03.05.07l-.98,2.9s-.04.05-.07.05h-.35s-.06-.02-.07-.05Z" style="fill: #231f20;"/>
      <path d="M19.48,297.45l1.32-4.07s.04-.05.07-.05h.3s.06.02.05.07l-1.32,4.07s-.04.05-.07.05h-.3s-.06-.02-.05-.07Z" style="fill: #231f20;"/>
      <path d="M22.17,297.34c-.21-.15-.35-.35-.43-.61-.06-.18-.08-.43-.08-.73s.03-.55.08-.73c.08-.25.22-.46.42-.6s.46-.22.75-.22.53.07.73.22.35.35.42.6c.06.17.08.42.08.74s-.03.57-.08.73c-.08.26-.22.46-.42.61s-.45.22-.74.22-.53-.07-.74-.22ZM23.4,297.03c.14-.11.23-.25.28-.43.04-.14.05-.34.05-.6s-.02-.46-.05-.6c-.05-.18-.14-.32-.28-.43-.14-.11-.3-.16-.5-.16s-.36.05-.5.16c-.14.11-.23.25-.28.43-.03.14-.05.34-.05.6s.02.46.05.6c.04.18.13.32.27.43.14.11.31.16.5.16s.35-.05.49-.16Z" style="fill: #231f20;"/>
      <path d="M25.42,297.33c-.21-.15-.35-.35-.42-.61-.05-.17-.08-.42-.08-.74,0-.29.03-.53.08-.73.07-.25.21-.45.42-.59.21-.15.45-.22.74-.22s.54.07.76.22c.21.15.35.33.42.55.02.07.03.13.04.18h0s-.02.06-.05.07l-.3.04h-.01s-.05-.02-.05-.05l-.02-.09c-.04-.15-.12-.28-.26-.39-.14-.11-.31-.16-.51-.16s-.37.05-.5.16c-.13.11-.22.25-.26.42-.04.15-.05.35-.05.6s.02.47.05.61c.04.18.13.32.26.43.13.11.3.16.5.16s.36-.05.5-.15c.14-.1.23-.23.27-.39v-.05s.03-.06.08-.05l.29.05s.06.03.05.07l-.02.12c-.06.23-.2.42-.41.56-.22.14-.47.21-.76.21s-.53-.08-.74-.22Z" style="fill: #231f20;"/>
      <path d="M29.42,294.84h-.67s-.02,0-.02.02v1.76c0,.19.04.33.13.4.09.08.22.12.4.12h.15s.06.02.06.06v.25s-.02.06-.06.06c-.05,0-.12,0-.22,0-.29,0-.5-.05-.65-.16s-.22-.31-.22-.6v-1.89s0-.02-.02-.02h-.37s-.06-.02-.06-.06v-.23s.02-.06.06-.06h.37s.02,0,.02-.02v-.69s.02-.06.06-.06h.29s.06.02.06.06v.69s0,.02.02.02h.67s.06.02.06.06v.23s-.02.06-.06.06Z" style="fill: #231f20;"/>
    </g>
    <g>
      <path d="M84.33,249.24c-.17-.07-.31-.17-.4-.29-.09-.12-.14-.25-.14-.4v-.07s.02-.06.06-.06h.29s.06.02.06.06v.05c0,.13.07.25.21.34s.31.15.52.15.38-.05.5-.14c.13-.09.19-.21.19-.36,0-.1-.03-.18-.1-.25-.07-.06-.14-.11-.23-.15-.09-.04-.23-.08-.42-.14-.22-.06-.41-.13-.55-.19-.14-.06-.26-.15-.36-.27-.1-.11-.15-.26-.15-.43,0-.25.1-.46.3-.61s.46-.23.79-.23c.22,0,.41.04.58.11.17.07.3.17.39.3.09.13.14.27.14.42v.02s-.02.06-.06.06h-.28s-.06-.02-.06-.06v-.02c0-.13-.06-.25-.19-.34s-.3-.14-.52-.14c-.2,0-.37.04-.49.12-.12.08-.19.19-.19.34,0,.14.06.24.18.31.12.07.3.14.56.22.23.07.42.13.56.19.14.06.27.15.37.26.1.11.16.26.16.45,0,.26-.1.47-.3.62-.2.16-.47.23-.81.23-.22,0-.42-.04-.59-.11Z" style="fill: #231f20;"/>
      <path d="M88.83,246.54c.19.19.28.44.28.75v1.97s-.02.06-.06.06h-.3s-.06-.02-.06-.06v-1.89c0-.22-.07-.4-.2-.54-.13-.14-.31-.21-.52-.21s-.4.07-.53.2c-.14.14-.2.31-.2.53v1.9s-.02.06-.06.06h-.3s-.06-.02-.06-.06v-4.06s.02-.06.06-.06h.3s.06.02.06.06v1.42s0,.01,0,.02.01,0,.02,0c.17-.25.44-.37.81-.37.32,0,.57.09.76.28Z" style="fill: #231f20;"/>
      <path d="M91.91,246.53c.2.18.29.43.29.73v2.01s-.02.06-.06.06h-.3s-.06-.02-.06-.06v-.25s0-.01,0-.02-.01,0-.02,0c-.1.12-.23.21-.39.27s-.34.09-.53.09c-.28,0-.52-.07-.71-.21s-.29-.36-.29-.66.11-.54.33-.71c.22-.17.52-.26.91-.26h.69s.02,0,.02-.02v-.23c0-.2-.06-.36-.17-.48-.11-.12-.29-.18-.53-.18-.19,0-.35.04-.47.11-.12.07-.19.18-.22.31-.01.04-.04.06-.07.05l-.32-.04s-.06-.02-.05-.05c.03-.22.15-.4.36-.54s.47-.21.78-.21c.36,0,.64.09.83.27ZM91.52,248.83c.17-.12.26-.28.26-.47v-.47s0-.02-.02-.02h-.63c-.26,0-.47.05-.63.16s-.24.26-.24.45c0,.18.06.31.18.4.12.09.28.13.47.13.24,0,.44-.06.61-.18Z" style="fill: #231f20;"/>
      <path d="M95.52,247.81c0,.32-.03.57-.08.74-.07.25-.2.46-.39.6s-.43.22-.71.22c-.16,0-.3-.03-.43-.09s-.24-.15-.33-.27c0,0-.01-.01-.02,0s0,0,0,.01v1.4s-.02.06-.06.06h-.3s-.06-.02-.06-.06v-4.06s.02-.06.06-.06h.3s.06.02.06.06v.25s0,.01,0,.01.01,0,.02,0c.09-.12.2-.21.33-.27.13-.06.27-.1.43-.1.28,0,.51.07.7.21.19.14.32.34.39.59.06.19.09.44.09.76ZM95.06,248.27c.02-.11.03-.26.03-.46s0-.33-.02-.44-.04-.2-.08-.28c-.05-.14-.13-.26-.25-.34-.12-.08-.27-.13-.43-.13s-.29.04-.4.13c-.11.08-.19.19-.24.33-.04.08-.06.17-.08.28-.02.11-.02.26-.02.45s0,.34.02.45c.02.11.04.21.08.29.05.13.13.24.24.33.11.08.24.12.39.12.16,0,.3-.04.42-.12.12-.08.2-.19.25-.32.04-.09.08-.19.1-.3Z" style="fill: #231f20;"/>
      <path d="M98.68,247.72v.19s-.02.06-.06.06h-1.93s-.02,0-.02.02c0,.22.02.36.04.42.04.18.14.32.28.42.14.1.33.16.55.16.17,0,.32-.04.44-.11.13-.08.23-.18.3-.32.02-.04.05-.04.08-.02l.23.14s.04.05.02.08c-.1.19-.25.34-.45.45s-.43.16-.69.16c-.28,0-.52-.07-.71-.2s-.33-.31-.41-.55c-.07-.19-.11-.47-.11-.82,0-.17,0-.3,0-.41,0-.11.02-.2.04-.28.07-.26.2-.47.41-.62s.45-.23.74-.23c.36,0,.64.09.84.27.19.18.32.44.36.78.02.11.02.25.02.42ZM96.97,246.77c-.13.1-.21.24-.25.41-.02.08-.04.22-.05.41,0,.02,0,.02.02.02h1.55s.02,0,.02-.02c0-.18-.02-.31-.04-.38-.04-.18-.13-.32-.27-.43s-.3-.16-.5-.16-.36.05-.49.15Z" style="fill: #231f20;"/>
    </g>
    <g>
      <path d="M85.79,353.44l-.16.77-.08.03c-.38-.29-.8-.44-1.26-.44-.5,0-.88.17-1.14.51-.26.34-.4.84-.4,1.51s.13,1.21.4,1.56c.27.36.65.54,1.14.54.24,0,.47-.04.71-.12s.45-.2.65-.34l.08.05-.07.8c-.49.24-.97.36-1.44.36-.77,0-1.35-.24-1.77-.71-.41-.48-.62-1.15-.62-2.03s.22-1.61.65-2.1,1.05-.74,1.84-.74c.56,0,1.05.12,1.47.37Z" style="fill: #231f20;"/>
      <path d="M90.06,357.98l-.08.48c-.19.11-.37.17-.55.19-.17-.03-.3-.09-.4-.18-.1-.09-.17-.23-.23-.42h-.06c-.33.3-.67.5-1.02.59-.43,0-.75-.1-.98-.3-.23-.2-.34-.48-.33-.85l.02-1.06-.03-1.7.86-.08-.04,2.6c0,.21.04.37.14.49.1.12.25.18.45.18.3,0,.61-.14.93-.42v-2.77l.82-.08-.06,3.03c0,.1.02.17.05.22.03.04.09.06.18.06.07,0,.16-.01.26-.03l.08.06Z" style="fill: #231f20;"/>
      <path d="M92.81,357.77l.08.06-.08.54c-.31.15-.6.23-.87.25-.35-.06-.61-.17-.76-.35-.16-.18-.24-.44-.24-.78l.03-.61v-1.66h-.54l-.03-.05.04-.5h.52v-.62l.76-.29.08.07-.02.84h1.09l.03.06-.04.49h-1.1l-.04,2.13c0,.21.03.36.11.44.08.08.21.12.39.12s.38-.05.59-.15Z" style="fill: #231f20;"/>
      <path d="M96.4,356.66h-2.39c0,.44.11.77.31.99.2.22.49.33.87.33s.77-.12,1.15-.35l.08.05-.13.7c-.41.18-.82.27-1.21.27-.58,0-1.04-.18-1.37-.54-.33-.36-.5-.85-.5-1.47s.16-1.13.49-1.5c.33-.37.77-.55,1.33-.55.48,0,.84.13,1.1.39.26.26.39.63.39,1.1,0,.13-.01.29-.04.47l-.09.1ZM95.76,355.99c0-.27-.06-.47-.18-.6-.12-.14-.3-.2-.53-.2-.26,0-.48.08-.65.25s-.28.4-.34.71l1.68-.03.02-.12Z" style="fill: #231f20;"/>
      <path d="M100.2,357.92l-.07.65h-2.81l.06-1.64-.06-3.82h.9l-.05,3.74.02.99h1.95l.06.08Z" style="fill: #231f20;"/>
      <path d="M103.16,354.86c.23.19.34.45.34.78,0,.1-.02.44-.05,1.02-.03.57-.05.9-.05,1,0,.11.02.18.06.22.04.04.1.06.19.06.06,0,.14-.01.25-.03l.08.06-.08.48c-.16.1-.34.16-.54.19-.18-.02-.32-.08-.42-.19-.11-.11-.17-.26-.2-.44h-.06c-.29.31-.58.52-.88.64-.39,0-.7-.11-.92-.31s-.34-.47-.34-.81c0-.5.27-.82.82-.94l1.34-.3v-.46c0-.21-.04-.37-.15-.48-.1-.11-.26-.16-.45-.16s-.39.04-.58.13c-.19.09-.41.23-.64.41l-.07-.04-.11-.6c.5-.34,1.01-.51,1.53-.51.39,0,.7.09.93.28ZM101.59,357.06c-.1.02-.18.06-.22.11-.05.05-.07.14-.07.25,0,.17.05.3.14.4.09.1.22.14.38.14.27,0,.55-.17.85-.52l.03-.65-1.11.26Z" style="fill: #231f20;"/>
      <path d="M107.9,355.11c.26.33.39.79.39,1.38,0,.69-.17,1.22-.5,1.6-.33.37-.8.56-1.39.56-.29,0-.58-.07-.87-.2l-.54.22-.13-.08.06-1.65-.05-4.27.87-.07-.03,2.59h.05c.18-.15.34-.27.49-.36.15-.09.33-.16.53-.22.49,0,.87.16,1.13.49ZM107.21,357.71c.19-.24.28-.59.28-1.07,0-.42-.07-.75-.22-.98s-.36-.34-.64-.34c-.3,0-.61.17-.94.51l-.02,1.02.03.99c.25.15.5.23.73.23.33,0,.59-.12.77-.35Z" style="fill: #231f20;"/>
    </g>
    <g>
      <path d="M32.52,12.02h-.8l.12-1.95.07-2.96h-.06l-1.91,4.19h-.72l-.86-4.19h-.07l-.58,2.88-.37,2.03h-.75l1.3-6.42h1.02l.15.97.68,3.46h.07l1.54-3.5.37-.93h1.01l-.21,6.42Z" style="fill: #231f20;"/>
      <path d="M36.23,7.33c.35.07.61.24.79.49.18.25.27.61.27,1.08,0,.94-.18,1.7-.55,2.27-.37.57-.88.89-1.53.94h-.09c-.36-.09-.63-.26-.8-.52-.18-.26-.27-.63-.27-1.12,0-.6.08-1.13.25-1.6s.41-.83.73-1.1.69-.42,1.12-.44h.09ZM35.12,8.72c-.19.42-.28,1-.28,1.76,0,.32.04.55.11.69.08.14.21.21.39.21.38,0,.66-.21.85-.64.19-.42.28-1.01.28-1.76,0-.32-.04-.55-.11-.68s-.2-.2-.38-.2c-.38,0-.67.21-.86.62Z" style="fill: #231f20;"/>
      <path d="M44.19,7.68c.15.16.22.35.21.59v.13s-.38,2.53-.38,2.53l-.04,1.07-.88.07.47-3.3v-.11c0-.17-.04-.26-.15-.26-.18,0-.41.23-.71.67-.29.45-.62,1.1-.99,1.96l-.05.97-.89.07.48-3.3v-.11c0-.17-.04-.26-.15-.26-.17,0-.4.22-.69.66-.29.44-.62,1.07-.97,1.9l-.04,1.04-.87.07.47-3.61.04-1.01.85-.07-.26,2.06h.09c.27-.51.52-.92.75-1.25.23-.32.46-.6.71-.83h.1c.24.05.44.16.59.31.15.16.22.35.21.59v.13s-.15,1.04-.15,1.04h.09c.27-.51.52-.92.75-1.25.23-.32.47-.6.71-.83h.1c.24.05.44.16.59.31Z" style="fill: #231f20;"/>
      <path d="M49.33,9.9l-.08.93c-.06.52-.23.95-.51,1.28-.28.33-.73.65-1.36.94l-.25-.54v-.11c.44-.24.75-.48.94-.71.19-.23.31-.52.35-.88l.1-.83.36-3.62-1.03.02-.07-.08.13-.71h1.96l-.55,4.3Z" style="fill: #231f20;"/>
      <path d="M53.51,10.55l.27.39c-.39.63-.88,1.01-1.46,1.15h-.12c-.42-.05-.74-.21-.93-.48s-.29-.67-.29-1.21c0-.59.09-1.11.26-1.56s.42-.82.74-1.08.68-.41,1.08-.43h.09c.28.06.49.16.64.33.15.17.22.38.22.65,0,.81-.75,1.46-2.24,1.95,0,.37.06.64.15.81.1.17.24.25.44.25.16,0,.33-.06.49-.17.16-.12.34-.32.54-.6h.12ZM52.16,8.43c-.19.29-.31.69-.36,1.19.95-.32,1.43-.74,1.43-1.25,0-.25-.12-.38-.37-.38-.27,0-.5.15-.7.44Z" style="fill: #231f20;"/>
      <path d="M58.55,7.39l-.45,3.52-.04,1.08-.87.07.24-1.82h-.1c-.39.74-.82,1.36-1.27,1.86h-.15c-.53-.27-.79-.81-.79-1.61,0-.46.08-.91.24-1.36.16-.45.4-.83.73-1.15s.72-.54,1.18-.64h.05l.61.24.54-.25.09.06ZM56.51,10.79c.16-.2.34-.5.54-.89.2-.39.41-.86.61-1.41v-.15l-.57-.24c-.36,0-.65.2-.86.6-.21.4-.32.91-.32,1.52,0,.31.02.54.07.67.05.13.11.2.17.2.08,0,.2-.1.35-.3Z" style="fill: #231f20;"/>
      <path d="M63.25,7.68c.15.16.22.35.22.59v.13s-.37,2.53-.37,2.53l-.05,1.07-.89.07.48-3.3v-.11c0-.17-.04-.26-.15-.26-.17,0-.4.22-.69.66-.29.44-.62,1.07-.97,1.9l-.04,1.04-.87.07.47-3.61.04-1.01.86-.07-.26,2.06h.09c.27-.51.52-.92.75-1.25s.46-.6.71-.83h.1c.24.05.43.16.58.31Z" style="fill: #231f20;"/>
      <path d="M67.43,7.6l-.24.85-.13.04c-.25-.32-.51-.48-.77-.48-.16,0-.29.06-.4.18s-.16.26-.16.41c0,.13.05.25.14.35.09.1.23.22.41.36.27.2.47.39.61.58.14.18.21.42.21.71s-.07.54-.21.77-.34.4-.59.53c-.25.13-.54.2-.86.2-.36-.05-.68-.16-.97-.33l.22-.88.12-.05c.13.2.27.35.44.46.16.11.32.16.48.16.18,0,.32-.06.43-.19.11-.12.16-.26.16-.42,0-.15-.05-.27-.14-.39-.09-.11-.24-.24-.44-.38-.26-.21-.46-.4-.6-.57-.14-.17-.2-.4-.2-.68s.08-.54.23-.77c.15-.23.35-.4.61-.53.25-.13.53-.19.84-.19.27.07.54.15.82.26Z" style="fill: #231f20;"/>
    </g>
  </g>
  <g id="components">
    <rect id="density" x="61.95" y="51.6" width="43.94" height="43.94" style="fill: red;"/>
    <rect id="pitch" x="13.54" y="39.2" width="32.31" height="32.31" style="fill: red;"/>
    <rect id="cadence" x="13.84" y="137.83" width="32.31" height="32.31" style="fill: red;"/>
    <rect id="torque" x="59.81" y="114.94" width="32.31" height="32.31" style="fill: red;"/>
    <rect id="shape" x="68.79" y="169.99" width="32.31" height="32.31" style="fill: red;"/>
    <circle id="quantization" cx="45.06" cy="200.81" r="9.55" style="fill: red;"/>
    <circle id="coupling" cx="19.8" cy="200.81" r="9.55" style="fill: red;"/>
    <circle id="pitch_led" cx="12.79" cy="79.09" r="5.18" style="fill: #f0f;"/>
    <circle id="cadence_led" cx="12.79" cy="131.4" r="5.18" style="fill: #f0f;"/>
    <circle cx="38.64" cy="106.5" r="12.69" style="fill: lime;"/>
    <circle id="cadence-2" data-name="cadence" cx="23.24" cy="241.65" r="12.69" style="fill: lime;"/>
    <circle id="torque-2" data-name="torque" cx="57.26" cy="235.98" r="12.69" style="fill: lime;"/>
    <circle id="shape-2" data-name="shape" cx="91.28" cy="230.31" r="12.69" style="fill: lime;"/>
    <circle id="v_oct" cx="23.24" cy="278.5" r="12.69" style="fill: lime;"/>
    <circle id="linear_fm" cx="57.26" cy="272.83" r="12.69" style="fill: lime;"/>
    <circle id="fm_index" cx="91.28" cy="267.17" r="12.69" style="fill: lime;"/>
    <circle id="sync" cx="23.24" cy="315.35" r="12.69" style="fill: lime;"/>
    <circle id="trigger" cx="57.26" cy="315.35" r="12.69" style="fill: blue;"/>
    <circle id="output" cx="91.28" cy="315.35" r="12.69" style="fill: blue;"/>
  </g>
</svg>