<?xml version="1.0" encoding="UTF-8"?>
<svg xmlns="http://www.w3.org/2000/svg" xmlns:xlink="http://www.w3.org/1999/xlink" viewBox="0 0 57.6 364.25">
  <defs>
    <linearGradient id="panel-gradient" x1="0" y1="182.13" x2="57.6" y2="182.13" gradientUnits="userSpaceOnUse">
      <stop offset="0" stop-color="#e2e2e3"/>
      <stop offset=".29" stop-color="#d0d3d6"/>
      <stop offset=".65" stop-color="#d8d7da"/>
      <stop offset=".87" stop-color="#d7d9dc"/>
      <stop offset="1" stop-color="#d6d9dd"/>
      <stop offset="1" stop-color="#a6a8ab"/>
    </linearGradient>
  </defs>
  <g id="Panel_Background" data-name="Panel Background">
    <rect x="0" y="0" width="57.6" height="364.25" style="fill: url(#panel-gradient);"/>
  </g>
  <g id="print">
    <g id="Labels_as_Shapes" data-name="Labels as Shapes">
      <g>
        <path d="M32.3,353.45l-.16.77-.08.03c-.38-.29-.8-.44-1.26-.44-.5,0-.88.17-1.14.51-.26.34-.4.84-.4,1.51s.13,1.21.4,1.56c.27.36.65.54,1.14.54.24,0,.47-.04.71-.12s.45-.2.65-.34l.08.05-.07.8c-.49.24-.97.36-1.44.36-.77,0-1.35-.24-1.77-.71-.41-.48-.62-1.15-.62-2.03s.22-1.61.65-2.1,1.05-.74,1.84-.74c.56,0,1.05.12,1.47.37Z" style="fill: #231f20;"/>
        <path d="M36.57,357.99l-.08.48c-.19.11-.37.17-.55.19-.17-.03-.3-.09-.4-.18-.1-.09-.17-.23-.23-.42h-.06c-.33.3-.67.5-1.02.59-.43,0-.75-.1-.98-.3-.23-.2-.34-.48-.33-.85l.02-1.06-.03-1.7.86-.08-.04,2.6c0,.21.04.37.14.49.1.12.25.18.45.18.3,0,.61-.14.93-.42v-2.77l.82-.08-.06,3.03c0,.1.02.17.05.22.03.04.09.06.18.06.07,0,.16-.01.26-.03l.08.06Z" style="fill: #231f20;"/>
        <path d="M39.31,357.79l.08.06-.08.54c-.31.15-.6.23-.87.25-.35-.06-.61-.17-.76-.35-.16-.18-.24-.44-.24-.78l.03-.61v-1.66h-.54l-.03-.05.04-.5h.52v-.62l.76-.29.08.07-.02.84h1.09l.03.06-.04.49h-1.1l-.04,2.13c0,.21.03.36.11.44.08.08.21.12.39.12s.38-.05.59-.15Z" style="fill: #231f20;"/>
        <path d="M42.91,356.67h-2.39c0,.44.11.77.31.99.2.22.49.33.87.33s.77-.12,1.15-.35l.08.05-.13.7c-.41.18-.82.27-1.21.27-.58,0-1.04-.18-1.37-.54-.33-.36-.5-.85-.5-1.47s.16-1.13.49-1.5c.33-.37.77-.55,1.33-.55.48,0,.84.13,1.1.39.26.26.39.63.39,1.1,0,.13-.01.29-.04.47l-.09.1ZM42.26,356c0-.27-.06-.47-.18-.6-.12-.14-.3-.2-.53-.2-.26,0-.48.08-.65.25s-.28.4-.34.71l1.68-.03.02-.12Z" style="fill: #231f20;"/>
        <path d="M46.71,357.94l-.07.65h-2.81l.06-1.64-.06-3.82h.9l-.05,3.74.02.99h1.95l.06.08Z" style="fill: #231f20;"/>
        <path d="M49.67,354.88c.23.19.34.45.34.78,0,.1-.02.44-.05,1.02-.03.57-.05.9-.05,1,0,.11.02.18.06.22.04.04.1.06.19.06.06,0,.14-.01.25-.03l.08.06-.08.48c-.16.1-.34.16-.54.19-.18-.02-.32-.08-.42-.19-.11-.11-.17-.26-.2-.44h-.06c-.29.31-.58.52-.88.64-.39,0-.7-.11-.92-.31s-.34-.47-.34-.81c0-.5.27-.82.82-.94l1.34-.3v-.46c0-.21-.04-.37-.15-.48-.1-.11-.26-.16-.45-.16s-.39.04-.58.13c-.19.09-.41.23-.64.41l-.07-.04-.11-.6c.5-.34,1.01-.51,1.53-.51.39,0,.7.09.93.28ZM48.1,357.07c-.1.02-.18.06-.22.11-.05.05-.07.14-.07.25,0,.17.05.3.14.4.09.1.22.14.38.14.27,0,.55-.17.85-.52l.03-.65-1.11.26Z" style="fill: #231f20;"/>
        <path d="M54.41,355.13c.26.33.39.79.39,1.38,0,.69-.17,1.22-.5,1.6-.33.37-.8.56-1.39.56-.29,0-.58-.07-.87-.2l-.54.22-.13-.08.06-1.65-.05-4.27.87-.07-.03,2.59h.05c.18-.15.34-.27.49-.36.15-.09.33-.16.53-.22.49,0,.87.16,1.13.49ZM53.71,357.72c.19-.24.28-.59.28-1.07,0-.42-.07-.75-.22-.98s-.36-.34-.64-.34c-.3,0-.61.17-.94.51l-.02,1.02.03.99c.25.15.5.23.73.23.33,0,.59-.12.77-.35Z" style="fill: #231f20;"/>
      </g>
      <g>
        <path d="M40.35,13.46c0,.47-.08.92-.25,1.37-.16.45-.41.83-.73,1.16-.33.32-.71.53-1.17.62h-.05l-.49-.12-.1.79-.04,1.1-.87.07.71-5.49.04-1.01.85-.07-.24,1.83h.12c.38-.72.8-1.34,1.28-1.86h.15c.52.28.78.82.78,1.61ZM39.24,15.26c.21-.4.32-.91.32-1.52,0-.32-.02-.55-.07-.69-.05-.14-.11-.21-.17-.21-.07,0-.19.1-.35.31-.16.2-.34.5-.55.9-.21.39-.41.86-.61,1.4l-.03.22.6.19c.36,0,.65-.2.86-.6Z" style="fill: #231f20;"/>
        <path d="M44.05,15.06l.27.39c-.39.63-.88,1.01-1.46,1.15h-.12c-.42-.05-.74-.21-.93-.48s-.29-.67-.29-1.21c0-.59.09-1.11.26-1.56s.42-.82.74-1.08.68-.41,1.08-.43h.09c.28.06.49.16.64.33.15.17.22.38.22.65,0,.81-.75,1.46-2.24,1.95,0,.37.06.64.15.81.1.17.24.25.44.25.16,0,.33-.06.49-.17.16-.12.34-.32.54-.6h.12ZM42.7,12.94c-.19.29-.31.69-.36,1.19.95-.32,1.43-.74,1.43-1.25,0-.25-.12-.38-.37-.38-.27,0-.5.15-.7.44Z" style="fill: #231f20;"/>
        <path d="M49.22,13.46c0,.47-.08.92-.25,1.37-.16.45-.41.83-.73,1.16-.33.32-.71.53-1.17.62h-.05l-.49-.12-.1.79-.04,1.1-.87.07.71-5.49.04-1.01.85-.07-.24,1.83h.12c.38-.72.8-1.34,1.28-1.86h.15c.52.28.78.82.78,1.61ZM48.11,15.26c.21-.4.32-.91.32-1.52,0-.32-.02-.55-.07-.69-.05-.14-.11-.21-.17-.21-.07,0-.19.1-.35.31-.16.2-.34.5-.55.9-.21.39-.41.86-.61,1.4l-.03.22.6.19c.36,0,.65-.2.86-.6Z" style="fill: #231f20;"/>
        <path d="M52.92,15.06l.27.39c-.39.63-.88,1.01-1.46,1.15h-.12c-.42-.05-.74-.21-.93-.48s-.29-.67-.29-1.21c0-.59.09-1.11.26-1.56s.42-.82.74-1.08.68-.41,1.08-.43h.09c.28.06.49.16.64.33.15.17.22.38.22.65,0,.81-.75,1.46-2.24,1.95,0,.37.06.64.15.81.1.17.24.25.44.25.16,0,.33-.06.49-.17.16-.12.34-.32.54-.6h.12ZM51.57,12.94c-.19.29-.31.69-.36,1.19.95-.32,1.43-.74,1.43-1.25,0-.25-.12-.38-.37-.38-.27,0-.5.15-.7.44Z" style="fill: #231f20;"/>
      </g>
      <g>
        <path d="M32.33,5.17l.05.13-.24.74-.18.02c-.12-.15-.22-.25-.31-.3-.09-.05-.19-.07-.3-.07-.32,0-.57.19-.75.56-.18.38-.28.9-.28,1.56,0,.4.04.68.11.84.07.16.19.25.36.25.29,0,.58-.28.88-.83h.12s.26.39.26.39c-.19.35-.38.62-.59.81-.21.19-.45.33-.74.43h-.13c-.39-.07-.67-.22-.84-.47-.17-.25-.25-.66-.25-1.23s.08-1.09.24-1.55c.16-.46.4-.82.73-1.09.33-.27.73-.41,1.22-.41l.62.22Z" style="fill: #231f20;"/>
        <path d="M36.66,5l-.45,3.52-.04,1.08-.87.07.24-1.82h-.1c-.39.74-.82,1.36-1.27,1.86h-.15c-.53-.27-.79-.81-.79-1.61,0-.46.08-.91.24-1.36.16-.45.4-.83.73-1.15s.72-.54,1.18-.64h.05l.61.24.54-.25.09.06ZM34.63,8.4c.16-.2.34-.5.54-.89.2-.39.41-.86.61-1.41v-.15l-.57-.24c-.36,0-.65.2-.86.6-.21.4-.32.91-.32,1.52,0,.31.02.54.07.67.05.13.11.2.17.2.08,0,.2-.1.35-.3Z" style="fill: #231f20;"/>
        <path d="M40.78,5.17l.05.13-.24.74-.18.02c-.12-.15-.22-.25-.31-.3-.09-.05-.19-.07-.3-.07-.32,0-.57.19-.75.56-.19.38-.28.9-.28,1.56,0,.4.04.68.11.84.07.16.19.25.36.25.29,0,.58-.28.88-.83h.12s.26.39.26.39c-.19.35-.38.62-.59.81s-.45.33-.74.43h-.13c-.39-.07-.67-.22-.84-.47-.17-.25-.25-.66-.25-1.23s.08-1.09.24-1.55c.16-.46.4-.82.73-1.09.33-.27.73-.41,1.22-.41l.62.22Z" style="fill: #231f20;"/>
        <path d="M42.69,8.52l-.05,1.08-.86.07.47-3.61.04-1.01.85-.07-.45,3.54ZM43.25,3.06c.08.09.12.22.12.39s-.04.31-.14.41-.21.15-.36.15-.27-.05-.35-.14c-.08-.09-.12-.22-.12-.39s.05-.31.14-.41.21-.15.37-.15c.15,0,.26.05.34.14Z" style="fill: #231f20;"/>
        <path d="M46.6,4.94c.35.07.61.24.79.49.18.25.27.61.27,1.08,0,.94-.18,1.7-.55,2.27-.37.57-.88.89-1.53.94h-.09c-.36-.09-.63-.26-.8-.52-.18-.26-.27-.63-.27-1.12,0-.6.08-1.13.25-1.6.17-.46.41-.83.73-1.1.31-.27.69-.42,1.12-.44h.09ZM45.49,6.32c-.19.42-.28,1-.28,1.76,0,.32.04.55.11.69.08.14.2.21.39.21.38,0,.66-.21.85-.64.19-.42.28-1.01.28-1.76,0-.32-.04-.55-.11-.68-.08-.13-.2-.2-.38-.2-.38,0-.67.21-.85.62Z" style="fill: #231f20;"/>
        <path d="M53.31,8.16l.27.39c-.39.63-.88,1.01-1.46,1.15h-.12c-.42-.05-.74-.21-.93-.48s-.29-.67-.29-1.21c0-.59.09-1.11.26-1.56s.42-.82.74-1.08.68-.41,1.08-.43h.09c.28.06.49.16.64.33.15.17.22.38.22.65,0,.81-.75,1.46-2.24,1.95,0,.37.06.64.15.81.1.17.24.25.44.25.16,0,.33-.06.49-.17.16-.12.34-.32.54-.6h.12ZM51.96,6.04c-.19.29-.31.69-.36,1.19.95-.32,1.43-.74,1.43-1.25,0-.25-.12-.38-.37-.38-.27,0-.5.15-.7.44Z" style="fill: #231f20;"/>
      </g>
      <g>
        <path d="M38.71,334.85c.13,0,.26.01.37.04.12.03.22.07.31.13h.83v.2c0,.07-.04.11-.13.13l-.34.05c.07.13.1.27.1.43,0,.15-.03.28-.08.4-.06.12-.14.22-.24.31-.1.09-.22.15-.36.2-.14.05-.29.07-.46.07-.14,0-.28-.02-.4-.05-.06.04-.11.09-.15.13-.03.05-.05.09-.05.14,0,.07.03.13.09.17.06.04.13.07.23.08.1.02.21.03.33.03h.37c.13,0,.25.01.37.03s.23.06.33.11.17.12.23.21c.06.09.09.2.09.35,0,.13-.03.26-.1.38-.07.12-.16.23-.28.33-.12.1-.27.17-.45.23s-.38.09-.6.09-.42-.02-.58-.07c-.17-.04-.31-.1-.42-.18-.11-.07-.19-.16-.25-.26-.05-.1-.08-.2-.08-.3,0-.15.05-.28.14-.38.09-.11.22-.19.39-.25-.09-.04-.15-.09-.21-.16-.05-.07-.08-.16-.08-.27,0-.04,0-.09.02-.14.02-.05.04-.09.07-.14.03-.05.07-.09.12-.13.05-.04.1-.08.17-.11-.15-.08-.27-.2-.35-.33-.08-.14-.13-.3-.13-.49,0-.15.03-.28.09-.4s.14-.22.24-.31c.1-.08.22-.15.36-.2.14-.05.3-.07.46-.07ZM39.65,338.1c0-.08-.02-.14-.06-.19s-.1-.08-.17-.11c-.07-.03-.16-.04-.25-.06-.09-.01-.19-.02-.3-.02h-.32c-.11,0-.21-.01-.31-.04-.11.05-.21.12-.28.2s-.11.17-.11.28c0,.07.02.13.05.19.03.06.09.11.16.15s.16.08.27.1c.11.03.24.04.39.04s.27-.01.39-.04.21-.06.29-.11c.08-.05.14-.11.18-.17s.06-.14.06-.22ZM38.71,336.46c.11,0,.2-.01.29-.04.08-.03.15-.07.21-.13.06-.05.1-.12.13-.19s.04-.16.04-.25c0-.19-.06-.33-.17-.44-.11-.11-.28-.17-.49-.17s-.38.05-.49.17c-.11.11-.17.26-.17.44,0,.09.01.17.04.25.03.08.07.14.13.19.06.05.12.1.21.13.08.03.18.04.28.04Z"/>
        <path d="M43.04,337.94h-.24c-.05,0-.09,0-.13-.02-.03-.02-.05-.05-.06-.1l-.06-.28c-.08.07-.16.14-.23.19-.08.06-.16.11-.24.14s-.17.07-.27.09c-.09.02-.2.03-.32.03s-.23-.02-.33-.05c-.1-.03-.19-.08-.27-.15-.08-.07-.14-.15-.18-.25-.04-.1-.07-.22-.07-.36,0-.12.03-.24.1-.35s.17-.21.32-.3c.15-.09.34-.16.58-.21.24-.06.53-.08.87-.08v-.24c0-.24-.05-.42-.15-.54-.1-.12-.25-.18-.45-.18-.13,0-.24.02-.33.05s-.17.07-.23.11c-.06.04-.12.08-.17.11s-.09.05-.14.05c-.04,0-.07,0-.09-.03-.03-.02-.05-.04-.07-.07l-.1-.17c.17-.16.35-.28.54-.36.19-.08.41-.12.65-.12.17,0,.32.03.45.08.13.06.24.13.33.23.09.1.16.22.2.36.05.14.07.3.07.47v1.94ZM41.65,337.62c.09,0,.18,0,.26-.03s.15-.05.22-.08c.07-.04.13-.08.2-.13.06-.05.12-.11.18-.17v-.63c-.25,0-.45.02-.63.05-.17.03-.31.07-.42.12-.11.05-.19.11-.24.18s-.07.14-.07.23.01.15.04.21c.03.06.06.11.1.14.04.04.1.06.16.08.06.02.12.03.2.03Z"/>
        <path d="M44.83,337.99c-.24,0-.42-.07-.55-.2-.13-.13-.19-.33-.19-.58v-1.86h-.37s-.06,0-.08-.03c-.02-.02-.03-.05-.03-.09v-.21l.5-.06.12-.94s.02-.05.04-.07c.02-.02.05-.03.08-.03h.27v1.05h.87v.39h-.87v1.82c0,.13.03.22.09.28.06.06.14.09.24.09.06,0,.1,0,.15-.02.04-.02.08-.03.11-.05.03-.02.05-.03.08-.05.02-.01.04-.02.06-.02.03,0,.05.02.08.05l.16.26c-.09.09-.2.15-.33.2s-.26.07-.4.07Z"/>
        <path d="M47.41,334.86c.18,0,.35.03.5.09.15.06.29.15.4.26s.2.26.26.43c.06.17.09.36.09.58,0,.08,0,.14-.03.17-.02.03-.05.04-.1.04h-2.02c0,.19.03.36.08.5.05.14.11.26.2.36.08.09.18.17.3.21s.25.07.39.07c.13,0,.25-.02.35-.05.1-.03.18-.06.25-.1.07-.04.13-.07.17-.1.05-.03.09-.05.12-.05.04,0,.08.02.1.05l.15.2c-.07.08-.15.15-.24.21-.09.06-.19.11-.3.15-.1.04-.21.07-.33.09-.11.02-.22.03-.33.03-.21,0-.4-.04-.58-.11-.18-.07-.33-.17-.46-.31-.13-.14-.23-.31-.3-.51s-.11-.43-.11-.7c0-.21.03-.41.1-.59.07-.18.16-.34.28-.48s.27-.24.45-.32.37-.12.59-.12ZM47.42,335.25c-.26,0-.46.08-.61.22-.15.15-.24.36-.28.62h1.65c0-.12-.02-.24-.05-.34-.03-.1-.08-.19-.15-.27-.07-.07-.15-.13-.24-.17s-.2-.06-.33-.06Z"/>
      </g>
      <g>
        <path d="M11.59,338.5h-.24c-.05,0-.09,0-.13-.02-.03-.02-.05-.05-.06-.1l-.06-.28c-.08.07-.16.14-.23.19-.08.06-.16.11-.24.14s-.17.07-.27.09c-.09.02-.2.03-.32.03s-.23-.02-.33-.05c-.1-.03-.19-.08-.27-.15-.08-.07-.14-.15-.18-.25-.04-.1-.07-.22-.07-.36,0-.12.03-.24.1-.35s.17-.21.32-.3c.15-.09.34-.16.58-.21.24-.06.53-.08.87-.08v-.24c0-.24-.05-.42-.15-.54-.1-.12-.25-.18-.45-.18-.13,0-.24.02-.33.05s-.17.07-.23.11c-.06.04-.12.08-.17.11s-.09.05-.14.05c-.04,0-.07,0-.09-.03-.03-.02-.05-.04-.07-.07l-.1-.17c.17-.16.35-.28.54-.36.19-.08.41-.12.65-.12.17,0,.32.03.45.08.13.06.24.13.33.23.09.1.16.22.2.36.05.14.07.3.07.47v1.94ZM10.21,338.17c.09,0,.18,0,.26-.03s.15-.05.22-.08c.07-.04.13-.08.2-.13.06-.05.12-.11.18-.17v-.63c-.25,0-.45.02-.63.05-.17.03-.31.07-.42.12-.11.05-.19.11-.24.18s-.07.14-.07.23.01.15.04.21c.03.06.06.11.1.14.04.04.1.06.16.08.06.02.12.03.2.03Z"/>
        <path d="M13.06,334.08v4.42h-.53v-4.42h.53Z"/>
        <path d="M14.77,334.5c0,.05-.01.1-.03.15-.02.04-.05.08-.08.12-.03.04-.08.06-.12.08-.05.02-.09.03-.15.03s-.1,0-.15-.03c-.04-.02-.08-.05-.12-.08-.04-.04-.06-.08-.08-.12-.02-.04-.03-.09-.03-.15s.01-.1.03-.15c.02-.05.05-.09.08-.12.03-.04.07-.06.12-.08.05-.02.09-.03.15-.03s.1,0,.15.03c.05.02.09.05.12.08.04.04.06.08.08.12.02.05.03.1.03.15ZM14.65,335.46v3.04h-.53v-3.04h.53Z"/>
        <path d="M16.68,335.41c.13,0,.26.01.37.04.12.03.22.07.31.13h.83v.2c0,.07-.04.11-.13.13l-.34.05c.07.13.1.27.1.43,0,.15-.03.28-.08.4-.06.12-.14.22-.24.31-.1.09-.22.15-.36.2-.14.05-.29.07-.46.07-.14,0-.28-.02-.4-.05-.06.04-.11.09-.15.13-.03.05-.05.09-.05.14,0,.07.03.13.09.17.06.04.13.07.23.08.1.02.21.03.33.03h.37c.13,0,.25.01.37.03s.23.06.33.11.17.12.23.21c.06.09.09.2.09.35,0,.13-.03.26-.1.38-.07.12-.16.23-.28.33-.12.1-.27.17-.45.23s-.38.09-.6.09-.42-.02-.58-.07c-.17-.04-.31-.1-.42-.18-.11-.07-.19-.16-.25-.26-.05-.1-.08-.2-.08-.3,0-.15.05-.28.14-.38.09-.11.22-.19.39-.25-.09-.04-.15-.09-.21-.16-.05-.07-.08-.16-.08-.27,0-.04,0-.09.02-.14.02-.05.04-.09.07-.14.03-.05.07-.09.12-.13.05-.04.1-.08.17-.11-.15-.08-.27-.2-.35-.33-.08-.14-.13-.3-.13-.49,0-.15.03-.28.09-.4s.14-.22.24-.31c.1-.08.22-.15.36-.2.14-.05.3-.07.46-.07ZM17.63,338.65c0-.08-.02-.14-.06-.19s-.1-.08-.17-.11c-.07-.03-.16-.04-.25-.06-.09-.01-.19-.02-.3-.02h-.32c-.11,0-.21-.01-.31-.04-.11.05-.21.12-.28.2s-.11.17-.11.28c0,.07.02.13.05.19.03.06.09.11.16.15s.16.08.27.1c.11.03.24.04.39.04s.27-.01.39-.04.21-.06.29-.11c.08-.05.14-.11.18-.17s.06-.14.06-.22ZM16.68,337.01c.11,0,.2-.01.29-.04.08-.03.15-.07.21-.13.06-.05.1-.12.13-.19s.04-.16.04-.25c0-.19-.06-.33-.17-.44-.11-.11-.28-.17-.49-.17s-.38.05-.49.17c-.11.11-.17.26-.17.44,0,.09.01.17.04.25.03.08.07.14.13.19.06.05.12.1.21.13.08.03.18.04.28.04Z"/>
        <path d="M18.78,338.5v-3.04h.32c.08,0,.12.04.14.11l.04.33c.13-.15.28-.26.44-.35s.35-.13.57-.13c.17,0,.31.03.44.08.13.06.23.13.32.23.09.1.15.22.19.36.04.14.07.3.07.47v1.93h-.53v-1.93c0-.23-.05-.41-.16-.54-.1-.13-.27-.19-.48-.19-.16,0-.31.04-.44.11s-.26.18-.38.31v2.24h-.53Z"/>
      </g>
      <g>
        <path d="M38.71,297.5c.13,0,.26.01.37.04.12.03.22.07.31.13h.83v.2c0,.07-.04.11-.13.13l-.34.05c.07.13.1.27.1.43,0,.15-.03.28-.08.4-.06.12-.14.22-.24.31-.1.09-.22.15-.36.2-.14.05-.29.07-.46.07-.14,0-.28-.02-.4-.05-.06.04-.11.09-.15.13-.03.05-.05.09-.05.14,0,.07.03.13.09.17.06.04.13.07.23.08.1.02.21.03.33.03h.37c.13,0,.25.01.37.03s.23.06.33.11.17.12.23.21c.06.09.09.2.09.35,0,.13-.03.26-.1.38-.07.12-.16.23-.28.33-.12.1-.27.17-.45.23s-.38.09-.6.09-.42-.02-.58-.07c-.17-.04-.31-.1-.42-.18-.11-.07-.19-.16-.25-.26-.05-.1-.08-.2-.08-.3,0-.15.05-.28.14-.38.09-.11.22-.19.39-.25-.09-.04-.15-.09-.21-.16-.05-.07-.08-.16-.08-.27,0-.04,0-.09.02-.14.02-.05.04-.09.07-.14.03-.05.07-.09.12-.13.05-.04.1-.08.17-.11-.15-.08-.27-.2-.35-.33-.08-.14-.13-.3-.13-.49,0-.15.03-.28.09-.4s.14-.22.24-.31c.1-.08.22-.15.36-.2.14-.05.3-.07.46-.07ZM39.65,300.75c0-.08-.02-.14-.06-.19s-.1-.08-.17-.11c-.07-.03-.16-.04-.25-.06-.09-.01-.19-.02-.3-.02h-.32c-.11,0-.21-.01-.31-.04-.11.05-.21.12-.28.2s-.11.17-.11.28c0,.07.02.13.05.19.03.06.09.11.16.15s.16.08.27.1c.11.03.24.04.39.04s.27-.01.39-.04.21-.06.29-.11c.08-.05.14-.11.18-.17s.06-.14.06-.22ZM38.71,299.11c.11,0,.2-.01.29-.04.08-.03.15-.07.21-.13.06-.05.1-.12.13-.19s.04-.16.04-.25c0-.19-.06-.33-.17-.44-.11-.11-.28-.17-.49-.17s-.38.05-.49.17c-.11.11-.17.26-.17.44,0,.09.01.17.04.25.03.08.07.14.13.19.06.05.12.1.21.13.08.03.18.04.28.04Z"/>
        <path d="M43.04,300.59h-.24c-.05,0-.09,0-.13-.02-.03-.02-.05-.05-.06-.1l-.06-.28c-.08.07-.16.14-.23.19-.08.06-.16.11-.24.14s-.17.07-.27.09c-.09.02-.2.03-.32.03s-.23-.02-.33-.05c-.1-.03-.19-.08-.27-.15-.08-.07-.14-.15-.18-.25-.04-.1-.07-.22-.07-.36,0-.12.03-.24.1-.35s.17-.21.32-.3c.15-.09.34-.16.58-.21.24-.06.53-.08.87-.08v-.24c0-.24-.05-.42-.15-.54-.1-.12-.25-.18-.45-.18-.13,0-.24.02-.33.05s-.17.07-.23.11c-.06.04-.12.08-.17.11s-.09.05-.14.05c-.04,0-.07,0-.09-.03-.03-.02-.05-.04-.07-.07l-.1-.17c.17-.16.35-.28.54-.36.19-.08.41-.12.65-.12.17,0,.32.03.45.08.13.06.24.13.33.23.09.1.16.22.2.36.05.14.07.3.07.47v1.94ZM41.65,300.27c.09,0,.18,0,.26-.03s.15-.05.22-.08c.07-.04.13-.08.2-.13.06-.05.12-.11.18-.17v-.63c-.25,0-.45.02-.63.05-.17.03-.31.07-.42.12-.11.05-.19.11-.24.18s-.07.14-.07.23.01.15.04.21c.03.06.06.11.1.14.04.04.1.06.16.08.06.02.12.03.2.03Z"/>
        <path d="M44.83,300.64c-.24,0-.42-.07-.55-.2-.13-.13-.19-.33-.19-.58v-1.86h-.37s-.06,0-.08-.03c-.02-.02-.03-.05-.03-.09v-.21l.5-.06.12-.94s.02-.05.04-.07c.02-.02.05-.03.08-.03h.27v1.05h.87v.39h-.87v1.82c0,.13.03.22.09.28.06.06.14.09.24.09.06,0,.1,0,.15-.02.04-.02.08-.03.11-.05.03-.02.05-.03.08-.05.02-.01.04-.02.06-.02.03,0,.05.02.08.05l.16.26c-.09.09-.2.15-.33.2s-.26.07-.4.07Z"/>
        <path d="M47.41,297.51c.18,0,.35.03.5.09.15.06.29.15.4.26s.2.26.26.43c.06.17.09.36.09.58,0,.08,0,.14-.03.17-.02.03-.05.04-.1.04h-2.02c0,.19.03.36.08.5.05.14.11.26.2.36.08.09.18.17.3.21s.25.07.39.07c.13,0,.25-.02.35-.05.1-.03.18-.06.25-.1.07-.04.13-.07.17-.1.05-.03.09-.05.12-.05.04,0,.08.02.1.05l.15.2c-.07.08-.15.15-.24.21-.09.06-.19.11-.3.15-.1.04-.21.07-.33.09-.11.02-.22.03-.33.03-.21,0-.4-.04-.58-.11-.18-.07-.33-.17-.46-.31-.13-.14-.23-.31-.3-.51s-.11-.43-.11-.7c0-.21.03-.41.1-.59.07-.18.16-.34.28-.48s.27-.24.45-.32.37-.12.59-.12ZM47.42,297.9c-.26,0-.46.08-.61.22-.15.15-.24.36-.28.62h1.65c0-.12-.02-.24-.05-.34-.03-.1-.08-.19-.15-.27-.07-.07-.15-.13-.24-.17s-.2-.06-.33-.06Z"/>
      </g>
      <g>
        <path d="M10.88,298.09s-.03.04-.05.05c-.02.01-.04.02-.07.02s-.06-.01-.1-.04c-.04-.02-.08-.05-.13-.08s-.12-.06-.2-.08c-.08-.02-.17-.04-.28-.04-.15,0-.28.03-.39.08-.11.05-.21.13-.29.23-.08.1-.14.22-.17.36s-.06.3-.06.48c0,.18.02.35.06.49.04.14.1.26.18.36.08.1.17.17.28.22.11.05.23.08.37.08s.24-.02.32-.05c.08-.03.15-.07.21-.1.06-.04.1-.07.14-.1.04-.03.07-.05.11-.05.05,0,.08.02.1.05l.15.2c-.13.16-.3.28-.49.36-.2.08-.41.11-.63.11-.19,0-.37-.04-.53-.11-.16-.07-.3-.17-.42-.3-.12-.13-.21-.3-.28-.49-.07-.19-.1-.42-.1-.66,0-.23.03-.43.09-.63.06-.19.16-.36.28-.5s.27-.25.45-.33.38-.12.61-.12c.21,0,.4.03.56.1s.31.17.44.29l-.14.19Z"/>
        <path d="M12.26,296.17v4.42h-.53v-4.42h.53Z"/>
        <path d="M14.5,297.51c.22,0,.42.04.6.11.18.07.33.18.46.31s.22.3.29.49c.07.19.1.41.1.65s-.03.46-.1.65c-.07.19-.16.36-.29.49s-.28.24-.46.31-.38.11-.6.11-.42-.04-.6-.11-.33-.18-.46-.31-.22-.3-.29-.49c-.07-.19-.1-.41-.1-.65s.03-.45.1-.65c.07-.19.17-.36.29-.49s.28-.24.46-.31c.18-.07.38-.11.6-.11ZM14.5,300.22c.3,0,.52-.1.67-.3.15-.2.22-.48.22-.84s-.07-.64-.22-.85c-.15-.2-.37-.3-.67-.3-.15,0-.28.03-.4.08-.11.05-.21.13-.28.22-.08.1-.13.22-.17.36-.04.14-.06.3-.06.49s.02.34.06.48c.04.14.09.26.17.36.08.1.17.17.28.22.11.05.24.08.4.08Z"/>
        <path d="M18.73,298.09s-.03.04-.05.05c-.02.01-.04.02-.07.02s-.06-.01-.1-.04c-.04-.02-.08-.05-.13-.08s-.12-.06-.2-.08c-.08-.02-.17-.04-.28-.04-.15,0-.28.03-.39.08-.11.05-.21.13-.29.23-.08.1-.14.22-.17.36s-.06.3-.06.48c0,.18.02.35.06.49.04.14.1.26.18.36.08.1.17.17.28.22.11.05.23.08.37.08s.24-.02.32-.05c.08-.03.15-.07.21-.1.06-.04.1-.07.14-.1.04-.03.07-.05.11-.05.05,0,.08.02.1.05l.15.2c-.13.16-.3.28-.49.36-.2.08-.41.11-.63.11-.19,0-.37-.04-.53-.11-.16-.07-.3-.17-.42-.3-.12-.13-.21-.3-.28-.49-.07-.19-.1-.42-.1-.66,0-.23.03-.43.09-.63.06-.19.16-.36.28-.5s.27-.25.45-.33.38-.12.61-.12c.21,0,.4.03.56.1s.31.17.44.29l-.14.19Z"/>
        <path d="M20.08,296.17v2.6h.14s.07,0,.1-.02c.03-.01.05-.03.09-.07l.96-1.03s.06-.06.09-.08c.03-.02.07-.03.12-.03h.49l-1.12,1.19s-.05.06-.08.09c-.03.03-.06.05-.09.07.04.02.07.05.1.08s.06.07.08.11l1.19,1.5h-.48s-.08,0-.11-.03c-.03-.02-.06-.04-.09-.08l-1-1.24s-.06-.07-.09-.08c-.03-.01-.08-.02-.14-.02h-.15v1.45h-.54v-4.42h.54Z"/>
      </g>
      <g>
        <path d="M4.8,61.81v-3.03h.32c.08,0,.12.04.14.11l.04.31c.11-.14.24-.25.38-.34.14-.09.3-.13.48-.13.21,0,.37.06.5.17.13.11.22.27.27.46.04-.11.1-.2.17-.28s.15-.15.23-.2c.09-.05.18-.09.27-.11s.19-.04.29-.04c.16,0,.3.03.43.08s.23.12.32.22c.09.1.15.22.2.36.05.14.07.31.07.49v1.93h-.53v-1.93c0-.24-.05-.42-.16-.54-.1-.12-.25-.18-.45-.18-.09,0-.17.02-.25.05s-.15.08-.21.14-.11.14-.14.23c-.03.09-.05.2-.05.32v1.93h-.53v-1.93c0-.24-.05-.42-.15-.54s-.24-.18-.43-.18c-.13,0-.25.04-.37.11-.11.07-.22.17-.31.29v2.26h-.53Z"/>
        <path d="M10.99,58.73c.22,0,.42.04.6.11s.33.18.45.31c.12.14.22.3.29.49.07.19.1.41.1.64s-.03.45-.1.65c-.07.19-.16.35-.29.49-.12.14-.28.24-.45.31s-.38.11-.6.11-.42-.04-.6-.11c-.18-.07-.33-.18-.46-.31-.13-.14-.22-.3-.29-.49-.07-.19-.1-.41-.1-.65s.03-.45.1-.64c.07-.19.16-.36.29-.49.13-.14.28-.24.46-.31.18-.07.38-.11.6-.11ZM10.99,61.43c.3,0,.52-.1.67-.3s.22-.48.22-.84-.07-.64-.22-.84-.37-.3-.67-.3c-.15,0-.28.03-.39.08-.11.05-.21.13-.28.22s-.13.22-.17.36c-.04.14-.06.3-.06.48s.02.34.06.48c.04.14.09.26.17.36s.17.17.28.22c.11.05.24.08.39.08Z"/>
        <path d="M15.28,61.81c-.08,0-.12-.04-.14-.11l-.05-.37c-.13.16-.28.28-.44.38-.17.09-.36.14-.57.14-.17,0-.33-.03-.47-.1-.14-.07-.26-.17-.36-.29s-.18-.29-.23-.48c-.05-.19-.08-.42-.08-.67,0-.22.03-.43.09-.62.06-.19.15-.36.26-.5.11-.14.25-.25.41-.33.16-.08.34-.12.55-.12.19,0,.34.03.48.09.13.06.25.15.35.26v-1.68h.53v4.4h-.32ZM14.25,61.42c.17,0,.33-.04.46-.12.13-.08.25-.19.36-.34v-1.46c-.1-.13-.2-.22-.32-.28s-.25-.08-.39-.08c-.28,0-.5.1-.65.3s-.23.49-.23.86c0,.2.02.37.05.51.03.14.08.26.15.35.07.09.15.16.24.2s.21.06.33.06Z"/>
        <path d="M17.75,58.73c.18,0,.35.03.5.09.15.06.29.15.4.26.11.11.2.26.26.42.06.17.09.36.09.58,0,.08,0,.14-.03.17-.02.03-.05.04-.1.04h-2.01c0,.19.03.36.08.5.05.14.11.26.2.35.08.09.18.17.3.21.12.05.25.07.39.07.13,0,.25-.02.35-.05s.18-.06.25-.1c.07-.04.13-.07.17-.1s.09-.05.12-.05c.04,0,.08.02.1.05l.15.19c-.07.08-.14.15-.24.21-.09.06-.19.11-.29.15-.1.04-.21.07-.32.09-.11.02-.22.03-.33.03-.21,0-.4-.04-.58-.11-.18-.07-.33-.17-.46-.31s-.23-.31-.3-.51-.11-.43-.11-.69c0-.21.03-.41.1-.59.06-.18.16-.34.28-.48.12-.13.27-.24.45-.32s.37-.12.59-.12ZM17.76,59.12c-.26,0-.46.07-.61.22-.15.15-.24.35-.27.62h1.65c0-.12-.02-.24-.05-.34-.03-.1-.08-.19-.15-.27-.07-.07-.15-.13-.24-.17-.09-.04-.2-.06-.32-.06Z"/>
      </g>
    </g>
    <g id="Graphics">
      <path d="M10.22,70.19c.91,0,1.84.24,2.68.75,2.45,1.48,3.23,4.67,1.75,7.12-.97,1.61-2.68,2.5-4.44,2.5-.91,0-1.84-.24-2.68-.75-2.45-1.48-3.23-4.67-1.75-7.12.97-1.61,2.68-2.5,4.44-2.5M10.22,69.89h0c-1.94,0-3.69.99-4.69,2.64-1.57,2.59-.74,5.96,1.85,7.53.86.52,1.84.79,2.83.79,1.94,0,3.69-.99,4.69-2.64,1.57-2.59.74-5.96-1.85-7.53-.86-.52-1.84-.79-2.83-.79h0Z" style="fill: #181718;"/>
      <g>
        <path d="M14.71,78.33c-.64,1.41-2.74,2.34-1.78,4.01.06.1-.25.16-.28.12-.75-1.11-.88-1.31-2.95-1.62-.34-.05-.31-.13-.31-.17-.03-.16,2.14.13,3.61-.83,0,0,.84-.63.84-.63l.74-.92s.19-.1.13.05Z"/>
        <path d="M12.74,82.31c2.37,4.05,7.37,6.58,13.34,7.35" style="fill: none; stroke: #231f20; stroke-miterlimit: 10; stroke-width: .3px;"/>
      </g>
      <path d="M10.22,118.28c.91,0,1.84.24,2.68.75,2.45,1.48,3.23,4.67,1.75,7.12-.97,1.61-2.68,2.5-4.44,2.5-.91,0-1.84-.24-2.68-.75-2.45-1.48-3.23-4.67-1.75-7.12.97-1.61,2.68-2.5,4.44-2.5M10.22,117.98c-1.94,0-3.69.99-4.69,2.64-.76,1.25-.98,2.73-.63,4.15.35,1.42,1.23,2.62,2.48,3.38.86.52,1.84.79,2.83.79,1.94,0,3.69-.99,4.69-2.64.76-1.25.98-2.73.63-4.15-.35-1.42-1.23-2.62-2.48-3.38-.86-.52-1.84-.79-2.83-.79h0Z" style="fill: #181718;"/>
      <g>
        <path d="M14.71,126.41c-.64,1.41-2.74,2.34-1.78,4.01.06.1-.25.16-.28.12-.75-1.11-.88-1.31-2.95-1.62-.34-.05-.31-.13-.31-.17-.03-.16,2.14.13,3.61-.83,0,0,.84-.63.84-.63l.74-.92s.19-.1.13.05Z"/>
        <path d="M12.74,130.39c2.37,4.05,7.37,6.58,13.34,7.35" style="fill: none; stroke: #231f20; stroke-miterlimit: 10; stroke-width: .3px;"/>
      </g>
      <path d="M10.22,165.17c.91,0,1.84.24,2.68.75,2.45,1.48,3.23,4.67,1.75,7.12-.97,1.61-2.68,2.5-4.44,2.5-.91,0-1.84-.24-2.68-.75-2.45-1.48-3.23-4.67-1.75-7.12.97-1.61,2.68-2.5,4.44-2.5M10.22,164.87c-1.94,0-3.69.99-4.69,2.64-.76,1.25-.98,2.73-.63,4.15s1.23,2.62,2.48,3.38c.86.52,1.84.79,2.83.79,1.94,0,3.69-.99,4.69-2.64.76-1.25.98-2.73.63-4.15s-1.23-2.62-2.48-3.38c-.86-.52-1.84-.79-2.83-.79h0Z" style="fill: #181718;"/>
      <g>
        <path d="M14.71,173.3c-.64,1.41-2.74,2.34-1.78,4.01.06.1-.25.16-.28.12-.75-1.11-.88-1.31-2.95-1.62-.34-.05-.31-.13-.31-.17-.03-.16,2.14.13,3.61-.83,0,0,.84-.63.84-.63l.74-.92s.19-.1.13.05Z"/>
        <path d="M12.74,177.28c2.37,4.05,7.37,6.58,13.34,7.35" style="fill: none; stroke: #231f20; stroke-miterlimit: 10; stroke-width: .3px;"/>
      </g>
      <path d="M10.22,213.27c.91,0,1.84.24,2.68.75,2.45,1.48,3.23,4.67,1.75,7.12-.97,1.61-2.68,2.5-4.44,2.5-.91,0-1.84-.24-2.68-.75-2.45-1.48-3.23-4.67-1.75-7.12.97-1.61,2.68-2.5,4.44-2.5M10.22,212.97c-1.94,0-3.69.99-4.69,2.64-1.57,2.59-.74,5.96,1.85,7.53.86.52,1.84.79,2.83.79,1.94,0,3.69-.99,4.69-2.64,1.57-2.59.74-5.96-1.85-7.53-.86-.52-1.84-.79-2.83-.79h0Z" style="fill: #181718;"/>
      <g>
        <path d="M14.71,221.4c-.64,1.41-2.74,2.34-1.78,4.01.06.1-.25.16-.28.12-.75-1.11-.88-1.31-2.95-1.62-.34-.05-.31-.13-.31-.17-.03-.16,2.14.13,3.61-.83,0,0,.84-.63.84-.63l.74-.92s.19-.1.13.05Z"/>
        <path d="M12.74,225.38c2.37,4.05,7.37,6.58,13.34,7.35" style="fill: none; stroke: #231f20; stroke-miterlimit: 10; stroke-width: .3px;"/>
      </g>
      <path d="M11.28,30.38c.91,0,1.84.24,2.68.75,2.45,1.48,3.23,4.67,1.75,7.12-.97,1.61-2.68,2.5-4.44,2.5-.91,0-1.84-.24-2.68-.75-2.45-1.48-3.23-4.67-1.75-7.12.97-1.61,2.68-2.5,4.44-2.5M11.28,30.08c-1.94,0-3.69.99-4.69,2.64-.76,1.25-.98,2.73-.63,4.15.35,1.42,1.23,2.62,2.48,3.38.86.52,1.84.79,2.83.79,1.94,0,3.69-.99,4.69-2.64,1.57-2.59.74-5.96-1.85-7.53-.86-.52-1.84-.79-2.83-.79h0Z"/>
      <path d="M14.54,39.97c-1.17.91-3.07,1.11-3.06,3.17,0,.11-.3.15-.3.04-.05-1.38-.43-1.7-1.98-2.5-.31-.16-.66-.38-.62-.37.16.05,2.13.94,3.84.53,0,0,1-.31,1.01-.31l1.01-.62s.23-.05.11.05Z"/>
      <path d="M43.09,269.79c6.38,0,11.55,5.17,11.55,11.55s-5.17,11.55-11.55,11.55-11.55-5.17-11.55-11.55,5.17-11.55,11.55-11.55M43.09,269.49c-6.53,0-11.85,5.31-11.85,11.85s5.31,11.85,11.85,11.85,11.85-5.31,11.85-11.85-5.31-11.85-11.85-11.85h0Z"/>
      <g id="dot_circle_right" data-name="dot circle right">
        <g>
          <circle cx="55.61" cy="283.76" r=".37"/>
          <circle cx="53.68" cy="288.35" r=".37"/>
          <circle cx="50.22" cy="291.91" r=".37"/>
          <circle cx="45.58" cy="293.84" r=".37"/>
          <circle cx="40.64" cy="293.87" r=".37"/>
          <circle cx="36.05" cy="292.02" r=".37"/>
          <circle cx="55.6" cy="278.83" r=".37"/>
          <circle cx="53.74" cy="274.22" r=".37"/>
          <circle cx="50.3" cy="270.78" r=".37"/>
          <circle cx="45.71" cy="268.74" r=".37"/>
          <circle cx="54.91" cy="286.14" r=".37"/>
          <circle cx="52.13" cy="290.31" r=".37"/>
          <circle cx="48" cy="293.1" r=".37"/>
          <circle cx="43.14" cy="294.09" r=".37"/>
          <circle cx="38.26" cy="293.18" r=".37"/>
          <circle cx="55.79" cy="281.22" r=".37"/>
          <circle cx="54.9" cy="276.43" r=".37"/>
          <circle cx="52.18" cy="272.28" r=".37"/>
        </g>
        <g>
          <circle cx="36.05" cy="270.78" r=".37"/>
          <circle cx="32.55" cy="274.35" r=".37"/>
          <circle cx="30.64" cy="278.94" r=".37"/>
          <circle cx="30.62" cy="283.9" r=".37"/>
          <circle cx="32.51" cy="288.48" r=".37"/>
          <circle cx="40.64" cy="268.86" r=".37"/>
          <circle cx="34.12" cy="272.37" r=".37"/>
          <circle cx="31.38" cy="276.57" r=".37"/>
          <circle cx="30.38" cy="281.4" r=".37"/>
          <circle cx="31.35" cy="286.26" r=".37"/>
          <circle cx="34.08" cy="290.43" r=".37"/>
          <circle cx="38.26" cy="269.56" r=".37"/>
          <circle cx="43.11" cy="268.59" r=".37"/>
          <circle cx="48" cy="269.53" r=".37"/>
        </g>
      </g>
      <path d="M15.31,269.79c6.38,0,11.55,5.17,11.55,11.55s-5.17,11.55-11.55,11.55-11.55-5.17-11.55-11.55,5.17-11.55,11.55-11.55M15.31,269.49c-6.53,0-11.85,5.31-11.85,11.85s5.31,11.85,11.85,11.85,11.85-5.31,11.85-11.85-5.31-11.85-11.85-11.85h0Z"/>
      <g id="dot_circle_right-2" data-name="dot circle right">
        <g>
          <circle cx="27.83" cy="283.76" r=".37"/>
          <circle cx="25.91" cy="288.35" r=".37"/>
          <circle cx="22.44" cy="291.91" r=".37"/>
          <circle cx="17.8" cy="293.84" r=".37"/>
          <circle cx="12.86" cy="293.87" r=".37"/>
          <circle cx="8.27" cy="292.02" r=".37"/>
          <circle cx="27.82" cy="278.83" r=".37"/>
          <circle cx="25.96" cy="274.22" r=".37"/>
          <circle cx="22.52" cy="270.78" r=".37"/>
          <circle cx="17.93" cy="268.74" r=".37"/>
          <circle cx="27.13" cy="286.14" r=".37"/>
          <circle cx="24.35" cy="290.31" r=".37"/>
          <circle cx="20.22" cy="293.1" r=".37"/>
          <circle cx="15.36" cy="294.09" r=".37"/>
          <circle cx="10.48" cy="293.18" r=".37"/>
          <circle cx="28.01" cy="281.22" r=".37"/>
          <circle cx="27.12" cy="276.43" r=".37"/>
          <circle cx="24.4" cy="272.28" r=".37"/>
        </g>
        <g>
          <circle cx="8.27" cy="270.78" r=".37"/>
          <circle cx="4.78" cy="274.35" r=".37"/>
          <circle cx="2.86" cy="278.94" r=".37"/>
          <circle cx="2.84" cy="283.9" r=".37"/>
          <circle cx="4.73" cy="288.48" r=".37"/>
          <circle cx="12.86" cy="268.86" r=".37"/>
          <circle cx="6.34" cy="272.37" r=".37"/>
          <circle cx="3.6" cy="276.57" r=".37"/>
          <circle cx="2.6" cy="281.4" r=".37"/>
          <circle cx="3.57" cy="286.26" r=".37"/>
          <circle cx="6.3" cy="290.43" r=".37"/>
          <circle cx="10.48" cy="269.56" r=".37"/>
          <circle cx="15.33" cy="268.59" r=".37"/>
          <circle cx="20.22" cy="269.53" r=".37"/>
        </g>
      </g>
      <path d="M15.31,306.68c6.38,0,11.55,5.17,11.55,11.55s-5.17,11.55-11.55,11.55-11.55-5.17-11.55-11.55,5.17-11.55,11.55-11.55M15.31,306.38c-6.53,0-11.85,5.31-11.85,11.85s5.31,11.85,11.85,11.85,11.85-5.31,11.85-11.85-5.31-11.85-11.85-11.85h0Z"/>
      <g id="dot_circle_right-3" data-name="dot circle right">
        <g>
          <circle cx="27.83" cy="320.65" r=".37"/>
          <circle cx="25.91" cy="325.23" r=".37"/>
          <circle cx="22.44" cy="328.79" r=".37"/>
          <circle cx="17.8" cy="330.72" r=".37"/>
          <circle cx="12.86" cy="330.75" r=".37"/>
          <circle cx="8.27" cy="328.9" r=".37"/>
          <circle cx="27.82" cy="315.72" r=".37"/>
          <circle cx="25.96" cy="311.11" r=".37"/>
          <circle cx="22.52" cy="307.67" r=".37"/>
          <circle cx="17.93" cy="305.62" r=".37"/>
          <circle cx="27.13" cy="323.02" r=".37"/>
          <circle cx="24.35" cy="327.19" r=".37"/>
          <circle cx="20.22" cy="329.98" r=".37"/>
          <circle cx="15.36" cy="330.97" r=".37"/>
          <circle cx="10.48" cy="330.07" r=".37"/>
          <circle cx="28.01" cy="318.1" r=".37"/>
          <circle cx="27.12" cy="313.32" r=".37"/>
          <circle cx="24.4" cy="309.16" r=".37"/>
        </g>
        <g>
          <circle cx="8.27" cy="307.67" r=".37"/>
          <circle cx="4.78" cy="311.24" r=".37"/>
          <circle cx="2.86" cy="315.82" r=".37"/>
          <circle cx="2.84" cy="320.79" r=".37"/>
          <circle cx="4.73" cy="325.36" r=".37"/>
          <circle cx="12.86" cy="305.75" r=".37"/>
          <circle cx="6.34" cy="309.25" r=".37"/>
          <circle cx="3.6" cy="313.45" r=".37"/>
          <circle cx="2.6" cy="318.29" r=".37"/>
          <circle cx="3.57" cy="323.15" r=".37"/>
          <circle cx="6.3" cy="327.32" r=".37"/>
          <circle cx="10.48" cy="306.45" r=".37"/>
          <circle cx="15.33" cy="305.47" r=".37"/>
          <circle cx="20.22" cy="306.41" r=".37"/>
        </g>
      </g>
      <path d="M11.33,41.73v4.97-4.97Z" style="fill: none; stroke: #231f20; stroke-miterlimit: 10; stroke-width: .3px;"/>
      <path d="M43.09,306.64c6.38,0,11.55,5.17,11.55,11.55s-5.17,11.55-11.55,11.55-11.55-5.17-11.55-11.55,5.17-11.55,11.55-11.55M43.09,306.34c-6.53,0-11.85,5.31-11.85,11.85s5.31,11.85,11.85,11.85,11.85-5.31,11.85-11.85-5.31-11.85-11.85-11.85h0Z"/>
      <g id="shapes">
        <rect x="29.5" y="62.54" width="5.95" height="5.95" rx=".34" ry=".34" transform="translate(-33.03 97.99) rotate(-90)" style="fill: none; stroke: #231f20; stroke-miterlimit: 10; stroke-width: .3px;"/>
        <g>
          <path d="M40.82,53.77c-.91-1.17-1.11-3.07-3.17-3.06-.11,0-.15-.3-.04-.3,1.38-.05,1.7-.43,2.5-1.98.16-.31.38-.66.37-.62-.05.16-.94,2.13-.53,3.84,0,0,.31,1,.31,1.01l.62,1.01s.05.23-.05.11Z"/>
          <path d="M42.36,55.67c.99,1.04,3.12,1.27,2.28,3.37-.05.13.25.16.3.06.39-.75.77-1.74,2.49-2.01.5-.08.77-.38.73-.37-.17,0-2.24.67-3.8-.15,0,0-.91-.38-.91-.38l-.82-.57s-.38-.06-.27.05Z"/>
          <path d="M42.41,45.4c1-1.03,3.13-1.2,2.32-3.31-.05-.13.23-.2.28-.1.38.75.77,1.76,2.49,2.05.5.08.76.38.72.38-.17,0-2.23-.69-3.8.11,0,0-.92.37-.92.37l-.82.56s-.38.06-.27-.06Z"/>
        </g>
        <path d="M45.49,57.56c-1.68,4.32-5.49,7.47-10.04,7.98" style="fill: none; stroke: #231f20; stroke-miterlimit: 10; stroke-width: .3px;"/>
        <path d="M34.13,35.35h0c5.03,0,9.36,3.21,11.26,7.81" style="fill: none; stroke: #231f20; stroke-miterlimit: 10; stroke-width: .3px;"/>
        <path d="M39.11,50.55h-3.58,3.58Z" style="fill: none; stroke: #231f20; stroke-miterlimit: 10; stroke-width: .3px;"/>
        <path d="M46.42,44.25c3.48,0,6.31,2.82,6.31,6.31s-2.82,6.31-6.31,6.31-6.31-2.82-6.31-6.31,2.82-6.31,6.31-6.31M46.42,43.95c-3.64,0-6.61,2.96-6.61,6.61s2.96,6.61,6.61,6.61,6.61-2.96,6.61-6.61-2.96-6.61-6.61-6.61h0Z"/>
        <path d="M32.18,32.66l-2.99,5.99c-.11.23.05.49.3.49h5.99c.25,0,.42-.27.3-.49l-2.99-5.99c-.13-.25-.48-.25-.61,0Z" style="fill: none; stroke: #231f20; stroke-miterlimit: 10; stroke-width: .3px;"/>
        <path d="M32.27,47.33l-2.97,2.26c-.11.09-.16.23-.12.37l1.14,3.67c.04.14.18.24.32.24h3.66c.15,0,.28-.1.32-.24l1.14-3.67c.04-.14,0-.28-.12-.37l-2.97-2.26c-.12-.09-.29-.09-.41,0Z" style="fill: none; stroke: #231f20; stroke-miterlimit: 10; stroke-width: .3px;"/>
      </g>
    </g>
    <g id="speckles">
      <line x1="31.55" y1="312.4" x2="31.74" y2="312.79" style="fill: none; stroke: #000; stroke-linecap: round; stroke-miterlimit: 10; stroke-width: .3px;"/>
      <line x1="35.48" y1="305.54" x2="35.21" y2="305.99" style="fill: none; stroke: #000; stroke-linecap: round; stroke-miterlimit: 10; stroke-width: .3px;"/>
      <line x1="32.12" y1="308.94" x2="31.73" y2="308.58" style="fill: none; stroke: #000; stroke-linecap: round; stroke-miterlimit: 10; stroke-width: .3px;"/>
      <line x1="41.59" y1="304.99" x2="41.19" y2="305.16" style="fill: none; stroke: #000; stroke-linecap: round; stroke-miterlimit: 10; stroke-width: .3px;"/>
      <line x1="55.3" y1="312.78" x2="54.95" y2="312.54" style="fill: none; stroke: #000; stroke-linecap: round; stroke-miterlimit: 10; stroke-width: .3px;"/>
      <line x1="31.7" y1="329.54" x2="31.3" y2="329.87" style="fill: none; stroke: #000; stroke-linecap: round; stroke-miterlimit: 10; stroke-width: .3px;"/>
      <line x1="55.7" y1="325.1" x2="55.32" y2="324.85" style="fill: none; stroke: #000; stroke-linecap: round; stroke-miterlimit: 10; stroke-width: .3px;"/>
      <line x1="53.79" y1="306.78" x2="54.12" y2="306.51" style="fill: none; stroke: #000; stroke-linecap: round; stroke-miterlimit: 10; stroke-width: .3px;"/>
      <line x1="56.72" y1="306.85" x2="57.04" y2="306.58" style="fill: none; stroke: #000; stroke-linecap: round; stroke-miterlimit: 10; stroke-width: .3px;"/>
      <line x1="50.47" y1="305.06" x2="50.47" y2="305.5" style="fill: none; stroke: #000; stroke-linecap: round; stroke-miterlimit: 10; stroke-width: .3px;"/>
      <line x1="50.3" y1="330.99" x2="50.02" y2="331.36" style="fill: none; stroke: #000; stroke-linecap: round; stroke-miterlimit: 10; stroke-width: .3px;"/>
      <line x1="53.14" y1="330.53" x2="53.41" y2="330.84" style="fill: none; stroke: #000; stroke-linecap: round; stroke-miterlimit: 10; stroke-width: .3px;"/>
      <line x1="44.18" y1="331.09" x2="44.44" y2="331.48" style="fill: none; stroke: #000; stroke-linecap: round; stroke-miterlimit: 10; stroke-width: .3px;"/>
      <line x1="30.83" y1="320.97" x2="30.32" y2="321.31" style="fill: none; stroke: #000; stroke-linecap: round; stroke-miterlimit: 10; stroke-width: .3px;"/>
      <line x1="29.51" y1="326.29" x2="29" y2="326.63" style="fill: none; stroke: #000; stroke-linecap: round; stroke-miterlimit: 10; stroke-width: .3px;"/>
      <line x1="35.92" y1="328.45" x2="35.52" y2="328.11" style="fill: none; stroke: #000; stroke-linecap: round; stroke-miterlimit: 10; stroke-width: .3px;"/>
      <circle cx="37.67" cy="306.75" r=".25"/>
      <circle cx="47.01" cy="305.1" r=".25"/>
      <circle cx="31.37" cy="323.22" r=".25"/>
      <circle cx="35.79" cy="307.17" r=".25"/>
      <circle cx="50.09" cy="328.3" r=".25"/>
      <circle cx="32.09" cy="325.48" r=".25"/>
      <circle cx="37.45" cy="330.03" r=".25"/>
      <circle cx="52.41" cy="328.94" r=".25"/>
      <circle cx="55.49" cy="320.97" r=".25"/>
      <circle cx="55.09" cy="310.31" r=".25"/>
      <circle cx="52.35" cy="309.14" r=".25"/>
      <circle cx="56.07" cy="308.65" r=".25"/>
      <circle cx="56.98" cy="314.17" r=".25"/>
      <circle cx="34.66" cy="330.14" r=".25"/>
      <circle cx="33.91" cy="328.27" r=".25"/>
      <circle cx="31.06" cy="326.5" r=".14"/>
      <circle cx="33.2" cy="329.67" r=".14"/>
      <circle cx="32.27" cy="327.77" r=".14"/>
      <circle cx="36.05" cy="329.91" r=".14"/>
      <circle cx="34.24" cy="331.73" r=".14"/>
      <circle cx="37.71" cy="331.54" r=".14"/>
      <circle cx="38.86" cy="329.75" r=".14"/>
      <circle cx="40.59" cy="331.48" r=".14"/>
      <circle cx="43.14" cy="330.49" r=".14"/>
      <circle cx="47.32" cy="330.01" r=".14"/>
      <circle cx="47.9" cy="332.12" r=".14"/>
      <circle cx="50.63" cy="329.44" r=".14"/>
      <circle cx="51.91" cy="331.32" r=".14"/>
      <circle cx="55.58" cy="330.12" r=".14"/>
      <circle cx="56.48" cy="331.59" r=".14"/>
      <circle cx="55.81" cy="328.21" r=".14"/>
      <circle cx="52.32" cy="327.06" r=".14"/>
      <circle cx="54.23" cy="323.83" r=".14"/>
      <circle cx="55.52" cy="322.4" r=".14"/>
      <circle cx="56.39" cy="319.65" r=".14"/>
      <circle cx="56.46" cy="316.83" r=".14"/>
      <circle cx="55.05" cy="314.45" r=".14"/>
      <circle cx="56.37" cy="313.01" r=".14"/>
      <circle cx="56.27" cy="309.87" r=".14"/>
      <circle cx="53.92" cy="311.8" r=".14"/>
      <circle cx="53.44" cy="310.26" r=".14"/>
      <circle cx="55.34" cy="307.43" r=".14"/>
      <circle cx="56.5" cy="304.82" r=".14"/>
      <circle cx="54.18" cy="305.34" r=".14"/>
      <circle cx="51.74" cy="306.15" r=".14"/>
      <circle cx="48.63" cy="304.69" r=".14"/>
      <circle cx="47.03" cy="306.22" r=".14"/>
      <circle cx="49.53" cy="306.94" r=".14"/>
      <circle cx="45.05" cy="305.5" r=".14"/>
      <circle cx="40.26" cy="306.07" r=".14"/>
      <circle cx="40.21" cy="304.3" r=".14"/>
      <circle cx="37.45" cy="305.77" r=".14"/>
      <circle cx="34.4" cy="304.76" r=".14"/>
      <circle cx="34.33" cy="307.89" r=".14"/>
      <circle cx="32.2" cy="307.11" r=".14"/>
      <circle cx="31.25" cy="305.32" r=".14"/>
      <circle cx="29.7" cy="308.31" r=".14"/>
      <circle cx="32.93" cy="310.14" r=".14"/>
      <circle cx="30.08" cy="311.08" r=".14"/>
      <circle cx="30.34" cy="313.75" r=".14"/>
      <circle cx="30.57" cy="316.55" r=".14"/>
      <circle cx="29.95" cy="319.6" r=".14"/>
      <circle cx="30.07" cy="323.27" r=".14"/>
      <circle cx="29.68" cy="329.95" r=".14"/>
      <circle cx="33.46" cy="326.74" r=".14"/>
      <circle cx="30.22" cy="331.36" r=".25"/>
      <circle cx="30.46" cy="324.98" r=".25"/>
      <circle cx="36.07" cy="331.24" r=".25"/>
      <circle cx="30.09" cy="317.87" r=".25"/>
      <circle cx="54.15" cy="329.49" r=".25"/>
      <circle cx="56.36" cy="326.5" r=".25"/>
      <circle cx="54.2" cy="327.79" r=".25"/>
      <circle cx="55.59" cy="305.96" r=".25"/>
      <circle cx="48.63" cy="305.95" r=".25"/>
      <circle cx="43.03" cy="305.52" r=".25"/>
      <circle cx="37.21" cy="304.68" r=".25"/>
      <circle cx="29.76" cy="315.56" r=".25"/>
      <circle cx="29.62" cy="312.71" r=".25"/>
      <circle cx="34.03" cy="309.24" r=".25"/>
      <circle cx="30.46" cy="306.84" r=".25"/>
      <circle cx="33.38" cy="306.5" r=".25"/>
      <circle cx="30.53" cy="309.61" r=".25"/>
      <circle cx="39.22" cy="305.44" r=".25"/>
      <circle cx="45.03" cy="304.35" r=".25"/>
      <circle cx="52.61" cy="307.57" r=".25"/>
      <circle cx="55.17" cy="304.36" r=".25"/>
      <circle cx="29.69" cy="305.84" r=".25"/>
      <circle cx="46.27" cy="331.31" r=".31"/>
      <circle cx="32.47" cy="331.03" r=".31"/>
      <circle cx="41.92" cy="330.93" r=".33"/>
      <circle cx="54.67" cy="331.52" r=".3"/>
      <circle cx="29.22" cy="322" r=".32"/>
      <circle cx="30.46" cy="328.02" r=".3"/>
      <circle cx="31.04" cy="314.69" r=".32"/>
      <circle cx="32.92" cy="304.96" r=".29"/>
      <circle cx="53.9" cy="325.78" r=".32"/>
      <circle cx="55.8" cy="318.15" r=".31"/>
      <circle cx="56.31" cy="311.49" r=".3"/>
      <circle cx="45.35" cy="306.49" r=".31"/>
      <circle cx="50.68" cy="307.88" r=".34"/>
      <circle cx="31.64" cy="310.96" r=".3"/>
      <circle cx="52.56" cy="304.92" r=".31"/>
      <circle cx="54.27" cy="308.75" r=".32"/>
      <circle cx="55.63" cy="315.59" r=".29"/>
      <circle cx="56.46" cy="323.55" r=".3"/>
      <circle cx="56.92" cy="329.1" r=".3"/>
      <circle cx="48.85" cy="330.53" r=".31"/>
      <circle cx="39.19" cy="331.22" r=".28"/>
      <circle cx="30.49" cy="304.31" r=".32"/>
      <path d="M57.04,304.24v27.91h-27.91v-27.91h27.91M57.34,303.94h-28.51v28.51h28.51v-28.51h0Z"/>
    </g>
    <g id="music_notes" data-name="music notes">
      <path d="M6.62,151.48s-1.23,1.21-.18,2.15c1.11.99,4.08-.2,4.6-1.89.49-1.56.24-5.73.24-6.33s-.05-1.99,1.02-1.69,1.8,2.21,1.78,3.29c-.01.78-.25,1.21-.12,1.24s.51-.78.44-1.87-.48-2.14-1.51-2.95-1.46-1.41-1.65-2.43-.25-1.38-.42-1.05c-.38.75.25,8.34-.14,9.07-.27.49-.58.69-1.3.97-1.17.46-2.28.99-2.77,1.49Z"/>
      <path d="M12.79,97.2c0,.15,0,.33,0,.47.01.49.04.48.06,1.2.03.87.39,3.87-.28,5.52s-3.55,2.94-4.69,1.93c-1.07-.96.18-2.19.18-2.19.49-.5,1.62-1.05,2.81-1.52.73-.29,1.08-.48,1.32-.99.35-.73-.08-8.31.58-9.07.26-.31.06,1.16.02,3.01l-.02,1.64Z"/>
      <g>
        <path d="M6.55,247.08s-1.23,1.21-.18,2.15c1.11.99,4.08-.2,4.6-1.89.49-1.56.24-5.73.24-6.33s-.05-1.99,1.02-1.69,1.87,1.62,1.99,3.1c.06.77,0,1.34.08,1.41.1.08.22-.76.15-1.85s-.59-2.14-1.63-2.95-1.46-1.41-1.65-2.43-.25-1.38-.42-1.05c-.38.75.25,8.34-.14,9.07-.27.49-.58.69-1.3.97-1.17.46-2.28.99-2.77,1.49Z" style="fill: #0c0100;"/>
        <path d="M11.15,242.89c0-.6-.05-1.99,1.02-1.69s1.87,1.62,1.99,3.1c.06.77,0,1.34.08,1.41.1.08.22-.76.15-1.85s-.59-2.14-1.63-2.95-1.46-1.41-1.65-2.43" style="fill: #0c0100;"/>
        <path d="M11.15,244.8c0-.6-.05-1.99,1.02-1.69s1.87,1.62,1.99,3.1c.06.77,0,1.34.08,1.41.1.08.22-.76.15-1.85s-.59-2.14-1.63-2.95-1.46-1.41-1.65-2.43" style="fill: #0c0100;"/>
      </g>
      <g>
        <path d="M6.55,198.97s-1.23,1.21-.18,2.15c1.11.99,4.08-.2,4.6-1.89.49-1.56.24-5.73.24-6.33s-.05-1.99,1.02-1.69,1.87,1.62,1.99,3.1c.06.77,0,1.34.08,1.41.1.08.22-.76.15-1.85s-.59-2.14-1.63-2.95-1.46-1.41-1.65-2.43-.25-1.38-.42-1.05c-.38.75.25,8.34-.14,9.07-.27.49-.58.69-1.3.97-1.17.46-2.28.99-2.77,1.49Z" style="fill: #0c0100;"/>
        <path d="M11.15,194.79c0-.6-.05-1.99,1.02-1.69s1.87,1.62,1.99,3.1c.06.77,0,1.34.08,1.41.1.08.22-.76.15-1.85s-.59-2.14-1.63-2.95-1.46-1.41-1.65-2.43" style="fill: #0c0100;"/>
      </g>
    </g>
  </g>
  <g id="components">
    <circle id="quarter" cx="34.47" cy="96.52" r="19.26" style="fill: red;"/>
    <circle id="eighth" cx="34.47" cy="144.71" r="19.26" style="fill: red;"/>
    <circle id="mode" cx="46.42" cy="50.56" r="7.78" style="fill: red;"/>
    <circle id="mode_switch" cx="11.27" cy="51.15" r="7.78" style="fill: red;"/>
    <circle id="sixteenth" cx="34.47" cy="191.48" r="19.26" style="fill: red;"/>
    <circle id="thirtysecond" cx="34.47" cy="239.67" r="19.26" style="fill: red;"/>
    <circle id="mode_led" cx="11.27" cy="35.56" r="7.13" style="fill: #f0f;"/>
    <circle id="quarter_led" cx="10.21" cy="75.38" r="7.13" style="fill: #f0f;"/>
    <circle id="sixteenth_led" cx="10.21" cy="170.35" r="7.13" style="fill: #f0f;"/>
    <circle id="thirtysecond_led" cx="10.21" cy="218.45" r="7.13" style="fill: #f0f;"/>
    <circle id="eighth_led" cx="10.21" cy="123.46" r="7.13" style="fill: #f0f;"/>
    <circle id="clock" cx="15.31" cy="281.34" r="15.14" style="fill: lime;"/>
    <circle id="gate" cx="43.1" cy="281.22" r="15.14" style="fill: lime;"/>
    <circle id="align" cx="15.31" cy="318.22" r="15.14" style="fill: lime;"/>
    <circle id="gate_out" cx="43.09" cy="318.19" r="14.94" style="fill: blue;"/>
  </g>
</svg>